<svg xmlns="http://www.w3.org/2000/svg" xmlns:xlink="http://www.w3.org/1999/xlink">
  <symbol id="logo" viewBox="0 0 69 42">
    <title>Logo</title>
    <path fill="currentColor" d="M58.8,23c-0.3,0-0.5,0-0.8,0c0-0.1,0-0.1,0-0.2c0-6.7-5.5-12.2-12.2-12.2c-1.2,0-2.3,0.2-3.4,0.5
      C40.1,4.6,33.9,0,26.6,0C17.2,0,9.7,7.6,9.7,16.9c0,0.3,0,0.5,0,0.8C4.2,18.9,0,23.8,0,29.7c0,6.7,5.5,12.2,12.2,12.2h46.7
      c5.2,0,9.4-4.2,9.4-9.4C68.3,27.2,64.1,23,58.8,23z M39.7,35.1c-3.9,2.1-8.7,0.6-10.8-3.3l-0.1-0.2c0,0,0,0,0-0.1c0,0,0,0,0,0.1
      l-0.1,0.2c-2.1,3.9-6.9,5.4-10.8,3.3c-2.5-1.3-4-3.8-4.2-6.4c0.3,0.3,0.7,0.6,1.1,0.8c2.2,1.2,4.9,0.3,6-1.9c1.2-2.2,3.9-3,6-1.9
      c0.9,0.5,1.6,1.2,2,2.1c0.4-0.9,1.1-1.6,2-2.1c2.2-1.2,4.9-0.3,6,1.9c1.2,2.2,3.9,3,6,1.9c0.4-0.2,0.8-0.5,1.1-0.8
      C43.7,31.2,42.2,33.7,39.7,35.1z"/>
  </symbol>

  <symbol id="nucleus" viewBox="0 0 51 56">
    <title>Nucleus</title>
    <path fill="currentColor" d="M44.5,27.4c1-1.1,1.8-2.2,2.5-3.3c0,0,0,0,0,0c1.8,0,3.2-1.4,3.2-3.2c0-0.7-0.3-1.4-0.7-2
      c0.7-2.3,0.5-4.3-0.5-5.9c-2-3.1-7.2-3.7-13.9-1.8l0,0l0,0c-0.4-1.3-0.9-2.6-1.4-3.7c0.4-0.5,0.6-1.2,0.6-1.9c0-1.8-1.4-3.2-3.2-3.2
      c-0.3,0-0.5,0-0.8,0.1c-1.4-1.3-2.9-2-4.4-2c-4,0-7.4,4.3-9.5,11.9c-2.3-0.5-4.5-0.8-6.4-0.8c-4.3,0-7.3,1.3-8.5,3.7
      c-1.8,3.5,0.3,8.5,5.9,13.8l0,0l0,0c-5,5.9-6.6,11-4.5,14.3c0.7,1,1.7,1.8,3.1,2.3c0.4,1.3,1.6,2.2,3,2.2c1.2,0,2.3-0.7,2.8-1.7
      c1.5-0.2,3.2-0.5,5-1c2.2,6.8,5.5,10.6,9.2,10.6c4,0,7.4-4.3,9.5-11.9c2.3,0.5,4.5,0.8,6.4,0.8c4.3,0,7.3-1.3,8.5-3.7
      C52.2,37.7,50,32.7,44.5,27.4z M3.3,16.5C4.2,14.9,6.5,14,9.9,14c1.8,0,3.7,0.2,5.9,0.7c-0.5,2.4-0.9,4.9-1.2,7.6l0,0l0,0
      c-0.5,0.4-0.9,0.7-1.3,1.1c-0.1,0.1-0.2,0.1-0.2,0.2c-0.6,0.5-1.1,1-1.7,1.5c-0.2,0.2-0.3,0.3-0.5,0.5c-0.4,0.3-0.7,0.7-1.1,1.1
      c-0.2,0.2-0.3,0.4-0.5,0.5c-0.2,0.2-0.3,0.3-0.5,0.5C4.1,23.2,2.1,19,3.3,16.5z M14.5,32c0,0.1,0,0.2,0,0.4c0,0,0,0,0,0
      c-0.7-0.5-1.3-0.9-1.9-1.4c-0.2-0.2-0.4-0.3-0.6-0.5c-0.4-0.3-0.8-0.7-1.2-1c-0.1-0.1-0.2-0.2-0.3-0.2c0.1-0.1,0.2-0.2,0.3-0.3
      c0.4-0.4,0.8-0.8,1.2-1.2c0.2-0.2,0.4-0.4,0.6-0.6c0.6-0.5,1.1-1,1.7-1.6c0.1-0.1,0.1-0.1,0.2-0.2c0,0,0,0.1,0,0.1
      c0,1-0.1,2-0.1,2.9C14.3,29.5,14.4,30.7,14.5,32z M12,44.1c-0.4-1.4-1.6-2.4-3.1-2.4c-1.3,0-2.4,0.8-2.9,1.8
      c-0.6-0.3-1.1-0.7-1.4-1.2c-1.5-2.3,0.1-6.7,4.3-11.6c0.2,0.1,0.3,0.3,0.5,0.4c0.2,0.1,0.3,0.3,0.5,0.4c0.4,0.3,0.8,0.6,1.2,0.9
      c0.1,0.1,0.3,0.2,0.4,0.3c0.5,0.4,1.1,0.8,1.7,1.2c0.1,0,0.1,0.1,0.2,0.1c0.4,0.3,0.9,0.6,1.3,0.9v0h0c0.3,2.9,0.8,5.7,1.4,8.2
      C14.6,43.7,13.2,44,12,44.1z M34.1,16.5c0,0.2,0.1,0.5,0.1,0.7c0.2,0.9,0.3,1.8,0.4,2.8c0,0,0,0.1,0,0.1c-0.1-0.1-0.2-0.1-0.3-0.2
      c-1-0.6-2.1-1.2-3.2-1.8c-1-0.5-2.1-1-3.1-1.5c-0.1,0-0.2-0.1-0.3-0.1c0,0,0.1,0,0.1,0c0.9-0.4,1.8-0.8,2.6-1.2
      c0.2-0.1,0.5-0.2,0.7-0.3c0.6-0.3,1.3-0.5,1.9-0.7c0.1,0,0.3-0.1,0.4-0.1c0,0.1,0.1,0.3,0.1,0.4C33.8,15.1,34,15.8,34.1,16.5z
       M25.9,2.9c0.9,0,1.7,0.4,2.6,1.1c-0.4,0.5-0.6,1.1-0.6,1.8c0,1.8,1.4,3.2,3.2,3.2c0.2,0,0.5,0,0.7-0.1c0.4,0.9,0.8,2,1.2,3.1
      c-0.2,0.1-0.5,0.2-0.8,0.3c-0.2,0.1-0.5,0.2-0.7,0.3c-0.5,0.2-1,0.4-1.5,0.6c-0.2,0.1-0.4,0.2-0.6,0.2c-0.7,0.3-1.4,0.6-2.2,1
      c-0.1,0-0.1,0.1-0.2,0.1c-0.6,0.3-1.1,0.6-1.7,0.9v0l0,0c-2.3-0.9-4.6-1.7-6.7-2.3C20.3,6.8,23.1,2.9,25.9,2.9z M17.9,15.2
      c1.6,0.4,3.2,0.9,4.8,1.5c-1.1,0.6-2.2,1.3-3.2,2c-0.8,0.6-1.7,1.1-2.5,1.7C17.2,18.6,17.6,16.9,17.9,15.2z M17.1,36.6
      c1.1,0.7,2.3,1.3,3.4,2c1.1,0.6,2.3,1.1,3.4,1.7c-1.9,1-3.9,1.7-5.7,2.4C17.7,40.7,17.3,38.7,17.1,36.6z M25.9,53.8
      c-2.6,0-5.3-3.5-7.1-9.1c2.5-0.9,5.1-2,7.7-3.4l0,0h0c2.3,0.9,4.6,1.7,6.7,2.3C31.5,49.9,28.7,53.8,25.9,53.8z M33.8,41.5
      c-1.6-0.4-3.2-0.9-4.8-1.5c1.1-0.6,2.2-1.3,3.2-2c0.9-0.6,1.7-1.1,2.5-1.7C34.5,38.1,34.2,39.8,33.8,41.5z M35,33.3
      c-1.3,1-2.6,2-4,2.9c-1.5,1-3.1,1.9-4.6,2.8c-1.6-0.7-3.3-1.5-4.9-2.3c-1.6-0.9-3.2-1.8-4.8-2.8c0-0.5-0.1-1.1-0.1-1.6
      c0-0.3,0-0.6-0.1-1c0-1-0.1-1.9-0.1-2.9c0-0.9,0-1.7,0.1-2.6c0-0.3,0-0.6,0-0.9c0-0.5,0.1-1,0.1-1.5c1.3-1,2.6-2,4-2.9
      c1.5-1,3-1.9,4.6-2.8c0.5,0.2,1,0.5,1.6,0.7c0.3,0.1,0.5,0.2,0.8,0.3c0.9,0.4,1.7,0.8,2.6,1.3c0.9,0.5,1.7,0.9,2.5,1.4
      c0.3,0.2,0.5,0.3,0.8,0.5c0.5,0.3,1,0.6,1.4,0.9c0.2,1.8,0.2,3.7,0.2,5.5C35.2,30,35.2,31.6,35,33.3z M35.7,13.4
      c2.4-0.7,4.5-1,6.4-1c1.8,0,4.1,0.3,5.1,1.9c0.6,0.9,0.7,2.1,0.4,3.6c-0.2,0-0.3-0.1-0.5-0.1c-1.8,0-3.2,1.4-3.2,3.2
      c0,0.9,0.4,1.8,1.1,2.3c-0.6,0.8-1.3,1.7-2,2.6c-1.7-1.5-3.7-3-5.8-4.4v0l0,0c-0.1-0.6-0.1-1.2-0.2-1.8c0-0.1,0-0.2,0-0.3
      c-0.1-0.8-0.2-1.6-0.4-2.3c0-0.2-0.1-0.4-0.1-0.7c-0.1-0.5-0.2-1-0.3-1.5c-0.1-0.3-0.1-0.5-0.2-0.8C35.8,13.9,35.7,13.7,35.7,13.4z
       M37.3,24.4c1.5,1,2.8,2.1,4.1,3.2c-1.2,1.3-2.6,2.6-4,3.8c0-1,0.1-2,0.1-3.1C37.4,27,37.4,25.7,37.3,24.4z M48.4,40.2
      c-0.8,1.6-3.2,2.5-6.6,2.5c-1.8,0-3.7-0.2-5.9-0.7c0.5-2.4,0.9-4.9,1.2-7.6l0,0v0c2.2-1.7,4.1-3.5,5.9-5.4
      C47.6,33.5,49.7,37.7,48.4,40.2z"/>
  </symbol>

  <symbol id="infinity" viewBox="0 0 60 26">
    <title>Infinity</title>
    <path fill="currentColor" d="M46.3,26c-6.8,0-11.7-5.4-16.3-10.9C25.3,20.7,20.5,26,13.7,26C6.7,26,1,20.3,1,13.3c0-7,5.7-12.7,12.7-12.7
      c6.9,0,11.7,5.3,16.3,10.8c4.6-5.5,9.5-10.8,16.3-10.8c7,0,12.7,5.7,12.7,12.7C59,20.3,53.3,26,46.3,26z M31.6,13.3
      c4.6,5.4,8.9,10.3,14.7,10.3c5.7,0,10.3-4.6,10.3-10.3S52,3,46.3,3C40.4,3,35.9,8.1,31.6,13.3z M13.7,3C8,3,3.4,7.6,3.4,13.3
      S8,23.6,13.7,23.6c5.9,0,10.2-4.9,14.7-10.3C24.1,8.1,19.6,3,13.7,3z"/>
  </symbol>

  <symbol id="smiley" viewBox="0 0 56 56">
    <title>Smiley</title>
    <circle fill="none" stroke="currentColor" stroke-width="3" stroke-miterlimit="10" cx="27.9" cy="27.9" r="26.1"/>
    <path fill="none" stroke="currentColor" stroke-width="3" stroke-miterlimit="10" d="M43.6,31.2c-2.2,6.6-8.4,11.3-15.7,11.3
      c-7.3,0-13.5-4.7-15.7-11.2"/>
    <path fill="none" stroke="currentColor" stroke-width="3" stroke-miterlimit="10" d="M12.8,20.8c0-2.2,1.8-4,4-4s4,1.8,4,4"/>
    <path fill="none" stroke="currentColor" stroke-width="3" stroke-miterlimit="10" d="M35.6,20.8c0-2.2,1.8-4,4-4s4,1.8,4,4"/>
  </symbol>

  <symbol id="apple" viewBox="0 0 45 52">
    <title>Apple</title>
    <path fill="currentColor" d="M44.3,38.3c-1.2,2.7-1.8,3.9-3.4,6.3c-2.2,3.3-5.2,7.4-9,7.5
      c-3.4,0-4.2-2.2-8.8-2.2c-4.6,0-5.5,2.2-8.9,2.2c-3.8,0-6.7-3.8-8.9-7.1c-6.1-9.3-6.7-20.1-3-25.9c2.7-4.1,6.9-6.5,10.8-6.5
      c4,0,6.6,2.2,9.9,2.2c3.2,0,5.2-2.2,9.9-2.2c3.5,0,7.2,1.9,9.9,5.2C34.1,22.5,35.5,34.9,44.3,38.3L44.3,38.3z"/>
    <path fill="currentColor" d="M29.4,8.8c1.7-2.2,3-5.2,2.5-8.4c-2.8,0.2-6,1.9-7.9,4.2
      c-1.7,2.1-3.1,5.2-2.6,8.2C24.4,12.9,27.6,11.1,29.4,8.8L29.4,8.8z"/>
  </symbol>

  <symbol id="android" viewBox="0 0 49 58">
    <title>Android</title>
    <path fill="currentColor" d="M14.2,0.7l2.7,4.7C12,7.8,8.7,12.5,8.7,17.9h15.6H40c0-5.4-3.3-10.1-8.2-12.5l2.7-4.7c0,0,0.1-0.2-0.1-0.4
      C34.1,0.2,34,0.5,34,0.5l-2.7,4.7c-2.1-0.9-4.4-1.4-6.9-1.4s-4.8,0.5-6.9,1.4l-2.7-4.7c0,0-0.2-0.2-0.4-0.1S14.2,0.7,14.2,0.7
      L14.2,0.7z M16.9,9.8c0.8,0,1.5,0.7,1.5,1.5c0,0.8-0.7,1.5-1.5,1.5c-0.8,0-1.5-0.6-1.5-1.5C15.4,10.5,16.1,9.8,16.9,9.8z M31.8,9.8
      c0.8,0,1.5,0.7,1.5,1.5c0,0.8-0.7,1.5-1.5,1.5c-0.8,0-1.5-0.6-1.5-1.5C30.3,10.5,31,9.8,31.8,9.8z"/>
    <path fill="currentColor" d="M8.6,19.7v23.7c0,1.2,1.4,2.7,2.6,2.7h3.7v8.1c0,2.1,1.5,3.7,3.4,3.7s3.4-1.7,3.4-3.7v-8.1H27v8.1
      c0,2.1,1.5,3.7,3.4,3.7s3.4-1.7,3.4-3.7v-8.1h3.7c1.2,0,2.6-1.5,2.6-2.7V19.7H8.6L8.6,19.7z"/>
    <path fill="currentColor" d="M3.4,19.2L3.4,19.2c1.9,0,3.4,1.7,3.4,3.7V37c0,2.1-1.5,3.7-3.4,3.7l0,0C1.5,40.8,0,39.1,0,37V22.9
      C0,20.9,1.5,19.2,3.4,19.2z"/>
    <path fill="currentColor" d="M45.3,19.2L45.3,19.2c1.9,0,3.4,1.7,3.4,3.7V37c0,2.1-1.5,3.7-3.4,3.7l0,0c-1.9,0-3.4-1.7-3.4-3.7V22.9
      C41.9,20.9,43.4,19.2,45.3,19.2z"/>
  </symbol>

  <symbol id="unity" viewBox="0 0 79 29">
    <title>Unity</title>
    <path fill="currentColor" d="M44.1,9h-2.8v6.4c0,1.6-0.7,2.9-2.6,2.9c-2,0-2.5-1.3-2.5-3V9h-2.8v7c0,2,0.7,4.9,4.5,4.9
      c2.1,0,3.1-1,3.6-1.9v1.5h2.6V9z"/>
    <path fill="currentColor" d="M45.2,20.5h2.8v-6.4c0-1.6,0.7-2.9,2.6-2.9c1.9,0,2.5,1.3,2.5,3v6.3h2.8v-7c0-2-0.7-4.9-4.5-4.9
      c-2.1,0-3.1,1-3.6,1.9c0-0.5,0-1,0-1.5h-2.6V20.5z"/>
    <path fill="currentColor" d="M56.9,7.4h2.8V4.9h-2.8V7.4z M56.9,20.5h2.8V9h-2.8V20.5z"/>
    <path fill="currentColor" d="M62.5,20.5h2.8v-9.4h2L66.4,9h-1.2v-4h-2.8v4h-1.9v2.1h1.9V20.5z"/>
    <path fill="currentColor" d="M69.9,24.5h2.9L78.9,9H76l-2.8,7.7L70.4,9h-2.9l4.4,11.1L69.9,24.5z"/>
    <path fill="currentColor" d="M28,11.7L25,0.3L13.5,3.3l-1.7,3l-3.4,0L0,14.6L8.4,23l0,0l3.4,0l1.7,3L25,29L28,17.6l-1.7-3L28,11.7z
       M20.9,4.5l-5,8.7H5.8l6.3-6.4L20.9,4.5z M15.8,16l5,8.7l-8.8-2.2L5.8,16H15.8z M18.3,14.6l5-8.7l2.4,8.7l-2.4,8.7L18.3,14.6z"/>
  </symbol>

  <symbol id="facebook" viewBox="0 0 10 20">
    <title>Facebook</title>
    <path fill="currentColor" d="M9.1,10.1l-2.7,0l0,9.9H2.7v-9.9H0.2V6.6l2.5,0l0-2c0-2.8,0.8-4.5,4-4.5h2.7v3.4H7.8C6.5,3.6,6.4,4,6.4,4.9
      l0,1.7h3.1L9.1,10.1z"/>
  </symbol>

  <symbol id="twitter" viewBox="0 0 20 17">
    <title>Twitter</title>
    <path fill="currentColor" d="M17.8,4.9l0,0.5c0,5.4-4.1,11.6-11.6,11.6c-2.3,0-4.4-0.7-6.2-1.8c0.3,0,0.6,0.1,1,0.1
      c1.9,0,3.7-0.7,5.1-1.7c-1.8,0-3.3-1.2-3.8-2.8c0.3,0,0.5,0.1,0.8,0.1c0.4,0,0.7,0,1.1-0.1c-1.9-0.4-3.3-2-3.3-4V6.5
      C1.3,6.8,2,7,2.6,7c-1.1-0.7-1.8-2-1.8-3.4c0-0.7,0.2-1.4,0.5-2c2,2.5,5,4.1,8.4,4.3C9.7,5.6,9.7,5.3,9.7,4.9c0-2.2,1.8-4.1,4.1-4.1
      c1.2,0,2.2,0.5,3,1.3c0.9-0.2,1.8-0.5,2.6-1c-0.3,1-0.9,1.8-1.8,2.3c0.8-0.1,1.6-0.3,2.3-0.6C19.3,3.6,18.6,4.3,17.8,4.9z"/>
  </symbol>

  <symbol id="check" viewBox="-0.5 5.5 25 21">
    <title>Check</title>
    <path fill="currentColor" d="M20,6L8,18l-4-4l-4,4l8,8l16-16L20,6z"/>
  </symbol>

  <symbol id="x"  viewBox="0 5.5 20 21">
    <title>X</title>
    <path fill="currentColor" d="M20,10l-4-4l-6,6L4,6l-4,4l6,6l-6,6l4,4l6-6l6,6l4-4l-6-6L20,10z"/>
  </symbol>

  <symbol id="brightness" viewBox="0 0 103.4 168.6">
    <path fill="currentColor" d="M102.5,168.6H1c-0.5,0-1-0.4-1-1V1c0-0.5,0.4-1,1-1h101.5c0.5,0,1,0.4,1,1v166.6
      C103.4,168.1,103,168.6,102.5,168.6z M1.9,166.6h99.6V1.9H1.9V166.6z"/>
    <path fill="currentColor" d="M29.5,54.7c0.6,0,1.2,0.2,1.6,0.6c0.4,0.4,0.6,0.9,0.6,1.6c0,0.6-0.2,1.2-0.6,1.6c-0.4,0.4-0.9,0.6-1.6,0.6
      h-4.4c-0.6,0-1.2-0.2-1.6-0.6c-0.4-0.4-0.6-0.9-0.6-1.6c0-0.6,0.2-1.2,0.6-1.6c0.4-0.4,0.9-0.6,1.6-0.6H29.5z M31.3,39.8
      c-1-1.1-1-2.2,0-3.2c1-1,2.1-1,3.2,0l3.1,3.2c1,1,1,2,0,3.1c-1,1-2,1-3.1,0L31.3,39.8z M34.5,71.1c1-1.1,2-1.1,3.1-0.1
      c1,1.1,1,2.1,0,3.1l-3.1,3.2c-1.1,1-2.2,1-3.2,0c-1-1-1-2.1,0-3.2L34.5,71.1z M62.7,46c3.1,3.1,4.6,6.7,4.6,11c0,4.3-1.5,7.9-4.6,11
      s-6.7,4.6-11,4.6c-4.3,0-7.9-1.5-11-4.6s-4.6-6.7-4.6-11c0-4.3,1.5-7.9,4.6-11c3.1-3.1,6.7-4.6,11-4.6C56,41.4,59.6,42.9,62.7,46z
       M59.5,64.9c2.2-2.2,3.3-4.9,3.3-7.9s-1.1-5.7-3.3-7.8c-2.2-2.2-4.8-3.3-7.8-3.3s-5.7,1.1-7.8,3.3c-2.2,2.2-3.3,4.8-3.3,7.8
      s1.1,5.7,3.3,7.8c2.2,2.2,4.8,3.3,7.8,3.3S57.4,67,59.5,64.9z M53.9,34.8c0,0.7-0.2,1.2-0.6,1.6c-0.4,0.4-0.9,0.6-1.6,0.6
      s-1.2-0.2-1.6-0.6c-0.4-0.4-0.6-0.9-0.6-1.6v-4.4c0-0.6,0.2-1.2,0.6-1.6s0.9-0.6,1.6-0.6s1.2,0.2,1.6,0.6s0.6,0.9,0.6,1.6V34.8z
       M49.5,79.2c0-0.6,0.2-1.2,0.6-1.6c0.4-0.4,0.9-0.6,1.6-0.6s1.2,0.2,1.6,0.6c0.4,0.4,0.6,0.9,0.6,1.6v4.4c0,0.6-0.2,1.2-0.6,1.6
      c-0.4,0.4-0.9,0.6-1.6,0.6s-1.2-0.2-1.6-0.6c-0.4-0.4-0.6-0.9-0.6-1.6V79.2z M68.9,42.8c-1,1-2,1-3.1,0s-1-2,0-3.1l3.1-3.2
      c1.1-1,2.2-1,3.2,0s1,2.1,0,3.2L68.9,42.8z M72.1,74.2c1,1.1,1,2.2,0,3.2c-1,1-2.1,1-3.2,0l-3.1-3.2c-1-1-1-2,0-3.1c1-1,2-1,3.1,0
      L72.1,74.2z M78.4,54.7c0.6,0,1.2,0.2,1.6,0.6s0.6,0.9,0.6,1.6c0,0.6-0.2,1.2-0.6,1.6c-0.4,0.4-0.9,0.6-1.6,0.6h-4.4
      c-0.6,0-1.2-0.2-1.6-0.6c-0.4-0.4-0.6-0.9-0.6-1.6c0-0.6,0.2-1.2,0.6-1.6c0.4-0.4,0.9-0.6,1.6-0.6H78.4z"/>
    <path fill="currentColor" d="M88.4,112.1H16.3c-1.1,0-1.9-0.9-1.9-1.9s0.9-1.9,1.9-1.9h72.1c1.1,0,1.9,0.9,1.9,1.9S89.5,112.1,88.4,112.1
      z"/>
    <path fill="currentColor" d="M88.4,126.9H16.3c-1.1,0-1.9-0.9-1.9-1.9s0.9-1.9,1.9-1.9h72.1c1.1,0,1.9,0.9,1.9,1.9S89.5,126.9,88.4,126.9
      z"/>
    <path fill="currentColor" d="M77.5,141.1H27.2c-1.1,0-1.9-0.9-1.9-1.9s0.9-1.9,1.9-1.9h50.2c1.1,0,1.9,0.9,1.9,1.9S78.5,141.1,77.5,141.1
      z"/>
  </symbol>

  <symbol id="charSmart" viewBox="0 0 252 250">
    <path fill="none" stroke="currentColor" stroke-miterlimit="10" d="M63,211.6c2.1,5.2,4.8,12.3,6.8,18.8c8.8,3.9,28.9,0.9,28.9,0.9
      s-0.2-1.6,0.6-4.6c1-3.6,9.4-10.1,14.6-0.5c0.7,2.2,1.1,4.6,1.8,6.2c6.7,1.2,20.9,0.3,27.6-1.2c5.1-14.5,10.9-27.3,10.9-27.3"/>
    <path fill="none" stroke="currentColor" stroke-miterlimit="10" d="M136.3,97.2c0,7.1-12.3,18.9-27.4,18.9
      c-15.1,0-27.4-11.8-27.4-18.9c0-7.1,12.3-2.3,27.4-2.3C124,94.9,136.3,90.1,136.3,97.2z"/>
    <path fill="none" stroke="currentColor" stroke-miterlimit="10" d="M108.9,94.9c-3.3,0-6.6-0.2-9.5-0.5c-0.3,1-0.9,2.9-0.5,4
      c0.5,1.4,4.9,2,6.9,2c1.8,0,2.9-3.5,3.2-5.4C109,94.9,109,94.9,108.9,94.9z"/>
    <path fill="none" stroke="currentColor" stroke-miterlimit="10" d="M113.8,100.1c2,0,6.4-0.5,6.9-2c0.4-1-0.1-2.9-0.5-3.9
      c-3,0.3-6.2,0.6-9.7,0.7C110.9,96.8,112,100.1,113.8,100.1z"/>
    <path fill="none" stroke="currentColor" stroke-miterlimit="10" d="M123.3,112.4c-1.7-1.3-5.4-3.8-8.3-2.7c-5.1,1.9-10-0.6-12.7-0.6
      c-4.4,0.3-7.7,3.3-7.5,3.4c4.1,2.1,8.9,3.5,14.1,3.5C114.2,116.1,119.1,114.6,123.3,112.4z"/>
    <path fill="none" stroke="currentColor" stroke-miterlimit="10" d="M155,68.3c0,5.6-0.2,10.2-0.2,10.2l4.9-3.8l-0.2-5.8"/>
    <path fill="none" stroke="currentColor" stroke-miterlimit="10" d="M56,21.9c-3.3,2.9-6.3,7.4-7.1,20.6c-0.4,7.4,0.4,13.2,1.6,17.6"/>
    <path fill="none" stroke="currentColor" stroke-miterlimit="10" d="M57.9,8.4c-2.5-0.2-5.7,0.3-9.7,1.6c0,0,5.3,2.3,8.7,5"/>
    <path fill="none" stroke="currentColor" stroke-miterlimit="10" d="M163.9,70.3c0.3-7.3,0.5-43-23.7-50.6c8.5-1.6,16.1-6.3,17-14.5
      c-9.8,3-24.6,2.6-48.5-0.6C84.9,1.5,78.5,10,77.3,12c-0.2-3.4,4.2-8.8,5.3-11.1c-12.3,0.5-14.4,11.7-15.1,14
      c-0.2-0.2-0.4-0.6-0.6-1"/>
    <path fill="none" stroke="currentColor" stroke-miterlimit="10" d="M14.8,83.9c0.3,1.4,1.7,2.4,3.2,2.1l8.5-1.8
      c1.4-0.3,2.4-1.7,2.1-3.2l0,0c-0.3-1.4-1.7-2.4-3.2-2.1l-8.5,1.8C15.4,81,14.5,82.4,14.8,83.9L14.8,83.9z"/>
    <path fill="none" stroke="currentColor" stroke-miterlimit="10" d="M59.1,68.2c-1.5,10.4-2.6,18.5-2.9,20.6l-0.1,0.4L56,89.5
      c-2.2,7.2-9.4,12-18,12c-0.2,0-0.4,0-0.6,0c-9.6-0.2-17.3-6.3-19.9-15.6"/>
    <path fill="none" stroke="currentColor" stroke-miterlimit="10" d="M27,83.9c2.3,7.2,8.7,7.9,10.7,8c3.5,0.1,7.7-1.4,9-4.9
      c1.2-9,11.1-77.2,11.5-80.1l9.5,1.4c0,0.3-2.2,15.3-4.6,32.2"/>
    <path fill="none" stroke="currentColor" stroke-miterlimit="10" d="M116.8,232.6c0,0.3,0.1,0.7,0.1,1l0.2,8.5c0,3.8,3.1,6.9,6.9,6.9
      h23.6c3.8,0,8.7-1.6,8.7-5.4c0-3.8-5.9-6.1-15.3-6.4c0.2-1.8,0.5-3.7,0.9-5.6"/>
    <path fill="none" stroke="currentColor" stroke-miterlimit="10" d="M72.4,231.3c0.3,2.1,0.4,4.1,0.3,6c0.1,0,0.2,0,0.3,0
      c-9.4,0.3-15.3,2.6-15.3,6.4c0,3.8,4.9,5.4,8.7,5.4H90c3.8,0,6.9-3.1,6.9-6.9l0.1-8.4c0.1-0.7,0.2-1.4,0.3-2.2"/>
    <path fill="none" stroke="currentColor" stroke-miterlimit="10" d="M52.8,95.2l-0.9,13.4v0c0,0-51,19.8-51.4,33.5
      C0,156,16.5,176.2,19,181.7c2.5,5.5,2.8,8.6,6.9,12.3c4.1,3.7,5.7-0.4,4.8-2.4c-0.9-2.1-3.5-6.7-3.5-6.7s0-2.8,2.5,0
      c2.5,2.8,7.3,6.7,8.8,6.7c1.6,0,4.5-2.3,1.9-5.7c-2.5-3.4-7.6-7.1-6.9-8c0.7-0.9,11.2,6.7,13.7,5c2.8-2,0.8-6.1-4.8-9.3
      c-3.2-1.6-8.9-6.5-7.2-7.8c1.7-1.4,5.1-1.7,5.1-3.8c0-2.1-8-1.3-10.3,0c-2.3,1.3-9.4-12.4-9.9-16c-0.2-1.9,8.9-5.9,17.4-9.1"/>
    <path fill="none" stroke="currentColor" stroke-miterlimit="10" d="M164.9,147l-0.9-12.6c2.7-1,8.3-2.9,19.3-6.3
      c18.9-5.9,36.5-21.9,41.7-30.8c5.1-8.9,5.2-12.3,8.9-15.2c4.3-3.4,6.3-5.9,8.4-10.2c1.6-3.4,7.5-6.1,8.4-7.9
      c1.3-2.7-0.7-6.5-2.8-5.9c-2.2,0.6-4.1,3-5.6,4.2c-1,0.8-1.9,2-2.5,1.7c-0.7-0.4,0.6-2.3,3-5.3c2.4-3.2,3.6-5.2,3-7.5
      c-0.6-2.3-3.3-2.3-4.8-1.6c-1.5,0.8-3.8,4.4-5.1,7.4c-0.8,1.8-2.7,4.3-2.8,2.6c0-1,1.3-5,1.3-5c1.8-5.6-0.4-8.6-3.9-8
      c-3.5,0.6-3.4,8.9-3.5,12.4c-0.2,3.5-4.1,7.9-7.6,3.5c-3.5-4.4-5.3-5.8-7.7-4.5c-2.7,1.3-3,4.6,0.3,7.2c3.3,2.6,6.5,6.2,5.6,9.6
      c-12.4,36.2-49.1,34.7-49.1,34.7s-3.6-0.3-5.8-0.5l-1.8-26c1.6-0.6,2.9-2.8,3.6-7.2c0.8-4.5-1.2-9.8-4.6-6.8
      c0-3.9-0.4-7.7-1.3-11.3"/>
    <path fill="none" stroke="currentColor" stroke-miterlimit="10" d="M166.4,169.4"/>
    <path fill="none" stroke="currentColor" stroke-miterlimit="10" d="M107.1,90.7c-13.4,0-26.1-3.5-35.6-9.7c-7.1-4.7-12-10.5-14.2-16.9
      c-1-2.7-1.4-5.5-1.4-8.4c0-7.3,3.3-13,9.9-17c2.2-1.3,4.8-2.4,7.7-3.4c8.2-2.6,19.2-3.8,35.5-3.8c16.1,0,26.3,1.1,33.8,3.8
      c10.4,3.7,15.7,10.5,15.7,20.3c0,9.7-5.6,18.7-15.7,25.3C133.1,87.2,120.5,90.7,107.1,90.7z M108.9,39.8
      C77.4,39.8,64,44.5,64,55.6C64,62.4,68.3,69,76,74c8.2,5.4,19.3,8.4,31.1,8.4c11.8,0,22.9-3,31.1-8.4c7.7-5,12-11.6,12-18.4
      C150.1,44.2,138.6,39.8,108.9,39.8z"/>
    <circle fill="none" stroke="currentColor" stroke-miterlimit="10" cx="93.1" cy="63.4" r="13.9"/>
    <circle fill="none" stroke="currentColor" stroke-miterlimit="10" cx="93.1" cy="63.4" r="6.4"/>
    <circle fill="none" stroke="currentColor" stroke-miterlimit="10" cx="93.1" cy="63.4" r="3.4"/>
    <circle fill="none" stroke="currentColor" stroke-miterlimit="10" cx="123.4" cy="63.4" r="13.9"/>
    <circle fill="none" stroke="currentColor" stroke-miterlimit="10" cx="123.4" cy="63.4" r="6.4"/>
    <circle fill="none" stroke="currentColor" stroke-miterlimit="10" cx="123.4" cy="63.4" r="3.4"/>
    <path fill="none" stroke="currentColor" stroke-miterlimit="10" d="M41.5,150.6c0.2,0.3,0.5,0.6,0.7,0.9v0c0,0,0,0,0,0
      c0.8,1,1.7,1.9,2.7,2.7c1.2,1.7,2,3.6,2.6,5.7c-0.3-0.1-0.5-0.1-0.8-0.2c-6-1.6-12.2-0.7-17.3,2"/>
    <path fill="none" stroke="currentColor" stroke-miterlimit="10" d="M17,178.2c-2.6,12.5,5,25,17.5,28.2c0.9,0.2,22.6,5.8,50.4,7
      c3.6,0.2,7.1,0.2,10.5,0.2c34.6,0,63.1-7.6,84.8-22.7c10.9-7.6,13.6-22.6,6-33.6s-22.6-13.6-33.6-6
      c-21.7,15.1-56.1,15.5-81.2,12.7c-1.3-4.4,1-10.1,2.8-13.6c2.4-3.3,3.7-7.3,3.7-11.7c0-11.2-9.1-20.2-20.2-20.2
      c-11.2,0-20.2,9.1-20.2,20.2c0,0.5,0,0.9,0,1.4"/>
    <circle fill="none" stroke="currentColor" stroke-miterlimit="10" cx="51.2" cy="136.3" r="3.3"/>
    <path fill="none" stroke="currentColor" stroke-miterlimit="10" d="M41.7,147.4c0,0,1.6,1.9,0.3,3.1c-0.8,0.4-7,0.5-9.8-0.7
      c-1.7-0.7-2.7-1.5-3.7-2.4c1-0.5,1.9-1,3.7-0.4C36.4,148.3,41.7,147.4,41.7,147.4z"/>
    <path fill="none" stroke="currentColor" stroke-miterlimit="10" d="M30.3,146.7c-1.7-1-3-2.7-3-5.6c0,0,7.2,1,11.4-1.5
      c6.8-2.9,3,7.8,3,7.8"/>
  </symbol>

  <symbol id="charInfinite" viewBox="0 0 205 284">
    <path fill="none" stroke="currentColor" stroke-miterlimit="10" d="M118.9,205.7c0,0-1.8,6.2-2.7,9.5c-1,3.4-5.4,11.7-10,24.8
      c-6.1,1.4-19.1,2.1-25.2,1c-0.6-1.5-1-3.6-1.6-5.7c-4.8-8.8-12.4-2.9-13.3,0.4c-0.7,2.7-0.5,4.2-0.5,4.2s-18.4,2.7-26.4-0.8
      c-1.8-5.9-4.3-12.4-6.2-17.1c0,0-1.9-5-3.6-13.4"/>
    <path fill="none" stroke="currentColor" stroke-miterlimit="10" d="M99.7,118.5c0,6.4-11.2,17.2-24.9,17.2
      c-13.8,0-24.9-10.8-24.9-17.2c0-6.4,11.2-2.1,24.9-2.1C88.5,116.4,99.7,112,99.7,118.5z"/>
    <path fill="none" stroke="currentColor" stroke-miterlimit="10" d="M74.8,116.4c-3,0-6-0.2-8.7-0.5c-0.3,1-0.8,2.7-0.5,3.6
      c0.5,1.3,4.5,1.8,6.3,1.8c1.7,0,2.7-3.2,3-4.9C74.9,116.4,74.8,116.4,74.8,116.4z"/>
    <path fill="none" stroke="currentColor" stroke-miterlimit="10" d="M79.2,121.1c1.9,0,5.8-0.5,6.3-1.8c0.3-0.9-0.1-2.6-0.4-3.6
      c-2.7,0.3-5.7,0.6-8.8,0.6C76.6,118.2,77.6,121.1,79.2,121.1z"/>
    <path fill="none" stroke="currentColor" stroke-miterlimit="10" d="M87.9,132.4c-1.5-1.2-4.9-3.4-7.6-2.5c-4.6,1.7-9.1-0.5-11.6-0.5
      c-4,0.3-7,3-6.8,3.1c3.8,1.9,8.1,3.2,12.8,3.2C79.6,135.7,84.1,134.4,87.9,132.4z"/>
    <path fill="none" stroke="currentColor" stroke-miterlimit="10" d="M124.9,94.7c0.1,5.3,0.3,25.7,0,35.5"/>
    <path fill="none" stroke="currentColor" stroke-miterlimit="10" d="M109.6,95.1c0,5.5-4.4,9.9-9.9,9.9c-5.5,0-9.9-4.4-9.9-9.9
      c0-5.5,4.4-9.9,9.9-9.9C105.2,85.2,109.6,89.6,109.6,95.1z"/>
    <circle fill="none" stroke="currentColor" stroke-miterlimit="10" cx="99.7" cy="95.1" r="2.7"/>
    <path fill="none" stroke="currentColor" stroke-miterlimit="10" d="M59.7,95.1c0,5.5-4.4,9.9-9.9,9.9c-5.5,0-9.9-4.4-9.9-9.9
      c0-5.5,4.4-9.9,9.9-9.9C55.3,85.2,59.7,89.6,59.7,95.1z"/>
    <circle fill="none" stroke="currentColor" stroke-miterlimit="10" cx="49.8" cy="95.1" r="2.7"/>
    <path fill="none" stroke="currentColor" stroke-miterlimit="10" d="M92.9,170.2c0,0,0.5,14.3,12.8,15.7c5.3,0.3,10.9-8.5,8.5-17.1
      C107.3,170.1,92.9,170.2,92.9,170.2z"/>
    <path fill="none" stroke="currentColor" stroke-miterlimit="10" d="M85.6,241.7l0.3,7.5c0,0,2.7,4.3,6.9,3.3c3.9-1,6.3-3.5,6.3-3.5
      l0.5-7.3"/>
    <path fill="none" stroke="currentColor" stroke-miterlimit="10" d="M86,249.2c-0.8,3.1-1.8,7.6-0.9,9.7c1.2,2.9,7.8,2.7,10.5,7.1
      c3,4.8,9.7,4.8,15.6,2c5.3-2.5-6.8-7.7-12-19"/>
    <path fill="none" stroke="currentColor" stroke-miterlimit="10" d="M84.7,258c0.1,0.3,1,4.7,1.7,5.3c2.2,1.7,4.3,0.9,6.3,3.6
      c2,2.7,3.2,6.2,11.4,6.2c7.7,0,10.5-3.4,8.5-6.6"/>
    <path fill="none" stroke="currentColor" stroke-miterlimit="10" d="M98.7,268.7c0,0,4.2-8,11.4-6"/>
    <path fill="none" stroke="currentColor" stroke-miterlimit="10" d="M58.7,240.8v8.2c0,0-4.5,7.1-11.6,0l-2.2-8.3"/>
    <path fill="none" stroke="currentColor" stroke-miterlimit="10" d="M58.7,249c0,0,4.3,10.5,1.4,11.8c-2.9,1.3-8.8-0.3-16.8,2.5
      c-8,2.8-14.7,4.7-14.7-1.2c0-5.9,13.9-12.1,18.6-13.1"/>
    <path fill="none" stroke="currentColor" stroke-miterlimit="10" d="M32,256.7c0,0,5.7,0.8,7.8,7.8"/>
    <path fill="none" stroke="currentColor" stroke-miterlimit="10" d="M28.6,262.2c0,0-1,6.6,3.4,6.9c4.4,0.4,8.1-1.1,14.1-3.1
      c4.4-1.5,6.7-1,11.2-1.5c4.5-0.5,4.1-2.2,3.8-5.7"/>
    <path fill="none" stroke="currentColor" stroke-miterlimit="10" d="M93.5,208.1c0,0,5.2,10.9,20.9,11.7"/>
    <path fill="none" stroke="currentColor" stroke-miterlimit="10" d="M32.7,221.2c0,0,12.4-0.6,19.2-10.9"/>
    <path fill="currentColor" d="M69.5,212.5c-0.6,1.4,0.2,3,1.4,3.8c1.3,0.9,2.9,0.1,3.4-1.3c0.5-1.3-0.1-2.8-1.3-3.4
      c-1.4-0.7-3,0-3.8,1.3c-0.3,0.6,0.5,1.1,0.9,0.5c0.5-0.8,1.3-1.2,2.2-1c0.9,0.2,1.4,1.1,1.2,2c-0.6,2.6-3.9,0.4-3-1.6
      C70.8,212.1,69.8,211.9,69.5,212.5L69.5,212.5z"/>
    <path fill="currentColor" d="M79.1,235.7c3.4,0,6.8-0.5,10.2-1c0.6-0.1,0.4-1.1-0.3-1c-3.3,0.5-6.6,0.9-10,1
      C78.4,234.7,78.4,235.7,79.1,235.7L79.1,235.7z"/>
    <path fill="currentColor" d="M65.8,234.2c-2.5,1.5-5.5,1.4-8.4,1.4c-0.6,0-0.6,1,0,1c3,0,6.2,0,8.9-1.6
      C66.9,234.7,66.4,233.8,65.8,234.2L65.8,234.2z"/>
    <path fill="currentColor" d="M66.8,233.2c-1.4,0.7-3.2,0.5-4.7,0.3c-0.6-0.1-0.6,0.9,0,1c1.7,0.2,3.7,0.4,5.3-0.5
      C67.9,233.7,67.4,232.9,66.8,233.2L66.8,233.2z"/>
    <path fill="currentColor" d="M68.1,144.5c0,8.2,0.5,16.4,1.3,24.5c0.1,0.6,1.1,0.6,1,0c-0.8-8.2-1.3-16.3-1.3-24.5
      C69.1,143.9,68.1,143.9,68.1,144.5L68.1,144.5z"/>
    <path fill="currentColor" d="M76.3,145.1c0,8.2,1.8,16.2,1.3,24.4c0,0.6,1,0.6,1,0c0.5-8.2-1.3-16.2-1.3-24.4
      C77.3,144.4,76.3,144.4,76.3,145.1L76.3,145.1z"/>
    <path fill="currentColor" d="M70,169.6c2.7,0,5.4,0.2,8,0.6c0.6,0.1,0.9-0.9,0.3-1c-2.7-0.4-5.5-0.7-8.3-0.7
      C69.3,168.6,69.3,169.6,70,169.6L70,169.6z"/>
    <path fill="currentColor" d="M71.2,148.3c-0.8,1.2-0.3,2.7,0.8,3.5c1.1,0.9,2.7,0.1,3.1-1.1c0.8-2.3-2.4-5-3.9-2.5
      c-0.3,0.6,0.5,1.1,0.9,0.5c0.9-1.5,2.4,0.4,2.1,1.5c-0.2,0.8-1,1.2-1.7,0.7c-0.7-0.4-0.9-1.4-0.4-2.1
      C72.4,148.2,71.6,147.7,71.2,148.3L71.2,148.3z"/>
    <path fill="none" stroke="#FFFFFF" stroke-width="1.2767" stroke-linejoin="round" stroke-miterlimit="10" d="M145.9,152.9"/>
    <path fill="currentColor" d="M118.4,155.4c0.9,2.4,2.4,4.4,4.4,6.1c0.5,0.4,1.2-0.3,0.7-0.7c-1.8-1.6-3.2-3.4-4.1-5.6
      C119.1,154.5,118.2,154.8,118.4,155.4L118.4,155.4z"/>
    <path fill="currentColor" d="M117,159.1c1.7,1.8,3.6,2.6,6.1,2.6c0.6,0,0.6-1,0-1c-2.2,0-3.8-0.7-5.3-2.3
      C117.2,157.9,116.5,158.7,117,159.1L117,159.1z"/>
    <path fill="none" stroke="currentColor" stroke-miterlimit="10" d="M115.9,61.2"/>
    <path fill="none" stroke="currentColor" stroke-miterlimit="10" d="M111.4,61.2c0,0-16.6,21.2-35.4,19.1c-15.7-1.7-19.6-6-31.9-17.9
      C34.5,53.1,23.8,44.5,13.3,45c0,0-8.7,1-12.9,2.1c-4.2,1,7.3-7.7,14.5-11.5c8.8-4.7,22.6-1.4,48.9,11.1c36.7,17.5,68.1,16,68.1,16
      s-1.2-43.8-35.6-56.3c0,0-56.3-23.1-73.6,26.8"/>
    <path fill="none" stroke="currentColor" stroke-miterlimit="10" d="M29.8,50.5"/>
    <path fill="none" stroke="currentColor" stroke-miterlimit="10" d="M57.6,74.4C43.9,74.8,39.8,64,39.8,64s-2.4-3.6-5.6,2.5
      c-3.2,6.2-5.1,29.4-11,19.1c-1.5-2.7,0.2-8.1-1.3-8.1c-3.8,0-4.1,6.1-6.3,2.3c-3.3-5.6-0.6-17.9,1.3-24.5c1.2-4.1,3.1-9.5,3.1-9.5"
      />
    <path fill="none" stroke="currentColor" stroke-miterlimit="10" d="M102.5,70.8c0,0,9.6,19.1,11.6,18.6c2-0.5,1.9-4.5,3.2-6.6
      s5.2,11.5,7.6,11.9c2.4,0.4,4.8-14.7,4.4-17.6c-0.4-2.8,1.5-1.8,2.8,1c1.4,2.8,4.5-5.6-0.2-15.4"/>
    <path fill="none" stroke="currentColor" stroke-miterlimit="10" d="M20,130.8c0,0-19.1,17.7-18.9,30.4c0,0,12.5,6.4,16.4,5.9"/>
    <path fill="none" stroke="currentColor" stroke-miterlimit="10" d="M20,153.6c0,0-2,6.2-2.3,23.8c-0.4,17.6-0.5,22.6,4,29.6
      c22,7.8,84.8-0.2,103.3-1.7c5.2-11.5-1.6-43.7-1.6-43.7s6.1,7.3,9.2,7.9c3.1,0.7,4-3.2,10.3-8.2c4.9-3.9,9-4.4,11.5-8.3
      c0.9-2.9-29.4-22.8-29.4-22.8c-49.2,29.8-85,5.5-104.9,0.6L20.3,78"/>
    <path fill="none" stroke="currentColor" stroke-miterlimit="10" d="M4.9,163c0,0-8.5,38.5,0,54.8c0,0-3.9,13.2,5.7,17.3
      c7.9,3.4,12.7,0.9,12.7-0.5c0-3.4-3.3-3.2-5.8-5.4"/>
    <path fill="none" stroke="currentColor" stroke-miterlimit="10" d="M18.1,198.1c1.2,1.4-1.8,16.2-1.8,17.6c0,0,6.9,8,5.9,11.5
      c-1.7,5.5-6.4,2.3-8.2-3.5"/>
    <path fill="none" stroke="#FFFFFF" stroke-width="1.5016" stroke-linejoin="round" stroke-miterlimit="10" d="M8.1,231.5"/>
    <path fill="none" stroke="currentColor" stroke-miterlimit="10" d="M166.8,187.4c-3.7,2.8-4.9,7.1-4.1,11.6
      c1.1,6.4-14.3,56.8-19.4,61.2s-16.1,7.7-9,11.9c7.7,4.6,21.5,13.1,28.8,10.2c1.3-0.5,4.9-1.9,6.5-3.8c11.9-14,29.1-69.4,28.7-76.2
      c-0.4-6.5-4.9-12.1-10.7-15.2"/>
    <path fill="none" stroke="currentColor" stroke-miterlimit="10" d="M196,213.8"/>
    <ellipse transform="matrix(0.9546 0.2979 -0.2979 0.9546 74.0316 -49.833)" fill="none" stroke="currentColor" stroke-miterlimit="10" cx="200.5" cy="218" rx="3.2" ry="5.7"/>
    <ellipse transform="matrix(0.9546 0.2979 -0.2979 0.9546 88.1392 -42.1784)" fill="none" stroke="currentColor" stroke-miterlimit="10" cx="182.4" cy="268.1" rx="3.2" ry="5.7"/>
    <line fill="none" stroke="currentColor" stroke-miterlimit="10" x1="184.1" y1="262.7" x2="179.5" y2="260.9"/>
    <path fill="none" stroke="currentColor" stroke-miterlimit="10" d="M180.8,273.5c0,0-4-1.2-5.8-3.3"/>
    <line fill="none" stroke="currentColor" stroke-width="1.3751" stroke-linejoin="round" stroke-miterlimit="10" x1="198.8" y1="223.4" x2="193.9" y2="221.2"/>
    <path fill="none" stroke="currentColor" stroke-width="1.3751" stroke-linejoin="round" stroke-miterlimit="10" d="M202.2,212.5
      c0,0-3-1.4-5.6-1.1"/>
    <path fill="none" stroke="currentColor" stroke-miterlimit="10" d="M136.8,167.1c0,0,27.4,21.2,35.4,22.4c0,0-1.3,9.2,2.4,8.7
      s2.9-5.6,4.8-8.7c1.9-3.1,8.2-2.4,8.2-2.4s2.4-3.5-4.1-6.7c-6.4-3.2-8.8-1.2-10.7-1.7c-1.9-0.5-0.9-3.9-23.7-21.4"/>
    <path fill="none" stroke="currentColor" stroke-miterlimit="10" d="M101.3,59.4c4.5-26.2-8-54.1-8-54.1S65,19.9,62,45.8"/>
    <path fill="none" stroke="currentColor" stroke-miterlimit="10" d="M93.3,5.3c0,0-42.6-11.6-60.1,29.5"/>
  </symbol>

  <symbol id="charFun" viewBox="0 0 296 290">
    <circle fill="none" stroke="currentColor" stroke-miterlimit="10" cx="148.3" cy="143.7" r="6.6"/>
    <circle fill="none" stroke="currentColor" stroke-miterlimit="10" cx="150.9" cy="143.7" r="2.4"/>
    <circle fill="none" stroke="currentColor" stroke-miterlimit="10" cx="164.9" cy="143.7" r="6.6"/>
    <circle fill="none" stroke="currentColor" stroke-miterlimit="10" cx="167.5" cy="143.7" r="2.4"/>
    <path fill="none" stroke="currentColor" stroke-miterlimit="10" d="M128.3,96.8c-0.3,0-0.5,0.1-0.8,0.1c-25.9,5.5-27.2,10.6-29.6,29.5
      c0,0-5.1,83.7-15.1,94.4c-10,10.7-62.4,19.2-76.2-12.6c-3.1-5.3-6,0-5.5,8.3c0.5,8.3,5.1,53.1,75.8,53.8
      c11.5-1,22.7-0.3,36.1-11.6"/>
    <path fill="none" stroke="currentColor" stroke-miterlimit="10" d="M185,133.3c1.8,27.2-11.3,26.7-11.3,26.7s-15.4,0.3-31.4,0
      c-16.1-0.3-13.5-30.4-13.5-30.4s27.5,1.7,51-0.3c0.8-0.1,1.5-0.1,2.3-0.2c12.3-1.2,23.3-3.5,28.1-7.6c0,0,13.1-13.2-13.2-18.5
      c-18.2-3.7-31-7.1-46.5-7.5"/>
    <path fill="none" stroke="currentColor" stroke-miterlimit="10" d="M184.6,128.8"/>
    <circle fill="none" stroke="currentColor" stroke-miterlimit="10" cx="154.5" cy="115.4" r="4.8"/>
    <circle fill="none" stroke="currentColor" stroke-miterlimit="10" cx="145.1" cy="117.5" r="3.9"/>
    <circle fill="none" stroke="currentColor" stroke-miterlimit="10" cx="155.8" cy="117.5" r="2.1"/>
    <circle fill="none" stroke="currentColor" stroke-miterlimit="10" cx="145.8" cy="118.7" r="2.1"/>
    <circle fill="none" stroke="currentColor" stroke-miterlimit="10" cx="206.4" cy="115.6" r="2.3"/>
    <circle fill="none" stroke="currentColor" stroke-miterlimit="10" cx="201.1" cy="119.7" r="2.3"/>
    <path fill="none" stroke="currentColor" stroke-miterlimit="10" d="M127,104c1,1.9,15.5,1.6,14.1-2.1c-0.6-1.7-1.5-4-2.6-6.3
      c-1.3-2.7-2.8-5.3-4.5-6.7C131,86.3,126,102.2,127,104z"/>
    <path fill="none" stroke="currentColor" stroke-miterlimit="10" d="M140.5,100.4c4,0.6,11.7-0.2,10.7-2.8c-1.2-3.4-3.6-9.6-6.5-12
      c-2.1-1.8-5.2,5.3-6.2,10.1"/>
    <path fill="none" stroke="currentColor" stroke-miterlimit="10" d="M174.7,129.7"/>
    <path fill="none" stroke="currentColor" stroke-miterlimit="10" d="M132.7,129.8c0,0,0.7,4.4,2,5.1c1.3,0.6,3.1-3.4,3.3-4.9"/>
    <path fill="none" stroke="currentColor" stroke-miterlimit="10" d="M147.3,160c0,0-0.7-4.4-2-5.1c-1.3-0.6-3.1,3.4-3.3,4.8"/>
    <path fill="none" stroke="currentColor" stroke-miterlimit="10" d="M155.3,160c0,0-0.7-4.4-2-5.1c-1.3-0.6-3.3,3.6-3.5,5.1"/>
    <path fill="none" stroke="currentColor" stroke-miterlimit="10" d="M163.3,160c0,0-0.7-4.4-2-5.1c-1.3-0.6-3.3,3.6-3.5,5.1"/>
    <path fill="none" stroke="currentColor" stroke-miterlimit="10" d="M170.9,160c0,0-0.7-4.4-2-5.1c-1.3-0.6-3.1,3.7-3.3,5.1"/>
    <path fill="none" stroke="currentColor" stroke-miterlimit="10" d="M140.7,130.3c0,0,0.7,4.4,2,5.1c1.3,0.6,3.1-3.7,3.3-5.1"/>
    <path fill="none" stroke="currentColor" stroke-miterlimit="10" d="M148.7,130.3c0,0,0.7,4.4,2,5.1c1.3,0.6,2.8-3.6,3-5.1"/>
    <path fill="none" stroke="currentColor" stroke-miterlimit="10" d="M156.8,130.3c0,0,0.6,4,1.9,4.6c1.3,0.6,3.1-3.2,3.3-4.7"/>
    <path fill="none" stroke="currentColor" stroke-miterlimit="10" d="M164.1,130.3c0,0,1,4,2.3,4.7c1.3,0.6,3.2-3.5,3.4-4.9"/>
    <path fill="none" stroke="currentColor" stroke-miterlimit="10" d="M172.5,129.8c0,0,1.4,4.1,2.7,4.7c1.3,0.6,2.5-3.6,2.7-5.1"/>
    <path fill="none" stroke="currentColor" stroke-miterlimit="10" d="M181,129.2c0,0,1.5,4.2,2.8,4.8c1.3,0.6,2.6-4,2.8-5.4"/>
    <path fill="none" stroke="currentColor" stroke-miterlimit="10" d="M188.9,128.3c0,0,1.6,3.8,2.8,4.4c1.3,0.6,2.1-3.8,2.3-5.2"/>
    <path fill="none" stroke="currentColor" stroke-miterlimit="10" d="M195.9,127.2c0,0,2,3.5,3.3,4.1c1.3,0.6,1.7-4.1,1.9-5.5"/>
    <path fill="none" stroke="currentColor" stroke-miterlimit="10" d="M202.6,125.3c0,0,2.2,2.7,3.5,3.3c1.3,0.6,1.5-4.1,1.7-5.5"/>
    <path fill="none" stroke="currentColor" stroke-miterlimit="10" d="M118.1,268.8c-4.1-1.2-8.3-2.7-12.6-4.6"/>
    <path fill="none" stroke="currentColor" stroke-miterlimit="10" d="M187.6,128.6c0,0,16.1,62.8,13.5,92.2
      c-2.2,25.1-30.3,56.6-72.5,50.3"/>
      <ellipse transform="matrix(0.9958 9.179851e-02 -9.179851e-02 0.9958 20.7315 -14.3916)" fill="none" stroke="currentColor" stroke-miterlimit="10" cx="166.8" cy="218.2" rx="26" ry="29.4"/>
    <path fill="none" stroke="currentColor" stroke-miterlimit="10" d="M111.8,188.1c-4.7,18.1-2.4,24.9,0,26.8c0,0,6.9,7.4,11.5,8.1
      c3.5,0.5,9.8,3.6,11.4,6.2c1.7,2.8,1.1,4.8-3.3,4.6"/>
    <path fill="none" stroke="currentColor" stroke-miterlimit="10" d="M103.9,176.8c0,0-9.4,34.2-2.8,41.3c2.7,2.9,5.4,5.6,8.5,8.1
      c0.5,0.4,0,3.2,2.2,3.9c4.3,1.4,6.6,2.8,6.6,2.8s0.9,4.7,1.9,5c0.1,1.7,0.6,3.9-1.9,5c4.6,2,6.9-2.7,7.3-6.3c0,0-2.6,2.2-5.4,1.3"
      />
    <path fill="none" stroke="currentColor" stroke-miterlimit="10" d="M150.4,281.9c-2.3-2.3-4.9-3.6-11.2-5c-13.5-3-11.6-6.6-9.9-16.4"
      />
    <path fill="none" stroke="currentColor" stroke-miterlimit="10" d="M117.9,261.3c0,0,0.8,12.8,0,20.2c-0.8,7.4,7.9,6.2,17.1,6.4
      c1,0,2,0,2.9,0"/>
    <path fill="none" stroke="currentColor" stroke-miterlimit="10" d="M137.9,287.9c0,0-1.2-3.6,1.1-5.1s6.6,4.4,7.1,6
      c-1.7,0.1-3.7,0.2-4.7,0C138.7,288.4,137.9,287.9,137.9,287.9z"/>
    <path fill="none" stroke="currentColor" stroke-miterlimit="10" d="M142.6,284.1c0.2-0.5,1-1.8,1.7-2c2.7-1,7.4,4.5,7.8,6.1
      c0,0-4,0.3-6.5-0.3"/>
    <path fill="none" stroke="currentColor" stroke-miterlimit="10" d="M148.3,283.5c0.2-0.2,1.1-1.2,1.3-1.3c2.3-1.4,6.7,3.8,7.2,5.4
      c-1.3,0.4-3.9,0.3-5.1,0"/>
    <path fill="none" stroke="currentColor" stroke-miterlimit="10" d="M193,276.6c-2.7-1.6-5.2-2.2-11.5-3.6c-9.4-2.1-11.3-4.5-11-8.9"/>
    <path fill="none" stroke="currentColor" stroke-miterlimit="10" d="M160.4,268.5c0,3.2-0.1,6.5-0.3,9.1c-0.8,7.4,7.9,6.2,17.1,6.4
      c1,0,2,0,2.9,0c0,0,1.5,0.1,3-0.1"/>
    <path fill="none" stroke="currentColor" stroke-miterlimit="10" d="M181.7,283.1c0,0-0.9-3.3,1.4-4.7c2.3-1.4,6.3,4.1,6.8,5.7
      c-1.4,0.6-3.8,0.6-4.8,0.4C182.4,284,181.7,283.1,181.7,283.1z"/>
    <path fill="none" stroke="currentColor" stroke-miterlimit="10" d="M186.4,279.3c0.2-0.5,1-1.8,1.7-2c2.7-1,7.4,4.5,7.8,6.1
      c0,0-4,0.3-6.5-0.3"/>
    <path fill="none" stroke="currentColor" stroke-miterlimit="10" d="M191.3,278.1c0.2-0.2,1.1-1.2,1.3-1.3c2.3-1.4,6.7,3.8,7.2,5.4
      c-1.3,0.4-3.4,0.4-4.6,0.1"/>
    <path fill="none" stroke="currentColor" stroke-miterlimit="10" d="M14.1,219c0,0,3.4-4,5.7-3.2c2.3,0.8,0.6,5.5,0,7.6"/>
    <path fill="none" stroke="currentColor" stroke-miterlimit="10" d="M8.6,211.3c0,0,2.3-2.3,4.6-1.5c2.2,0.8,0.1,5.3-1.2,6.9"/>
    <path fill="none" stroke="currentColor" stroke-miterlimit="10" d="M23.1,225.3c0,0,4.7-6.1,7.5-5.1c2.7,1,2.3,5.8,1.6,8.4"/>
    <path fill="none" stroke="currentColor" stroke-miterlimit="10" d="M35.7,229.4c0,0,4.4-8.2,7.3-8.2c4.1-0.1,3.5,6.5,2.8,9.1"/>
    <path fill="none" stroke="currentColor" stroke-miterlimit="10" d="M50.1,230.5c0,0,2.6-8.5,5.8-9.3c4.4-1.1,5,5.3,5.2,8.3"/>
    <path fill="none" stroke="currentColor" stroke-miterlimit="10" d="M66,228.5c0,0,0-8.2,2.5-10.3c5.1-4.4,7.2,3.5,8.4,6.6"/>
    <path fill="none" stroke="currentColor" stroke-miterlimit="10" d="M81.5,222c0,0-5-8.1-2.4-11.5c1.6-2.1,4.8-0.9,7.9,0.8"/>
    <path fill="none" stroke="currentColor" stroke-miterlimit="10" d="M200.3,194.8c0,0,36.5-5.4,38.3-5.2s5.3,1,6.5,1.2s5.9,0.5,8,0.5"/>
    <path fill="none" stroke="currentColor" stroke-miterlimit="10" d="M254.2,174.6"/>
    <path fill="none" stroke="currentColor" stroke-miterlimit="10" d="M198.2,180.4c0,0,21.5,2.7,36-0.4c2.8-0.6,4.8-1.9,5.9-2.7
      c1.1-0.8,2.5-3,5.6-4c2.8-0.9,6.6-0.1,7.5,0c1.9,0.2,3.1,10.3-1.1,13.7c0,0-0.6-5.5-3.1-8c0,0,2.8-0.7,5.9-0.6"/>
    <path fill="none" stroke="currentColor" stroke-miterlimit="10" d="M250.6,188.4c0,0,2.8,3.9,4.9,3.9c2.2,0,3.1-4.4,1.8-5.2
      C256,186.3,249.7,187.3,250.6,188.4z"/>
    <path fill="none" stroke="currentColor" stroke-miterlimit="10" d="M253.5,185.8c1.2,0.6,2.3,1,3.3,0.7c2.7-0.6,2.6-6.3,0.7-7
      c-0.6-0.2-1.4-0.2-2.6,0.1"/>
    <path fill="none" stroke="currentColor" stroke-miterlimit="10" d="M255.1,179c0.8,0,1.5-0.1,2.1-0.4c2.4-1.4,0.7-6.8-1.3-6.9
      c-0.7,0-2,0.6-3.3,1.5"/>
    <path fill="none" stroke="currentColor" stroke-miterlimit="10" d="M241.9,183.8"/>
    <path fill="none" stroke="currentColor" stroke-miterlimit="10" d="M237.2,185.5c0,0-1,3.1,1.5,4.1"/>
    <path fill="none" stroke="currentColor" stroke-miterlimit="10" d="M213.6,35.6c-1.5-3.3-2.2-7-2.1-10.9c0.5-13.9,12.1-24.7,26-24.2
      c13.9,0.5,24.7,12.1,24.2,26c-0.3,9.1-5.5,16.9-12.9,21"/>
    <path fill="none" stroke="currentColor" stroke-miterlimit="10" d="M257.9,12.2c1.4-0.2,2.9-0.3,4.4-0.2c13.9,0.5,24.7,12.1,24.2,26
      c-0.1,4.1-1.3,8-3.2,11.3"/>
    <path fill="none" stroke="currentColor" stroke-miterlimit="10" d="M254.5,49.5c4.3-3,9.7-4.8,15.3-4.5c13.9,0.5,24.7,12.1,24.2,26
      s-12.1,24.7-26,24.2c-3.5-0.1-6.7-0.9-9.7-2.3"/>
    <circle fill="none" stroke="currentColor" stroke-miterlimit="10" cx="243.8" cy="72.2" r="25.1"/>
    <path fill="none" stroke="currentColor" stroke-miterlimit="10" d="M222.2,85c-2.2,0.6-4.6,0.8-7,0.7c-13.9-0.5-24.7-12.1-24.2-26
      c0.5-13.9,12.1-24.7,26-24.2c8.7,0.3,16.2,5,20.4,11.8"/>
    <line fill="none" stroke="currentColor" stroke-miterlimit="10" x1="246.1" y1="172.9" x2="215.2" y2="85.7"/>
    <line fill="none" stroke="currentColor" stroke-miterlimit="10" x1="242.9" y1="97.3" x2="247.3" y2="172.9"/>
    <line fill="none" stroke="currentColor" stroke-miterlimit="10" x1="248.3" y1="172.9" x2="269.7" y2="95.1"/>
    <path fill="none" stroke="currentColor" stroke-miterlimit="10" d="M241.9,206.8"/>
    <path fill="none" stroke="currentColor" stroke-miterlimit="10" d="M244,178.6"/>
    <path fill="none" stroke="currentColor" stroke-miterlimit="10" d="M249.4,215.6"/>
    <path fill="none" stroke="currentColor" stroke-miterlimit="10" d="M247.5,181.5"/>
    <path fill="none" stroke="currentColor" stroke-miterlimit="10" d="M246.5,224.3"/>
    <path fill="none" stroke="currentColor" stroke-miterlimit="10" d="M122.6,231.5c0,0,4.1,2.5,3.2,5"/>
    <path fill="none" stroke="currentColor" stroke-miterlimit="10" d="M125.9,235.3c0,0,3.1,1.5,4.8,0c2.8-2.4-3.8-5.5-3.8-5.5"/>
    <path fill="none" stroke="currentColor" stroke-miterlimit="10" d="M131.1,234.8c0,0,1.6,6.7-4.8,7.6c0,0,2-2.9-0.6-5.9"/>
    <path fill="none" stroke="currentColor" stroke-miterlimit="10" d="M135.3,230.4c0,0,5.1,7.4-2.9,10c0,0,1.9-4.7-1.1-6.6"/>
    <path fill="none" stroke="currentColor" stroke-miterlimit="10" d="M136.1,232.5"/>
    <path fill="none" stroke="currentColor" stroke-miterlimit="10" d="M247.6,177.1"/>
    <path fill="none" stroke="currentColor" stroke-miterlimit="10" d="M248.9,179.7"/>
    <path fill="none" stroke="currentColor" stroke-miterlimit="10" d="M249.1,179"/>
    <path fill="none" stroke="currentColor" stroke-miterlimit="10" d="M249.1,179"/>
    <path fill="none" stroke="currentColor" stroke-miterlimit="10" d="M249.1,179c0,0-3.3,0.1-4.5,0"/>
    <path fill="none" stroke="currentColor" stroke-miterlimit="10" d="M247,179.3c0,0,2.9,20.8,0.2,30.8c0,0-5.3,24.1-1.3,33.8"/>
    <path fill="none" stroke="currentColor" stroke-miterlimit="10" d="M247.8,207.6c0,0-1.6,17.2,2.6,24.3"/>
  </symbol>
</svg>
