<svg xmlns="http://www.w3.org/2000/svg" xmlns:xlink="http://www.w3.org/1999/xlink">
  <symbol id="logo" viewBox="0 0 69 42">
    <title>Logo</title>
    <path fill="currentColor" d="M58.8,23c-0.3,0-0.5,0-0.8,0c0-0.1,0-0.1,0-0.2c0-6.7-5.5-12.2-12.2-12.2c-1.2,0-2.3,0.2-3.4,0.5
      C40.1,4.6,33.9,0,26.6,0C17.2,0,9.7,7.6,9.7,16.9c0,0.3,0,0.5,0,0.8C4.2,18.9,0,23.8,0,29.7c0,6.7,5.5,12.2,12.2,12.2h46.7
      c5.2,0,9.4-4.2,9.4-9.4C68.3,27.2,64.1,23,58.8,23z M39.7,35.1c-3.9,2.1-8.7,0.6-10.8-3.3l-0.1-0.2c0,0,0,0,0-0.1c0,0,0,0,0,0.1
      l-0.1,0.2c-2.1,3.9-6.9,5.4-10.8,3.3c-2.5-1.3-4-3.8-4.2-6.4c0.3,0.3,0.7,0.6,1.1,0.8c2.2,1.2,4.9,0.3,6-1.9c1.2-2.2,3.9-3,6-1.9
      c0.9,0.5,1.6,1.2,2,2.1c0.4-0.9,1.1-1.6,2-2.1c2.2-1.2,4.9-0.3,6,1.9c1.2,2.2,3.9,3,6,1.9c0.4-0.2,0.8-0.5,1.1-0.8
      C43.7,31.2,42.2,33.7,39.7,35.1z"/>
  </symbol>

  <symbol id="nucleus" viewBox="0 0 51 56">
    <title>Nucleus</title>
    <path fill="currentColor" d="M44.5,27.4c1-1.1,1.8-2.2,2.5-3.3c0,0,0,0,0,0c1.8,0,3.2-1.4,3.2-3.2c0-0.7-0.3-1.4-0.7-2
      c0.7-2.3,0.5-4.3-0.5-5.9c-2-3.1-7.2-3.7-13.9-1.8l0,0l0,0c-0.4-1.3-0.9-2.6-1.4-3.7c0.4-0.5,0.6-1.2,0.6-1.9c0-1.8-1.4-3.2-3.2-3.2
      c-0.3,0-0.5,0-0.8,0.1c-1.4-1.3-2.9-2-4.4-2c-4,0-7.4,4.3-9.5,11.9c-2.3-0.5-4.5-0.8-6.4-0.8c-4.3,0-7.3,1.3-8.5,3.7
      c-1.8,3.5,0.3,8.5,5.9,13.8l0,0l0,0c-5,5.9-6.6,11-4.5,14.3c0.7,1,1.7,1.8,3.1,2.3c0.4,1.3,1.6,2.2,3,2.2c1.2,0,2.3-0.7,2.8-1.7
      c1.5-0.2,3.2-0.5,5-1c2.2,6.8,5.5,10.6,9.2,10.6c4,0,7.4-4.3,9.5-11.9c2.3,0.5,4.5,0.8,6.4,0.8c4.3,0,7.3-1.3,8.5-3.7
      C52.2,37.7,50,32.7,44.5,27.4z M3.3,16.5C4.2,14.9,6.5,14,9.9,14c1.8,0,3.7,0.2,5.9,0.7c-0.5,2.4-0.9,4.9-1.2,7.6l0,0l0,0
      c-0.5,0.4-0.9,0.7-1.3,1.1c-0.1,0.1-0.2,0.1-0.2,0.2c-0.6,0.5-1.1,1-1.7,1.5c-0.2,0.2-0.3,0.3-0.5,0.5c-0.4,0.3-0.7,0.7-1.1,1.1
      c-0.2,0.2-0.3,0.4-0.5,0.5c-0.2,0.2-0.3,0.3-0.5,0.5C4.1,23.2,2.1,19,3.3,16.5z M14.5,32c0,0.1,0,0.2,0,0.4c0,0,0,0,0,0
      c-0.7-0.5-1.3-0.9-1.9-1.4c-0.2-0.2-0.4-0.3-0.6-0.5c-0.4-0.3-0.8-0.7-1.2-1c-0.1-0.1-0.2-0.2-0.3-0.2c0.1-0.1,0.2-0.2,0.3-0.3
      c0.4-0.4,0.8-0.8,1.2-1.2c0.2-0.2,0.4-0.4,0.6-0.6c0.6-0.5,1.1-1,1.7-1.6c0.1-0.1,0.1-0.1,0.2-0.2c0,0,0,0.1,0,0.1
      c0,1-0.1,2-0.1,2.9C14.3,29.5,14.4,30.7,14.5,32z M12,44.1c-0.4-1.4-1.6-2.4-3.1-2.4c-1.3,0-2.4,0.8-2.9,1.8
      c-0.6-0.3-1.1-0.7-1.4-1.2c-1.5-2.3,0.1-6.7,4.3-11.6c0.2,0.1,0.3,0.3,0.5,0.4c0.2,0.1,0.3,0.3,0.5,0.4c0.4,0.3,0.8,0.6,1.2,0.9
      c0.1,0.1,0.3,0.2,0.4,0.3c0.5,0.4,1.1,0.8,1.7,1.2c0.1,0,0.1,0.1,0.2,0.1c0.4,0.3,0.9,0.6,1.3,0.9v0h0c0.3,2.9,0.8,5.7,1.4,8.2
      C14.6,43.7,13.2,44,12,44.1z M34.1,16.5c0,0.2,0.1,0.5,0.1,0.7c0.2,0.9,0.3,1.8,0.4,2.8c0,0,0,0.1,0,0.1c-0.1-0.1-0.2-0.1-0.3-0.2
      c-1-0.6-2.1-1.2-3.2-1.8c-1-0.5-2.1-1-3.1-1.5c-0.1,0-0.2-0.1-0.3-0.1c0,0,0.1,0,0.1,0c0.9-0.4,1.8-0.8,2.6-1.2
      c0.2-0.1,0.5-0.2,0.7-0.3c0.6-0.3,1.3-0.5,1.9-0.7c0.1,0,0.3-0.1,0.4-0.1c0,0.1,0.1,0.3,0.1,0.4C33.8,15.1,34,15.8,34.1,16.5z
       M25.9,2.9c0.9,0,1.7,0.4,2.6,1.1c-0.4,0.5-0.6,1.1-0.6,1.8c0,1.8,1.4,3.2,3.2,3.2c0.2,0,0.5,0,0.7-0.1c0.4,0.9,0.8,2,1.2,3.1
      c-0.2,0.1-0.5,0.2-0.8,0.3c-0.2,0.1-0.5,0.2-0.7,0.3c-0.5,0.2-1,0.4-1.5,0.6c-0.2,0.1-0.4,0.2-0.6,0.2c-0.7,0.3-1.4,0.6-2.2,1
      c-0.1,0-0.1,0.1-0.2,0.1c-0.6,0.3-1.1,0.6-1.7,0.9v0l0,0c-2.3-0.9-4.6-1.7-6.7-2.3C20.3,6.8,23.1,2.9,25.9,2.9z M17.9,15.2
      c1.6,0.4,3.2,0.9,4.8,1.5c-1.1,0.6-2.2,1.3-3.2,2c-0.8,0.6-1.7,1.1-2.5,1.7C17.2,18.6,17.6,16.9,17.9,15.2z M17.1,36.6
      c1.1,0.7,2.3,1.3,3.4,2c1.1,0.6,2.3,1.1,3.4,1.7c-1.9,1-3.9,1.7-5.7,2.4C17.7,40.7,17.3,38.7,17.1,36.6z M25.9,53.8
      c-2.6,0-5.3-3.5-7.1-9.1c2.5-0.9,5.1-2,7.7-3.4l0,0h0c2.3,0.9,4.6,1.7,6.7,2.3C31.5,49.9,28.7,53.8,25.9,53.8z M33.8,41.5
      c-1.6-0.4-3.2-0.9-4.8-1.5c1.1-0.6,2.2-1.3,3.2-2c0.9-0.6,1.7-1.1,2.5-1.7C34.5,38.1,34.2,39.8,33.8,41.5z M35,33.3
      c-1.3,1-2.6,2-4,2.9c-1.5,1-3.1,1.9-4.6,2.8c-1.6-0.7-3.3-1.5-4.9-2.3c-1.6-0.9-3.2-1.8-4.8-2.8c0-0.5-0.1-1.1-0.1-1.6
      c0-0.3,0-0.6-0.1-1c0-1-0.1-1.9-0.1-2.9c0-0.9,0-1.7,0.1-2.6c0-0.3,0-0.6,0-0.9c0-0.5,0.1-1,0.1-1.5c1.3-1,2.6-2,4-2.9
      c1.5-1,3-1.9,4.6-2.8c0.5,0.2,1,0.5,1.6,0.7c0.3,0.1,0.5,0.2,0.8,0.3c0.9,0.4,1.7,0.8,2.6,1.3c0.9,0.5,1.7,0.9,2.5,1.4
      c0.3,0.2,0.5,0.3,0.8,0.5c0.5,0.3,1,0.6,1.4,0.9c0.2,1.8,0.2,3.7,0.2,5.5C35.2,30,35.2,31.6,35,33.3z M35.7,13.4
      c2.4-0.7,4.5-1,6.4-1c1.8,0,4.1,0.3,5.1,1.9c0.6,0.9,0.7,2.1,0.4,3.6c-0.2,0-0.3-0.1-0.5-0.1c-1.8,0-3.2,1.4-3.2,3.2
      c0,0.9,0.4,1.8,1.1,2.3c-0.6,0.8-1.3,1.7-2,2.6c-1.7-1.5-3.7-3-5.8-4.4v0l0,0c-0.1-0.6-0.1-1.2-0.2-1.8c0-0.1,0-0.2,0-0.3
      c-0.1-0.8-0.2-1.6-0.4-2.3c0-0.2-0.1-0.4-0.1-0.7c-0.1-0.5-0.2-1-0.3-1.5c-0.1-0.3-0.1-0.5-0.2-0.8C35.8,13.9,35.7,13.7,35.7,13.4z
       M37.3,24.4c1.5,1,2.8,2.1,4.1,3.2c-1.2,1.3-2.6,2.6-4,3.8c0-1,0.1-2,0.1-3.1C37.4,27,37.4,25.7,37.3,24.4z M48.4,40.2
      c-0.8,1.6-3.2,2.5-6.6,2.5c-1.8,0-3.7-0.2-5.9-0.7c0.5-2.4,0.9-4.9,1.2-7.6l0,0v0c2.2-1.7,4.1-3.5,5.9-5.4
      C47.6,33.5,49.7,37.7,48.4,40.2z"/>
  </symbol>

  <symbol id="infinity" viewBox="0 0 60 26">
    <title>Infinity</title>
    <path fill="currentColor" d="M46.3,26c-6.8,0-11.7-5.4-16.3-10.9C25.3,20.7,20.5,26,13.7,26C6.7,26,1,20.3,1,13.3c0-7,5.7-12.7,12.7-12.7
      c6.9,0,11.7,5.3,16.3,10.8c4.6-5.5,9.5-10.8,16.3-10.8c7,0,12.7,5.7,12.7,12.7C59,20.3,53.3,26,46.3,26z M31.6,13.3
      c4.6,5.4,8.9,10.3,14.7,10.3c5.7,0,10.3-4.6,10.3-10.3S52,3,46.3,3C40.4,3,35.9,8.1,31.6,13.3z M13.7,3C8,3,3.4,7.6,3.4,13.3
      S8,23.6,13.7,23.6c5.9,0,10.2-4.9,14.7-10.3C24.1,8.1,19.6,3,13.7,3z"/>
  </symbol>

  <symbol id="smiley" viewBox="0 0 56 56">
    <title>Smiley</title>
    <circle fill="none" stroke="currentColor" stroke-width="3" stroke-miterlimit="10" cx="27.9" cy="27.9" r="26.1"/>
    <path fill="none" stroke="currentColor" stroke-width="3" stroke-miterlimit="10" d="M43.6,31.2c-2.2,6.6-8.4,11.3-15.7,11.3
      c-7.3,0-13.5-4.7-15.7-11.2"/>
    <path fill="none" stroke="currentColor" stroke-width="3" stroke-miterlimit="10" d="M12.8,20.8c0-2.2,1.8-4,4-4s4,1.8,4,4"/>
    <path fill="none" stroke="currentColor" stroke-width="3" stroke-miterlimit="10" d="M35.6,20.8c0-2.2,1.8-4,4-4s4,1.8,4,4"/>
  </symbol>

  <symbol id="apple" viewBox="0 0 45 52">
    <title>Apple</title>
    <path fill="currentColor" d="M44.3,38.3c-1.2,2.7-1.8,3.9-3.4,6.3c-2.2,3.3-5.2,7.4-9,7.5
      c-3.4,0-4.2-2.2-8.8-2.2c-4.6,0-5.5,2.2-8.9,2.2c-3.8,0-6.7-3.8-8.9-7.1c-6.1-9.3-6.7-20.1-3-25.9c2.7-4.1,6.9-6.5,10.8-6.5
      c4,0,6.6,2.2,9.9,2.2c3.2,0,5.2-2.2,9.9-2.2c3.5,0,7.2,1.9,9.9,5.2C34.1,22.5,35.5,34.9,44.3,38.3L44.3,38.3z"/>
    <path fill="currentColor" d="M29.4,8.8c1.7-2.2,3-5.2,2.5-8.4c-2.8,0.2-6,1.9-7.9,4.2
      c-1.7,2.1-3.1,5.2-2.6,8.2C24.4,12.9,27.6,11.1,29.4,8.8L29.4,8.8z"/>
  </symbol>

  <symbol id="android" viewBox="0 0 49 58">
    <title>Android</title>
    <path fill="currentColor" d="M14.2,0.7l2.7,4.7C12,7.8,8.7,12.5,8.7,17.9h15.6H40c0-5.4-3.3-10.1-8.2-12.5l2.7-4.7c0,0,0.1-0.2-0.1-0.4
      C34.1,0.2,34,0.5,34,0.5l-2.7,4.7c-2.1-0.9-4.4-1.4-6.9-1.4s-4.8,0.5-6.9,1.4l-2.7-4.7c0,0-0.2-0.2-0.4-0.1S14.2,0.7,14.2,0.7
      L14.2,0.7z M16.9,9.8c0.8,0,1.5,0.7,1.5,1.5c0,0.8-0.7,1.5-1.5,1.5c-0.8,0-1.5-0.6-1.5-1.5C15.4,10.5,16.1,9.8,16.9,9.8z M31.8,9.8
      c0.8,0,1.5,0.7,1.5,1.5c0,0.8-0.7,1.5-1.5,1.5c-0.8,0-1.5-0.6-1.5-1.5C30.3,10.5,31,9.8,31.8,9.8z"/>
    <path fill="currentColor" d="M8.6,19.7v23.7c0,1.2,1.4,2.7,2.6,2.7h3.7v8.1c0,2.1,1.5,3.7,3.4,3.7s3.4-1.7,3.4-3.7v-8.1H27v8.1
      c0,2.1,1.5,3.7,3.4,3.7s3.4-1.7,3.4-3.7v-8.1h3.7c1.2,0,2.6-1.5,2.6-2.7V19.7H8.6L8.6,19.7z"/>
    <path fill="currentColor" d="M3.4,19.2L3.4,19.2c1.9,0,3.4,1.7,3.4,3.7V37c0,2.1-1.5,3.7-3.4,3.7l0,0C1.5,40.8,0,39.1,0,37V22.9
      C0,20.9,1.5,19.2,3.4,19.2z"/>
    <path fill="currentColor" d="M45.3,19.2L45.3,19.2c1.9,0,3.4,1.7,3.4,3.7V37c0,2.1-1.5,3.7-3.4,3.7l0,0c-1.9,0-3.4-1.7-3.4-3.7V22.9
      C41.9,20.9,43.4,19.2,45.3,19.2z"/>
  </symbol>

  <symbol id="unity" viewBox="0 0 79 29">
    <title>Unity</title>
    <path fill="currentColor" d="M44.1,9h-2.8v6.4c0,1.6-0.7,2.9-2.6,2.9c-2,0-2.5-1.3-2.5-3V9h-2.8v7c0,2,0.7,4.9,4.5,4.9
      c2.1,0,3.1-1,3.6-1.9v1.5h2.6V9z"/>
    <path fill="currentColor" d="M45.2,20.5h2.8v-6.4c0-1.6,0.7-2.9,2.6-2.9c1.9,0,2.5,1.3,2.5,3v6.3h2.8v-7c0-2-0.7-4.9-4.5-4.9
      c-2.1,0-3.1,1-3.6,1.9c0-0.5,0-1,0-1.5h-2.6V20.5z"/>
    <path fill="currentColor" d="M56.9,7.4h2.8V4.9h-2.8V7.4z M56.9,20.5h2.8V9h-2.8V20.5z"/>
    <path fill="currentColor" d="M62.5,20.5h2.8v-9.4h2L66.4,9h-1.2v-4h-2.8v4h-1.9v2.1h1.9V20.5z"/>
    <path fill="currentColor" d="M69.9,24.5h2.9L78.9,9H76l-2.8,7.7L70.4,9h-2.9l4.4,11.1L69.9,24.5z"/>
    <path fill="currentColor" d="M28,11.7L25,0.3L13.5,3.3l-1.7,3l-3.4,0L0,14.6L8.4,23l0,0l3.4,0l1.7,3L25,29L28,17.6l-1.7-3L28,11.7z
       M20.9,4.5l-5,8.7H5.8l6.3-6.4L20.9,4.5z M15.8,16l5,8.7l-8.8-2.2L5.8,16H15.8z M18.3,14.6l5-8.7l2.4,8.7l-2.4,8.7L18.3,14.6z"/>
  </symbol>

  <symbol id="facebook" viewBox="0 0 10 20">
    <title>Facebook</title>
    <path fill="currentColor" d="M9.1,10.1l-2.7,0l0,9.9H2.7v-9.9H0.2V6.6l2.5,0l0-2c0-2.8,0.8-4.5,4-4.5h2.7v3.4H7.8C6.5,3.6,6.4,4,6.4,4.9
      l0,1.7h3.1L9.1,10.1z"/>
  </symbol>

  <symbol id="twitter" viewBox="0 0 20 17">
    <title>Twitter</title>
    <path fill="currentColor" d="M17.8,4.9l0,0.5c0,5.4-4.1,11.6-11.6,11.6c-2.3,0-4.4-0.7-6.2-1.8c0.3,0,0.6,0.1,1,0.1
      c1.9,0,3.7-0.7,5.1-1.7c-1.8,0-3.3-1.2-3.8-2.8c0.3,0,0.5,0.1,0.8,0.1c0.4,0,0.7,0,1.1-0.1c-1.9-0.4-3.3-2-3.3-4V6.5
      C1.3,6.8,2,7,2.6,7c-1.1-0.7-1.8-2-1.8-3.4c0-0.7,0.2-1.4,0.5-2c2,2.5,5,4.1,8.4,4.3C9.7,5.6,9.7,5.3,9.7,4.9c0-2.2,1.8-4.1,4.1-4.1
      c1.2,0,2.2,0.5,3,1.3c0.9-0.2,1.8-0.5,2.6-1c-0.3,1-0.9,1.8-1.8,2.3c0.8-0.1,1.6-0.3,2.3-0.6C19.3,3.6,18.6,4.3,17.8,4.9z"/>
  </symbol>
</svg>
