<svg xmlns="http://www.w3.org/2000/svg" xmlns:xlink="http://www.w3.org/1999/xlink">
  <symbol id="logo" viewBox="0 0 69 42">
    <title>Logo</title>
    <path fill="currentColor" d="M58.8,23c-0.3,0-0.5,0-0.8,0c0-0.1,0-0.1,0-0.2c0-6.7-5.5-12.2-12.2-12.2c-1.2,0-2.3,0.2-3.4,0.5
      C40.1,4.6,33.9,0,26.6,0C17.2,0,9.7,7.6,9.7,16.9c0,0.3,0,0.5,0,0.8C4.2,18.9,0,23.8,0,29.7c0,6.7,5.5,12.2,12.2,12.2h46.7
      c5.2,0,9.4-4.2,9.4-9.4C68.3,27.2,64.1,23,58.8,23z M39.7,35.1c-3.9,2.1-8.7,0.6-10.8-3.3l-0.1-0.2c0,0,0,0,0-0.1c0,0,0,0,0,0.1
      l-0.1,0.2c-2.1,3.9-6.9,5.4-10.8,3.3c-2.5-1.3-4-3.8-4.2-6.4c0.3,0.3,0.7,0.6,1.1,0.8c2.2,1.2,4.9,0.3,6-1.9c1.2-2.2,3.9-3,6-1.9
      c0.9,0.5,1.6,1.2,2,2.1c0.4-0.9,1.1-1.6,2-2.1c2.2-1.2,4.9-0.3,6,1.9c1.2,2.2,3.9,3,6,1.9c0.4-0.2,0.8-0.5,1.1-0.8
      C43.7,31.2,42.2,33.7,39.7,35.1z"/>
  </symbol>

  <symbol id="nucleus" viewBox="0 0 51 56">
    <title>Nucleus</title>
    <path fill="currentColor" d="M44.5,27.4c1-1.1,1.8-2.2,2.5-3.3c0,0,0,0,0,0c1.8,0,3.2-1.4,3.2-3.2c0-0.7-0.3-1.4-0.7-2
      c0.7-2.3,0.5-4.3-0.5-5.9c-2-3.1-7.2-3.7-13.9-1.8l0,0l0,0c-0.4-1.3-0.9-2.6-1.4-3.7c0.4-0.5,0.6-1.2,0.6-1.9c0-1.8-1.4-3.2-3.2-3.2
      c-0.3,0-0.5,0-0.8,0.1c-1.4-1.3-2.9-2-4.4-2c-4,0-7.4,4.3-9.5,11.9c-2.3-0.5-4.5-0.8-6.4-0.8c-4.3,0-7.3,1.3-8.5,3.7
      c-1.8,3.5,0.3,8.5,5.9,13.8l0,0l0,0c-5,5.9-6.6,11-4.5,14.3c0.7,1,1.7,1.8,3.1,2.3c0.4,1.3,1.6,2.2,3,2.2c1.2,0,2.3-0.7,2.8-1.7
      c1.5-0.2,3.2-0.5,5-1c2.2,6.8,5.5,10.6,9.2,10.6c4,0,7.4-4.3,9.5-11.9c2.3,0.5,4.5,0.8,6.4,0.8c4.3,0,7.3-1.3,8.5-3.7
      C52.2,37.7,50,32.7,44.5,27.4z M3.3,16.5C4.2,14.9,6.5,14,9.9,14c1.8,0,3.7,0.2,5.9,0.7c-0.5,2.4-0.9,4.9-1.2,7.6l0,0l0,0
      c-0.5,0.4-0.9,0.7-1.3,1.1c-0.1,0.1-0.2,0.1-0.2,0.2c-0.6,0.5-1.1,1-1.7,1.5c-0.2,0.2-0.3,0.3-0.5,0.5c-0.4,0.3-0.7,0.7-1.1,1.1
      c-0.2,0.2-0.3,0.4-0.5,0.5c-0.2,0.2-0.3,0.3-0.5,0.5C4.1,23.2,2.1,19,3.3,16.5z M14.5,32c0,0.1,0,0.2,0,0.4c0,0,0,0,0,0
      c-0.7-0.5-1.3-0.9-1.9-1.4c-0.2-0.2-0.4-0.3-0.6-0.5c-0.4-0.3-0.8-0.7-1.2-1c-0.1-0.1-0.2-0.2-0.3-0.2c0.1-0.1,0.2-0.2,0.3-0.3
      c0.4-0.4,0.8-0.8,1.2-1.2c0.2-0.2,0.4-0.4,0.6-0.6c0.6-0.5,1.1-1,1.7-1.6c0.1-0.1,0.1-0.1,0.2-0.2c0,0,0,0.1,0,0.1
      c0,1-0.1,2-0.1,2.9C14.3,29.5,14.4,30.7,14.5,32z M12,44.1c-0.4-1.4-1.6-2.4-3.1-2.4c-1.3,0-2.4,0.8-2.9,1.8
      c-0.6-0.3-1.1-0.7-1.4-1.2c-1.5-2.3,0.1-6.7,4.3-11.6c0.2,0.1,0.3,0.3,0.5,0.4c0.2,0.1,0.3,0.3,0.5,0.4c0.4,0.3,0.8,0.6,1.2,0.9
      c0.1,0.1,0.3,0.2,0.4,0.3c0.5,0.4,1.1,0.8,1.7,1.2c0.1,0,0.1,0.1,0.2,0.1c0.4,0.3,0.9,0.6,1.3,0.9v0h0c0.3,2.9,0.8,5.7,1.4,8.2
      C14.6,43.7,13.2,44,12,44.1z M34.1,16.5c0,0.2,0.1,0.5,0.1,0.7c0.2,0.9,0.3,1.8,0.4,2.8c0,0,0,0.1,0,0.1c-0.1-0.1-0.2-0.1-0.3-0.2
      c-1-0.6-2.1-1.2-3.2-1.8c-1-0.5-2.1-1-3.1-1.5c-0.1,0-0.2-0.1-0.3-0.1c0,0,0.1,0,0.1,0c0.9-0.4,1.8-0.8,2.6-1.2
      c0.2-0.1,0.5-0.2,0.7-0.3c0.6-0.3,1.3-0.5,1.9-0.7c0.1,0,0.3-0.1,0.4-0.1c0,0.1,0.1,0.3,0.1,0.4C33.8,15.1,34,15.8,34.1,16.5z
       M25.9,2.9c0.9,0,1.7,0.4,2.6,1.1c-0.4,0.5-0.6,1.1-0.6,1.8c0,1.8,1.4,3.2,3.2,3.2c0.2,0,0.5,0,0.7-0.1c0.4,0.9,0.8,2,1.2,3.1
      c-0.2,0.1-0.5,0.2-0.8,0.3c-0.2,0.1-0.5,0.2-0.7,0.3c-0.5,0.2-1,0.4-1.5,0.6c-0.2,0.1-0.4,0.2-0.6,0.2c-0.7,0.3-1.4,0.6-2.2,1
      c-0.1,0-0.1,0.1-0.2,0.1c-0.6,0.3-1.1,0.6-1.7,0.9v0l0,0c-2.3-0.9-4.6-1.7-6.7-2.3C20.3,6.8,23.1,2.9,25.9,2.9z M17.9,15.2
      c1.6,0.4,3.2,0.9,4.8,1.5c-1.1,0.6-2.2,1.3-3.2,2c-0.8,0.6-1.7,1.1-2.5,1.7C17.2,18.6,17.6,16.9,17.9,15.2z M17.1,36.6
      c1.1,0.7,2.3,1.3,3.4,2c1.1,0.6,2.3,1.1,3.4,1.7c-1.9,1-3.9,1.7-5.7,2.4C17.7,40.7,17.3,38.7,17.1,36.6z M25.9,53.8
      c-2.6,0-5.3-3.5-7.1-9.1c2.5-0.9,5.1-2,7.7-3.4l0,0h0c2.3,0.9,4.6,1.7,6.7,2.3C31.5,49.9,28.7,53.8,25.9,53.8z M33.8,41.5
      c-1.6-0.4-3.2-0.9-4.8-1.5c1.1-0.6,2.2-1.3,3.2-2c0.9-0.6,1.7-1.1,2.5-1.7C34.5,38.1,34.2,39.8,33.8,41.5z M35,33.3
      c-1.3,1-2.6,2-4,2.9c-1.5,1-3.1,1.9-4.6,2.8c-1.6-0.7-3.3-1.5-4.9-2.3c-1.6-0.9-3.2-1.8-4.8-2.8c0-0.5-0.1-1.1-0.1-1.6
      c0-0.3,0-0.6-0.1-1c0-1-0.1-1.9-0.1-2.9c0-0.9,0-1.7,0.1-2.6c0-0.3,0-0.6,0-0.9c0-0.5,0.1-1,0.1-1.5c1.3-1,2.6-2,4-2.9
      c1.5-1,3-1.9,4.6-2.8c0.5,0.2,1,0.5,1.6,0.7c0.3,0.1,0.5,0.2,0.8,0.3c0.9,0.4,1.7,0.8,2.6,1.3c0.9,0.5,1.7,0.9,2.5,1.4
      c0.3,0.2,0.5,0.3,0.8,0.5c0.5,0.3,1,0.6,1.4,0.9c0.2,1.8,0.2,3.7,0.2,5.5C35.2,30,35.2,31.6,35,33.3z M35.7,13.4
      c2.4-0.7,4.5-1,6.4-1c1.8,0,4.1,0.3,5.1,1.9c0.6,0.9,0.7,2.1,0.4,3.6c-0.2,0-0.3-0.1-0.5-0.1c-1.8,0-3.2,1.4-3.2,3.2
      c0,0.9,0.4,1.8,1.1,2.3c-0.6,0.8-1.3,1.7-2,2.6c-1.7-1.5-3.7-3-5.8-4.4v0l0,0c-0.1-0.6-0.1-1.2-0.2-1.8c0-0.1,0-0.2,0-0.3
      c-0.1-0.8-0.2-1.6-0.4-2.3c0-0.2-0.1-0.4-0.1-0.7c-0.1-0.5-0.2-1-0.3-1.5c-0.1-0.3-0.1-0.5-0.2-0.8C35.8,13.9,35.7,13.7,35.7,13.4z
       M37.3,24.4c1.5,1,2.8,2.1,4.1,3.2c-1.2,1.3-2.6,2.6-4,3.8c0-1,0.1-2,0.1-3.1C37.4,27,37.4,25.7,37.3,24.4z M48.4,40.2
      c-0.8,1.6-3.2,2.5-6.6,2.5c-1.8,0-3.7-0.2-5.9-0.7c0.5-2.4,0.9-4.9,1.2-7.6l0,0v0c2.2-1.7,4.1-3.5,5.9-5.4
      C47.6,33.5,49.7,37.7,48.4,40.2z"/>
  </symbol>

  <symbol id="infinity" viewBox="0 0 60 26">
    <title>Infinity</title>
    <path fill="currentColor" d="M46.3,26c-6.8,0-11.7-5.4-16.3-10.9C25.3,20.7,20.5,26,13.7,26C6.7,26,1,20.3,1,13.3c0-7,5.7-12.7,12.7-12.7
      c6.9,0,11.7,5.3,16.3,10.8c4.6-5.5,9.5-10.8,16.3-10.8c7,0,12.7,5.7,12.7,12.7C59,20.3,53.3,26,46.3,26z M31.6,13.3
      c4.6,5.4,8.9,10.3,14.7,10.3c5.7,0,10.3-4.6,10.3-10.3S52,3,46.3,3C40.4,3,35.9,8.1,31.6,13.3z M13.7,3C8,3,3.4,7.6,3.4,13.3
      S8,23.6,13.7,23.6c5.9,0,10.2-4.9,14.7-10.3C24.1,8.1,19.6,3,13.7,3z"/>
  </symbol>

  <symbol id="smiley" viewBox="0 0 56 56">
    <title>Smiley</title>
    <circle fill="none" stroke="currentColor" stroke-width="3" stroke-miterlimit="10" cx="27.9" cy="27.9" r="26.1"/>
    <path fill="none" stroke="currentColor" stroke-width="3" stroke-miterlimit="10" d="M43.6,31.2c-2.2,6.6-8.4,11.3-15.7,11.3
      c-7.3,0-13.5-4.7-15.7-11.2"/>
    <path fill="none" stroke="currentColor" stroke-width="3" stroke-miterlimit="10" d="M12.8,20.8c0-2.2,1.8-4,4-4s4,1.8,4,4"/>
    <path fill="none" stroke="currentColor" stroke-width="3" stroke-miterlimit="10" d="M35.6,20.8c0-2.2,1.8-4,4-4s4,1.8,4,4"/>
  </symbol>

  <symbol id="apple" viewBox="0 0 45 52">
    <title>Apple</title>
    <path fill="currentColor" d="M44.3,38.3c-1.2,2.7-1.8,3.9-3.4,6.3c-2.2,3.3-5.2,7.4-9,7.5
      c-3.4,0-4.2-2.2-8.8-2.2c-4.6,0-5.5,2.2-8.9,2.2c-3.8,0-6.7-3.8-8.9-7.1c-6.1-9.3-6.7-20.1-3-25.9c2.7-4.1,6.9-6.5,10.8-6.5
      c4,0,6.6,2.2,9.9,2.2c3.2,0,5.2-2.2,9.9-2.2c3.5,0,7.2,1.9,9.9,5.2C34.1,22.5,35.5,34.9,44.3,38.3L44.3,38.3z"/>
    <path fill="currentColor" d="M29.4,8.8c1.7-2.2,3-5.2,2.5-8.4c-2.8,0.2-6,1.9-7.9,4.2
      c-1.7,2.1-3.1,5.2-2.6,8.2C24.4,12.9,27.6,11.1,29.4,8.8L29.4,8.8z"/>
  </symbol>

  <symbol id="android" viewBox="0 0 49 58">
    <title>Android</title>
    <path fill="currentColor" d="M14.2,0.7l2.7,4.7C12,7.8,8.7,12.5,8.7,17.9h15.6H40c0-5.4-3.3-10.1-8.2-12.5l2.7-4.7c0,0,0.1-0.2-0.1-0.4
      C34.1,0.2,34,0.5,34,0.5l-2.7,4.7c-2.1-0.9-4.4-1.4-6.9-1.4s-4.8,0.5-6.9,1.4l-2.7-4.7c0,0-0.2-0.2-0.4-0.1S14.2,0.7,14.2,0.7
      L14.2,0.7z M16.9,9.8c0.8,0,1.5,0.7,1.5,1.5c0,0.8-0.7,1.5-1.5,1.5c-0.8,0-1.5-0.6-1.5-1.5C15.4,10.5,16.1,9.8,16.9,9.8z M31.8,9.8
      c0.8,0,1.5,0.7,1.5,1.5c0,0.8-0.7,1.5-1.5,1.5c-0.8,0-1.5-0.6-1.5-1.5C30.3,10.5,31,9.8,31.8,9.8z"/>
    <path fill="currentColor" d="M8.6,19.7v23.7c0,1.2,1.4,2.7,2.6,2.7h3.7v8.1c0,2.1,1.5,3.7,3.4,3.7s3.4-1.7,3.4-3.7v-8.1H27v8.1
      c0,2.1,1.5,3.7,3.4,3.7s3.4-1.7,3.4-3.7v-8.1h3.7c1.2,0,2.6-1.5,2.6-2.7V19.7H8.6L8.6,19.7z"/>
    <path fill="currentColor" d="M3.4,19.2L3.4,19.2c1.9,0,3.4,1.7,3.4,3.7V37c0,2.1-1.5,3.7-3.4,3.7l0,0C1.5,40.8,0,39.1,0,37V22.9
      C0,20.9,1.5,19.2,3.4,19.2z"/>
    <path fill="currentColor" d="M45.3,19.2L45.3,19.2c1.9,0,3.4,1.7,3.4,3.7V37c0,2.1-1.5,3.7-3.4,3.7l0,0c-1.9,0-3.4-1.7-3.4-3.7V22.9
      C41.9,20.9,43.4,19.2,45.3,19.2z"/>
  </symbol>

  <symbol id="unity" viewBox="0 0 79 29">
    <title>Unity</title>
    <path fill="currentColor" d="M44.1,9h-2.8v6.4c0,1.6-0.7,2.9-2.6,2.9c-2,0-2.5-1.3-2.5-3V9h-2.8v7c0,2,0.7,4.9,4.5,4.9
      c2.1,0,3.1-1,3.6-1.9v1.5h2.6V9z"/>
    <path fill="currentColor" d="M45.2,20.5h2.8v-6.4c0-1.6,0.7-2.9,2.6-2.9c1.9,0,2.5,1.3,2.5,3v6.3h2.8v-7c0-2-0.7-4.9-4.5-4.9
      c-2.1,0-3.1,1-3.6,1.9c0-0.5,0-1,0-1.5h-2.6V20.5z"/>
    <path fill="currentColor" d="M56.9,7.4h2.8V4.9h-2.8V7.4z M56.9,20.5h2.8V9h-2.8V20.5z"/>
    <path fill="currentColor" d="M62.5,20.5h2.8v-9.4h2L66.4,9h-1.2v-4h-2.8v4h-1.9v2.1h1.9V20.5z"/>
    <path fill="currentColor" d="M69.9,24.5h2.9L78.9,9H76l-2.8,7.7L70.4,9h-2.9l4.4,11.1L69.9,24.5z"/>
    <path fill="currentColor" d="M28,11.7L25,0.3L13.5,3.3l-1.7,3l-3.4,0L0,14.6L8.4,23l0,0l3.4,0l1.7,3L25,29L28,17.6l-1.7-3L28,11.7z
       M20.9,4.5l-5,8.7H5.8l6.3-6.4L20.9,4.5z M15.8,16l5,8.7l-8.8-2.2L5.8,16H15.8z M18.3,14.6l5-8.7l2.4,8.7l-2.4,8.7L18.3,14.6z"/>
  </symbol>

  <symbol id="facebook" viewBox="0 0 10 20">
    <title>Facebook</title>
    <path fill="currentColor" d="M9.1,10.1l-2.7,0l0,9.9H2.7v-9.9H0.2V6.6l2.5,0l0-2c0-2.8,0.8-4.5,4-4.5h2.7v3.4H7.8C6.5,3.6,6.4,4,6.4,4.9
      l0,1.7h3.1L9.1,10.1z"/>
  </symbol>

  <symbol id="twitter" viewBox="0 0 20 17">
    <title>Twitter</title>
    <path fill="currentColor" d="M17.8,4.9l0,0.5c0,5.4-4.1,11.6-11.6,11.6c-2.3,0-4.4-0.7-6.2-1.8c0.3,0,0.6,0.1,1,0.1
      c1.9,0,3.7-0.7,5.1-1.7c-1.8,0-3.3-1.2-3.8-2.8c0.3,0,0.5,0.1,0.8,0.1c0.4,0,0.7,0,1.1-0.1c-1.9-0.4-3.3-2-3.3-4V6.5
      C1.3,6.8,2,7,2.6,7c-1.1-0.7-1.8-2-1.8-3.4c0-0.7,0.2-1.4,0.5-2c2,2.5,5,4.1,8.4,4.3C9.7,5.6,9.7,5.3,9.7,4.9c0-2.2,1.8-4.1,4.1-4.1
      c1.2,0,2.2,0.5,3,1.3c0.9-0.2,1.8-0.5,2.6-1c-0.3,1-0.9,1.8-1.8,2.3c0.8-0.1,1.6-0.3,2.3-0.6C19.3,3.6,18.6,4.3,17.8,4.9z"/>
  </symbol>

  <symbol id="check" viewBox="-0.5 5.5 25 21">
    <title>Check</title>
    <path fill="currentColor" d="M20,6L8,18l-4-4l-4,4l8,8l16-16L20,6z"/>
  </symbol>

  <symbol id="x"  viewBox="0 5.5 20 21">
    <title>X</title>
    <path fill="currentColor" d="M20,10l-4-4l-6,6L4,6l-4,4l6,6l-6,6l4,4l6-6l6,6l4-4l-6-6L20,10z"/>
  </symbol>

  <symbol id="brightness" viewBox="0 0 103.4 168.6">
    <path fill="currentColor" d="M102.5,168.6H1c-0.5,0-1-0.4-1-1V1c0-0.5,0.4-1,1-1h101.5c0.5,0,1,0.4,1,1v166.6
      C103.4,168.1,103,168.6,102.5,168.6z M1.9,166.6h99.6V1.9H1.9V166.6z"/>
    <path fill="currentColor" d="M29.5,54.7c0.6,0,1.2,0.2,1.6,0.6c0.4,0.4,0.6,0.9,0.6,1.6c0,0.6-0.2,1.2-0.6,1.6c-0.4,0.4-0.9,0.6-1.6,0.6
      h-4.4c-0.6,0-1.2-0.2-1.6-0.6c-0.4-0.4-0.6-0.9-0.6-1.6c0-0.6,0.2-1.2,0.6-1.6c0.4-0.4,0.9-0.6,1.6-0.6H29.5z M31.3,39.8
      c-1-1.1-1-2.2,0-3.2c1-1,2.1-1,3.2,0l3.1,3.2c1,1,1,2,0,3.1c-1,1-2,1-3.1,0L31.3,39.8z M34.5,71.1c1-1.1,2-1.1,3.1-0.1
      c1,1.1,1,2.1,0,3.1l-3.1,3.2c-1.1,1-2.2,1-3.2,0c-1-1-1-2.1,0-3.2L34.5,71.1z M62.7,46c3.1,3.1,4.6,6.7,4.6,11c0,4.3-1.5,7.9-4.6,11
      s-6.7,4.6-11,4.6c-4.3,0-7.9-1.5-11-4.6s-4.6-6.7-4.6-11c0-4.3,1.5-7.9,4.6-11c3.1-3.1,6.7-4.6,11-4.6C56,41.4,59.6,42.9,62.7,46z
       M59.5,64.9c2.2-2.2,3.3-4.9,3.3-7.9s-1.1-5.7-3.3-7.8c-2.2-2.2-4.8-3.3-7.8-3.3s-5.7,1.1-7.8,3.3c-2.2,2.2-3.3,4.8-3.3,7.8
      s1.1,5.7,3.3,7.8c2.2,2.2,4.8,3.3,7.8,3.3S57.4,67,59.5,64.9z M53.9,34.8c0,0.7-0.2,1.2-0.6,1.6c-0.4,0.4-0.9,0.6-1.6,0.6
      s-1.2-0.2-1.6-0.6c-0.4-0.4-0.6-0.9-0.6-1.6v-4.4c0-0.6,0.2-1.2,0.6-1.6s0.9-0.6,1.6-0.6s1.2,0.2,1.6,0.6s0.6,0.9,0.6,1.6V34.8z
       M49.5,79.2c0-0.6,0.2-1.2,0.6-1.6c0.4-0.4,0.9-0.6,1.6-0.6s1.2,0.2,1.6,0.6c0.4,0.4,0.6,0.9,0.6,1.6v4.4c0,0.6-0.2,1.2-0.6,1.6
      c-0.4,0.4-0.9,0.6-1.6,0.6s-1.2-0.2-1.6-0.6c-0.4-0.4-0.6-0.9-0.6-1.6V79.2z M68.9,42.8c-1,1-2,1-3.1,0s-1-2,0-3.1l3.1-3.2
      c1.1-1,2.2-1,3.2,0s1,2.1,0,3.2L68.9,42.8z M72.1,74.2c1,1.1,1,2.2,0,3.2c-1,1-2.1,1-3.2,0l-3.1-3.2c-1-1-1-2,0-3.1c1-1,2-1,3.1,0
      L72.1,74.2z M78.4,54.7c0.6,0,1.2,0.2,1.6,0.6s0.6,0.9,0.6,1.6c0,0.6-0.2,1.2-0.6,1.6c-0.4,0.4-0.9,0.6-1.6,0.6h-4.4
      c-0.6,0-1.2-0.2-1.6-0.6c-0.4-0.4-0.6-0.9-0.6-1.6c0-0.6,0.2-1.2,0.6-1.6c0.4-0.4,0.9-0.6,1.6-0.6H78.4z"/>
    <path fill="currentColor" d="M88.4,112.1H16.3c-1.1,0-1.9-0.9-1.9-1.9s0.9-1.9,1.9-1.9h72.1c1.1,0,1.9,0.9,1.9,1.9S89.5,112.1,88.4,112.1
      z"/>
    <path fill="currentColor" d="M88.4,126.9H16.3c-1.1,0-1.9-0.9-1.9-1.9s0.9-1.9,1.9-1.9h72.1c1.1,0,1.9,0.9,1.9,1.9S89.5,126.9,88.4,126.9
      z"/>
    <path fill="currentColor" d="M77.5,141.1H27.2c-1.1,0-1.9-0.9-1.9-1.9s0.9-1.9,1.9-1.9h50.2c1.1,0,1.9,0.9,1.9,1.9S78.5,141.1,77.5,141.1
      z"/>
  </symbol>

  <symbol id="phone" viewBox="0 0 23 41">
    <path fill="currentColor" d="M19.4,0H3.2C1.4,0,0,1.4,0,3.2v34.3c0,1.8,1.4,3.2,3.2,3.2h16.2c1.8,0,3.2-1.4,3.2-3.2V3.2
      C22.6,1.4,21.2,0,19.4,0z M1.8,7.2h18.9v26.2H1.8V7.2z M3.2,1.8h16.2c0.8,0,1.4,0.6,1.4,1.4v2.3H1.8V3.2C1.8,2.4,2.4,1.8,3.2,1.8z
       M19.4,38.8H3.2c-0.8,0-1.4-0.6-1.4-1.4v-2.3h18.9v2.3C20.8,38.2,20.2,38.8,19.4,38.8z M9,3.6c0-0.5,0.4-0.9,0.9-0.9h2.7
      c0.5,0,0.9,0.4,0.9,0.9c0,0.5-0.4,0.9-0.9,0.9H9.9C9.4,4.5,9,4.1,9,3.6z M12.2,37c0,0.5-0.4,0.9-0.9,0.9s-0.9-0.4-0.9-0.9
      c0-0.5,0.4-0.9,0.9-0.9S12.2,36.5,12.2,37z"/>
  </symbol>

  <symbol id="charSmart" viewBox="0 0 690 264">
    <g stroke="#231F20">
      <path fill="none" stroke-linejoin="round" stroke-miterlimit="10" d="M291.3,86c0,0-9.3,6.3,7.5,24.3
        c22,8.4,75.6,18,85.7,9.8c10.1-8.2,6.8-19.8,3.1-21.5c-3.7-1.8-65.3-0.5-75.2-3.3C302.5,92.5,293.8,89.4,291.3,86z"/>
      <path fill="none" stroke-linejoin="round" stroke-miterlimit="10" d="M349.8,97.3c0,0,37.5-6.9,41.6-11.3
        c0.8,7.3-0.9,10.6-2.9,13.1"/>
      <path fill="none" stroke-linejoin="round" stroke-miterlimit="10" d="M296.6,89.8c-0.4-2.4-0.6-4.9-0.6-7.5
        c0-24.9,20.2-45.1,45.1-45.1c24.9,0,45.1,20.2,45.1,45.1c0,2.2-0.2,4.4-0.5,6.5"/>
      <path fill="none" stroke-linejoin="round" stroke-miterlimit="10" d="M291.3,86c-2.1-11.7,4.9-8.1,4.9-8.1
        s17.2,1.4,34.3-18.2c-5.9,9.4-20.5,23-26.4,25.5c14.7-4.4,37.1-21.5,41.5-27.8c-1,5.3-2.6,9.8-5.5,12.2c7.3-1.2,19.1-6.6,21.2-10.7
        c2.5,3.8,13,19.2,21.6,23.1c-2.5-3.5-6.5-10.1-7.2-13.3c3.8,5.3,6.9,8.1,10,6.7c0,0,7.3-4,5.6,10.5"/>
      <circle fill="none" stroke-linejoin="round" stroke-miterlimit="10" cx="360.5" cy="80.5" r="9.9"/>
      <circle fill="none" stroke-linejoin="round" stroke-miterlimit="10" cx="360.7" cy="80.3" r="3.4"/>
      <path fill="none" stroke-linejoin="round" stroke-miterlimit="10" d="M328.2,72.5c2.5,1.8,4.2,4.7,4.2,8.1
        c0,5.5-4.4,9.9-9.9,9.9c-5,0-9.2-3.8-9.8-8.6"/>
      <path fill="none" stroke-linejoin="round" stroke-miterlimit="10" d="M312.7,79.3c0.6-4.6,4.4-8.3,9.1-8.6"/>
      <circle fill="none" stroke-linejoin="round" stroke-miterlimit="10" cx="322.7" cy="80.3" r="3.4"/>
      <path fill="none" stroke-linejoin="round" stroke-miterlimit="10" d="M348.7,85.3c0,3.4-2.7,6.1-6.1,6.1
        c-3.4,0-6.1-2.7-6.1-6.1"/>
      <path fill="none" stroke-linejoin="round" stroke-miterlimit="10" d="M306.9,52.9c0,0-6.3-8.1,2.2-13.7
        s15.9-5.6,18.5,0.1"/>
      <path fill="none" stroke-linejoin="round" stroke-miterlimit="10" d="M305.8,51c0,0-6.8,26.7-56.5,23.3
        c5.8-2.6,14.2-6.6,18.7-13.8c4.5-7.2,19.8-18.8,36.9-12"/>
      <path fill="none" stroke-linejoin="round" stroke-miterlimit="10" d="M274.9,53.4c0,0-31.1,24.7-52.7,7.1
        c0,0-15.2-14.5-17.7-24.2c9.8,5.4,38.3,23.2,62.8,7.6c24.5-15.6,35-8.4,41.8-4.8"/>
      <path fill="none" stroke-linejoin="round" stroke-miterlimit="10" d="M268.3,43.3c0,0,24.2-39.6,49.1-7.9"/>
      <path fill="none" stroke-linejoin="round" stroke-miterlimit="10" d="M219.1,43.9c0,0-18.4-8.8-14.6-42.9
        c8.6,8.4,30.4,40.7,60.2,22.1c8.9-7.7,15.4-16.1,29.4-15.6c14,0.5,26.3,12.2,28.4,27.6"/>
      <path fill="none" stroke-linejoin="round" stroke-miterlimit="10" d="M226.3,21.9c-3.7-4.1-4-18.5-4-18.5
        s16.6,24,43.7,18.5"/>
      <path fill="none" stroke-linejoin="round" stroke-miterlimit="10" d="M298.8,110.4c0,0-4.7,18,15.9,22.6
        c20.6,4.5,60.9,0.2,68.1-8.4c1-1.1,1.6-2.8,0-3.3"/>
      <path fill="none" stroke-linejoin="round" stroke-miterlimit="10" d="M289.9,97.3c0,0-10.3-5.2-31.3-6.9
        c-21-1.6-53.9,7.1-80.1,4.4c-22.8-2.4-37.3-24.8-47.2-27.9s-22.3,29.8-16.1,37.8c6.2,8,15.1,21.9,59.4,17.9
        c44.4-4,57-16.8,82.6-17.3c16.2-0.3,32.8,1.5,39.8,2.9"/>
      <path fill="none" stroke-linejoin="round" stroke-miterlimit="10" d="M298.4,113.2c0,0-88,40.6-144.1,38.2
        c-56.2-2.4-102.4-28.1-124.1-38.2C8.4,103.1-8.7,164.3,7.3,186.6c16,22.3,105.2,32,159.3,15.2c54.1-16.8,90.2-65.5,134.1-77.9"/>
      <path fill="none" stroke-linejoin="round" stroke-miterlimit="10" d="M301,124.4c0,0-30,45.1-26.2,53.4
        s23.7,9,25.1,6.2c1.4-2.8,7.9-32.5,7.9-32.5"/>
      <path fill="none" stroke-linejoin="round" stroke-miterlimit="10" d="M299.6,184.3c0,0-3.5,19.1-0.5,22.5
        c3,3.4,27.1,7,44.8,6.5"/>
      <path fill="none" stroke-linejoin="round" stroke-miterlimit="10" d="M340.5,134.8c0,0,0.6,79,4.7,81.4
        c4.1,2.3,13.5-0.7,21.5-2.8c7.9-2,19.8-2.5,19.7-9c-0.1-6.5-0.9-20-0.9-20"/>
      <path fill="none" stroke-linejoin="round" stroke-miterlimit="10" d="M376.7,146.6l4.9,35.9c0,0,8.9,6.3,21.2,0
        c0-2,0-2,0-2"/>
      <path fill="none" stroke-linejoin="round" stroke-miterlimit="10" d="M399.9,154.9c-0.2,0.9-3.2,19.3,1.2,23.9
        c4.3,4.5,8,2.1,10.1-5.1c2.1-7.2,4.1-15.2,1.5-19.7c-2.6-4.5-4.8-6.1-8.8-4.4C400,151.1,400.2,153,399.9,154.9z"/>
      <path fill="none" stroke-linejoin="round" stroke-miterlimit="10" d="M381.8,125.6c0,0,8.8,6.4,10.4,9.2"/>
      <path fill="none" stroke-linejoin="round" stroke-miterlimit="10" d="M373.9,144.6c0,0,0.8,1.9,4.7,2
        c3.9,0.1,18.6-0.1,21.3-0.3c0,0,10-0.5,10.8-2s-0.1-2.6-0.6-2.9c-0.5-0.3-2.4-0.7-2.4-0.7s0.3-5.4-1.3-6.1
        c-1.5-0.6-29.1,0.4-30,2.8c-0.9,2.4-0.4,4.7-0.4,4.7S372.9,141.4,373.9,144.6z"/>
      <line fill="none" stroke-linejoin="round" stroke-miterlimit="10" x1="406.3" y1="145.6" x2="406.3" y2="148.9"/>
      <path fill="none" stroke-linejoin="round" stroke-miterlimit="10" d="M376,142.1c0,0-1.2,1,1.8,1.4
        c3,0.3,20.1-0.2,24.4-0.7c4.3-0.5,6-1.1,5.4-2.1"/>
      <path fill="none" stroke-linejoin="round" stroke-miterlimit="10" d="M276.5,180c0,0-3.6,19.2,4.5,25.2
        c8.2,6.1,14.7,0.1,15.3-1.2c0.6-1.3,1.2-8.2,0.8-12.1c-0.4-4,0.7-5.4,1.6-7.2"/>
      <path fill="none" stroke-linejoin="round" stroke-miterlimit="10" d="M294.3,190.2c-0.1,2.3-0.1,7.5-4.7,7.5
        c-4.5,0-4.5-6.4-4.5-6.4s0-3.1,0-5"/>
      <path fill="none" stroke-linejoin="round" stroke-miterlimit="10" d="M307,210.3c0,0-2.7,17.4-2.3,18.2
        c0.3,0.8,18.7,5.2,28.3,3.5s19.1-1,25-1.2s18.8-2.9,20.9-5c-0.9-3.5-3.1-14.3-3.1-14.3"/>
      <path fill="none" stroke-linejoin="round" stroke-miterlimit="10" d="M351.8,237.7c0,0-4,3.2,0,5.1
        c4,2,9.8,1.2,9.9,0c0.1-1.2,0-3.8,0-3.8S352.9,240,351.8,237.7z"/>
      <path fill="none" stroke-linejoin="round" stroke-miterlimit="10" d="M361.7,239c0,0,0-1.2,1.3-1.8
        c1.8-1,6.8-1.7,7,1.8c0,0,1.2,0,2,2.6s-0.1,3.6,7.7,4.8c0,0,6.8,2.4,4.5,10.4c0,0,3.2,2.1,0.4,3.7c-2.8,1.6-29.7,2.1-32.5-1.3
        c-1.9-2.1-0.1-2.4,0-3.3c0,0-0.9-6-0.3-13.1"/>
      <path fill="none" stroke-linejoin="round" stroke-miterlimit="10" d="M352.2,255.9c0,0,24.1,5.1,32.1,0.8"/>
      <path fill="none" stroke-linejoin="round" stroke-miterlimit="10" d="M370,239c0,0,0,5,2.5,4.4"/>
      <line fill="none" stroke-linejoin="round" stroke-miterlimit="10" x1="351.8" y1="237.7" x2="351.8" y2="230.8"/>
      <line fill="none" stroke-linejoin="round" stroke-miterlimit="10" x1="372.5" y1="228.4" x2="370.8" y2="239.4"/>
      <path fill="none" stroke-linejoin="round" stroke-miterlimit="10" d="M328.4,238.1c0,0,7.3-1.4,7.7,0.9
        c0.4,2.3,0.8,3.2-1.9,3.5C331.5,242.7,327.3,244.7,328.4,238.1z"/>
      <line fill="none" stroke-linejoin="round" stroke-miterlimit="10" x1="335.1" y1="231.6" x2="334.7" y2="237.7"/>
      <path fill="none" stroke-linejoin="round" stroke-miterlimit="10" d="M328.4,238.1c0,0,1.3-2.4-2.8-2.5
        s-6.4-0.6-7.3,0c-0.9,0.6-0.5,2.3-0.6,2.7"/>
      <path fill="none" stroke-linejoin="round" stroke-miterlimit="10" d="M315,237.7c0,0-1.3,3-0.4,3.5
        c1,0.6,2.8,1,3.1-0.3c0.3-1.4,0.6-2.7-0.8-3.2S315,237.7,315,237.7z"/>
      <line fill="none" stroke-linejoin="round" stroke-miterlimit="10" x1="315.1" y1="231.1" x2="316.2" y2="237.5"/>
      <path fill="none" stroke-linejoin="round" stroke-miterlimit="10" d="M315.6,241.8c0,0,1.4,4,0.6,4.8
        c-0.9,0.8-7.1,1.9-6.6,7.9c0,0-0.1,2.9,0.3,3.3c-0.6,0.9,0.2,3.8,1.3,4.4c1.1,0.6,17.4,1.8,22-0.5c4.5-2.2,4.5-3.1,3.2-4.5
        c0.5-1.6-0.9-13.5-0.8-15"/>
      <path fill="none" stroke-linejoin="round" stroke-miterlimit="10" d="M309.9,257.8c0,0,11.3,4.5,26.6-1"/>
      <path fill="none" stroke-linejoin="round" stroke-miterlimit="10" d="M376.8,147.7c0,0-6.4,0.6-4.8,7.2
        s5.1,6.2,6.7,6.3"/>
      <circle fill="none" stroke-linejoin="round" stroke-miterlimit="10" cx="352.3" cy="149.9" r="5"/>
      <circle fill="none" stroke-linejoin="round" stroke-miterlimit="10" cx="352.3" cy="175.5" r="5"/>
      <circle fill="none" stroke-linejoin="round" stroke-miterlimit="10" cx="354" cy="200.4" r="5"/>
    </g>

    <g stroke="#CECECE">
      <polyline fill="none" stroke-linejoin="round" stroke-miterlimit="10" points="380.7,56.3 405.7,31.2 486.5,31.2
        "/>
      <circle fill="#FFFFFF" stroke-linejoin="round" stroke-miterlimit="10" cx="380.7" cy="56.3" r="7"/>
      <polyline fill="none" stroke-linejoin="round" stroke-miterlimit="10" points="404.3,135.4 449.4,90.4 556.7,90.4
        "/>
      <circle fill="#FFFFFF" stroke-linejoin="round" stroke-miterlimit="10" cx="404.3" cy="135.4" r="7"/>
      <polyline fill="none" stroke-linejoin="round" stroke-miterlimit="10" points="384.5,207.4 429.6,252.4 508,252.4
        "/>
      <circle fill="#FFFFFF" stroke-linejoin="round" stroke-miterlimit="10" cx="384.5" cy="207.4" r="7"/>
      <polyline fill="none" stroke-linejoin="round" stroke-miterlimit="10" points="212.8,94.1 162.8,43 61.1,43 "/>
      <circle fill="#FFFFFF" stroke-linejoin="round" stroke-miterlimit="10" cx="212.8" cy="94.1" r="7"/>
      <polyline fill="none" stroke-linejoin="round" stroke-miterlimit="10" points="311,255.8 286,230.7 186,230.7 "/>
      <circle fill="#FFFFFF" stroke-linejoin="round" stroke-miterlimit="10" cx="311" cy="255.8" r="7"/>
      <line fill="none" stroke-width="4" stroke-linecap="round" stroke-linejoin="round" stroke-miterlimit="10" x1="64.3" y1="3.4" x2="123.5" y2="3.4"/>
      <line fill="none" stroke-width="4" stroke-linecap="round" stroke-linejoin="round" stroke-miterlimit="10" x1="64.3" y1="16.8" x2="150.6" y2="16.8"/>
      <line fill="none" stroke-width="4" stroke-linecap="round" stroke-linejoin="round" stroke-miterlimit="10" x1="64.3" y1="30.1" x2="134.8" y2="30.1"/>
      <line fill="none" stroke-width="4" stroke-linecap="round" stroke-linejoin="round" stroke-miterlimit="10" x1="454" y1="52.1" x2="549.3" y2="52.1"/>
      <line fill="none" stroke-width="4" stroke-linecap="round" stroke-linejoin="round" stroke-miterlimit="10" x1="454" y1="65.5" x2="518" y2="65.5"/>
      <line fill="none" stroke-width="4" stroke-linecap="round" stroke-linejoin="round" stroke-miterlimit="10" x1="454" y1="78.8" x2="534.7" y2="78.8"/>
      <line fill="none" stroke-width="4" stroke-linecap="round" stroke-linejoin="round" stroke-miterlimit="10" x1="431.3" y1="208" x2="526.7" y2="208"/>
      <line fill="none" stroke-width="4" stroke-linecap="round" stroke-linejoin="round" stroke-miterlimit="10" x1="431.3" y1="221.3" x2="518" y2="221.3"/>
      <line fill="none" stroke-width="4" stroke-linecap="round" stroke-linejoin="round" stroke-miterlimit="10" x1="431.3" y1="234.7" x2="495.3" y2="234.7"/>
      <line fill="none" stroke-width="4" stroke-linecap="round" stroke-linejoin="round" stroke-miterlimit="10" x1="188.8" y1="205.4" x2="259" y2="205.4"/>
      <line fill="none" stroke-width="4" stroke-linecap="round" stroke-linejoin="round" stroke-miterlimit="10" x1="188.8" y1="218.7" x2="236.3" y2="218.7"/>
      <line fill="none" stroke-width="4" stroke-linecap="round" stroke-linejoin="round" stroke-miterlimit="10" x1="405.7" y1="4.1" x2="475.5" y2="4.1"/>
      <line fill="none" stroke-width="4" stroke-linecap="round" stroke-linejoin="round" stroke-miterlimit="10" x1="405.7" y1="17.4" x2="496" y2="17.4"/>
    </g>
  </symbol>

  <symbol id="charInfinite" viewBox="0 0 1263 266">
    <g stroke="#231F20">
      <path fill="none" stroke-linejoin="round" stroke-miterlimit="10" d="M681.5,100.3c-1.6,22.9-16.3,37.6-41.6,37.6
        c-26.2,0-40-16.2-41.6-37.5"/>
      <path fill="none" stroke-linejoin="round" stroke-miterlimit="10" d="M598.2,100.4c0,0-5.9-1.1-6.7,4.2
        c-0.8,5.3,3.6,8.7,8.6,6.1"/>
      <path fill="none" stroke-linejoin="round" stroke-miterlimit="10" d="M681.7,100.3c0,0,4.5-0.9,6.6,2.9
        c2.1,3.9-1.2,7.6-3.3,8c-2.1,0.4-4,0.4-5.2-0.7"/>
      <circle fill="none" stroke-linejoin="round" stroke-miterlimit="10" cx="659.7" cy="98.2" r="10.5"/>
      <circle fill="none" stroke-linejoin="round" stroke-miterlimit="10" cx="660.6" cy="98.5" r="3.4"/>
      <circle fill="none" stroke-linejoin="round" stroke-miterlimit="10" cx="618.9" cy="98.5" r="10.5"/>
      <circle fill="none" stroke-linejoin="round" stroke-miterlimit="10" cx="619.8" cy="98.9" r="3.4"/>
      <path fill="none" stroke-linejoin="round" stroke-miterlimit="10" d="M598.2,100.4c0,0,2.8-23.5,16.8-25.5
        c10.9,5.3,20.3,9.2,26.6,5.5c-2.7-1.8-11-8.1-9.6-11c5.9,4.3,16.4,8.4,25,7c8.5-1.3,12.2-5.9,20.3,8.4c0,0,4.4,9.5,4.4,15.5
        c0,0,0.8-0.6,3.5-4.5c2.7-3.9,3.5-9.5,1.9-15.1c-1.6-5.6-2.5-6.7-2.2-7.4c0.2-0.7,2.9-4.6,11-0.8c-0.2-4.3-2.6-12.3-15.6-15.9
        c0,0-7.2-1.2-7.9-1.2c0.6-1.7,1-4.3,9.3-6.6c-3.5-2.9-12.3-7.3-25.3-4.9c-12.9,2.3-13.9,4.6-13.9,4.6s0.8-6.3,9.6-11.1
        c-6.2-1.3-28.9,2.1-41.2,14.1C598.6,63.5,591.3,82.3,598.2,100.4z"/>
      <path fill="none" stroke-linejoin="round" stroke-miterlimit="10" d="M655.9,82.6c-0.2,1.2,0.8,2.2,1.3,2.2
        c1.1-0.1,5-0.4,6.6,0.4c1.6,0.8,4.1,2.8,4.4,2.9c0.3,0.1,0.7-1.1-0.8-2.7s-2.7-3.4-6.7-3.6C656.5,81.5,656.1,81.4,655.9,82.6z"/>
      <path fill="none" stroke-linejoin="round" stroke-miterlimit="10" d="M620.2,80.7c0.4,1.1-0.5,2.3-1,2.3
        c-1.1,0-5,0.3-6.5,1.2s-3.7,3.3-4,3.4c-0.3,0.1-0.9-1,0.4-2.8s2.2-3.7,6.2-4.4C619.5,79.7,619.9,79.5,620.2,80.7z"/>
      <path fill="none" stroke-linejoin="round" stroke-miterlimit="10" d="M637.8,121.8c0,0,10.3-3.4,22.8-9.2
        c0.7,0.1-0.6,11.6-5.9,12.6C649.5,126.3,640,123.3,637.8,121.8z"/>
      <path fill="none" stroke-linejoin="round" stroke-miterlimit="10" d="M636.5,107.3"/>
      <path fill="none" stroke-linejoin="round" stroke-miterlimit="10" d="M645.5,102.8c0,2.9-2.4,5.3-5.3,5.3
        c-2.9,0-5.3-2.4-5.3-5.3"/>
      <path fill="none" stroke-linejoin="round" stroke-miterlimit="10" d="M625.7,136c0,0-12.4,2.8-16.7,10.1
        s-6,25-7.3,31c-1.2,6-1.6,12-8.5,5.6"/>
      <path fill="none" stroke-linejoin="round" stroke-miterlimit="10" d="M560.7,188c0,0,1.6,6.8,6.5,4.3
        c4.9-2.6,1.1-5.9,0-6c0.1-1.2-0.6-5.1-3.4-5.5c0.7-1.5,1.8-8.5-6.4-8.5c0,0-3.4,2.3-3.1,4.3c0.2,1.9,1,4.9,2.9,4.9
        C556.7,182.5,556.9,187.5,560.7,188z"/>
      <path fill="none" stroke-linejoin="round" stroke-miterlimit="10" d="M557.2,181.4c0,0,3.4-0.4,6.6-0.7"/>
      <path fill="none" stroke-linejoin="round" stroke-miterlimit="10" d="M560.7,188c0,0,3.8,0,6.5-1.8"/>
      <path fill="none" stroke-linejoin="round" stroke-miterlimit="10" d="M584.9,158c3.7,0,6.2,0.6,6.5,1.8
        c0.4,2.2-6.8,5.5-16.3,7.5c-9.4,1.9-17.4,1.7-17.9-0.5"/>
      <path fill="none" stroke-linejoin="round" stroke-miterlimit="10" d="M565.8,161.3c2.3-0.8,4.9-1.4,7.7-2
        c3.4-0.7,6.6-1.1,9.3-1.3"/>
      <path fill="none" stroke-linejoin="round" stroke-miterlimit="10" d="M566.8,162.7c1.8-0.7,4.2-1.4,7-1.9
        c3.5-0.7,6.7-1,8.8-0.9"/>
      <path fill="none" stroke-linejoin="round" stroke-miterlimit="10" d="M584.5,160.2c0.2,0.1,0.3,0.2,0.3,0.3
        c0.2,1.1-4.3,2.9-10.2,4.1c-5.9,1.2-10.8,1.3-11,0.2c-0.1-0.4,0.6-1,1.9-1.6"/>
      <line fill="none" stroke-linejoin="round" stroke-miterlimit="10" x1="557.2" y1="166.6" x2="557.4" y2="172.2"/>
      <path fill="none" stroke-linejoin="round" stroke-miterlimit="10" d="M591.4,159.8c0,0,4.3,14.2,1.9,22.1
        c-2.5,7.9-10,21.4-26.1,10.4"/>
      <path fill="none" stroke-linejoin="round" stroke-miterlimit="10" d="M582.1,162.5c0,0,2.6-17.9,3-19.3
        c0.4-1.4,1.2-2.9,2.1-3.3c1.3-0.6,10.1-2.2,10.1-2.2l0.4,2c0,0-8.1,1.8-9.1,2.2c-1,0.4-1.5,0.9-1.6,2.1c-0.2,1-2.1,13.9-2.7,17.3"
        />
      <path fill="#FFFFFF" stroke-linejoin="round" stroke-miterlimit="10" d="M550.1,171.9c2.9-0.3,6.2-1.3,9.6-3
        c1-0.5,2.1-1.1,3.2-1.8c1.4-0.9,2.8-1.9,4.2-3c0.1-0.1,0.2-0.2,0.3-0.3c6-4.8,10-10.6,11.4-15.4l-18.8,4.4c0,0,0,0.6-0.5,0.9
        c-0.5,0.3-1.1,0.2-1.1,0.2L550.1,171.9z"/>
      <path fill="#FFFFFF" stroke-linejoin="round" stroke-miterlimit="10" d="M558.4,154c0,0-1.7-2.2-1.2-2.7
        c0.6-0.5,2,0.7,2.7,1.6"/>
      <path fill="none" stroke-linejoin="round" stroke-miterlimit="10" d="M585.6,193.9c0,0,13.6,8.2,20.8,2"/>
      <path fill="none" stroke-linejoin="round" stroke-miterlimit="10" d="M607,164.3c0,0-2.3,42.4,1.4,53.5
        c14.6,1.9,36.4,5.9,62.5-3.4c0-6.3-0.8-54.3-1.8-60.5"/>
      <path fill="none" stroke-linejoin="round" stroke-miterlimit="10" d="M654.9,135.9c0,0,10,1.6,12.3,5.4
        c2.4,3.9,5.9,10.7,5.9,10.7"/>
      <path fill="none" stroke-linejoin="round" stroke-miterlimit="10" d="M608.4,217.7c0,0-3-1.3-1.1,3.2h1.1v6.5
        c0,0,0.6,11.2,1.1,12.3c0.5,1.1,10.1,6.6,26.9,1.4c0.8-0.8,1-9.9,1-11.4c2.1-0.2,6-0.4,6-0.4s0.2,10.2,1.8,11
        c1.7,0.8,19.8,3.3,27.1-3.7c0.3-1.4-0.9-18.3-0.9-19.6c0.8-1,1.3-3.8-0.5-3.3"/>
      <path fill="none" stroke-linejoin="round" stroke-miterlimit="10" d="M612.8,241.8c0,0,3.3,9.2,2.8,10.2
        c-0.5,1-6.6,5-7,6.5c-0.3,1.5,0.5,2.8,1.8,2.9c0.7,1.1,2.3,1.7,3.9,0.9c1.7,1,3.7,1.5,5.5-0.3c1.7,1.3,3.8,1.5,6.2,0.5
        c2.4-1,1.9-2.4,2.9-2.5c0.9-0.2,4.5,0.6,4.9-3.2c0.3-3.8-1.8-2.7-1.3-6.5s1.3-8.4,1.3-8.4"/>
      <path fill="none" stroke-linejoin="round" stroke-miterlimit="10" d="M619.9,262c0,0-2.3-3.2,2.2-5.3"/>
      <path fill="none" stroke-linejoin="round" stroke-miterlimit="10" d="M614.3,262.3c0,0-1.3-2.6,2.1-4.9"/>
      <path fill="none" stroke-linejoin="round" stroke-miterlimit="10" d="M610.5,261.4c0,0-0.9-1.8,2.3-3.9"/>
      <path fill="none" stroke-linejoin="round" stroke-miterlimit="10" d="M647.7,241c0,0,2.1,10.4,1.7,13
        c-0.4,2.5-2.5,5.5,5,6.8c1.2,0.8,3,1.4,5.1,1.5c1.2,0.9,5.6,2.6,8.5-0.3c1.1,0.7,3,0.1,3.4-1.2c1.2,0.3,3-0.1,3.2-1.4
        c0.8,0.2,2.9-2.2,0-4.1c-2.9-1.8-7.1-3.5-8.4-5.5c-1.3-1.9,1.4-8.2,1.7-10.4"/>
      <path fill="none" stroke-linejoin="round" stroke-miterlimit="10" d="M668,262"/>
      <path fill="none" stroke-linejoin="round" stroke-miterlimit="10" d="M671.3,260.8"/>
      <path fill="none" stroke-linejoin="round" stroke-miterlimit="10" d="M668,262c0,0,1.2-1.3,0-2.6
        c-1.2-1.4-2.2-0.6-3-1.9"/>
      <path fill="none" stroke-linejoin="round" stroke-miterlimit="10" d="M671.3,260.8c0,0,2-2.3-1.8-4.1"/>
      <path fill="none" stroke-linejoin="round" stroke-miterlimit="10" d="M674.5,259.4c0,0,0.9-1.7-1.3-2.7"/>
      <path fill="none" stroke-linejoin="round" stroke-miterlimit="10" d="M717.4,196.6c-8.6,22.1-19.1,43.5-31,57.5
        c0,0-4.5,3.1-10.6,2.5"/>
      <path fill="none" stroke-linejoin="round" stroke-miterlimit="10" d="M687.1,101.8c1.7-5.3,3.4-10.1,5-14.1
        c9.7-23.9,34.6-68.5,43.6-77.9c9.1-9.4,21.5-13.8,21.5,0c0,13.8-9.1,81.6-15.1,106.4c-3,12.2-9.4,37.3-18.6,63.8"/>
      <path fill="none" stroke-linejoin="round" stroke-miterlimit="10" d="M669.9,166.6c0,0,6.8-30,14.3-55.3"/>
      <path fill="none" stroke-linejoin="round" stroke-miterlimit="10" d="M714.8,193.7c0,0,4,6.7,8.1,2.6
        c1-1,0.7-2.8,0-3.5c1.6,0.2,3.4-1.5,3.5-3.3c0.1-1.8-0.9-2.4-1.3-2.5c1.7-0.1,3.6-0.6,3.5-3.1c-0.1-2.5-2.9-3.9-5.9-3.9
        c-2.9,0-4.8,2.3-3.3,4.7c-2.3,0.4-3.6,2.9-1.2,5.5C716.1,190.1,714.3,190.9,714.8,193.7z"/>
      <path fill="none" stroke-linejoin="round" stroke-miterlimit="10" d="M718.3,190.2c0,0,3.4,1.7,4.5,2.6"/>
      <path fill="none" stroke-linejoin="round" stroke-miterlimit="10" d="M719.5,184.7c0,0,3.4,0.8,5.6,2.3"/>
      <ellipse transform="matrix(0.8794 0.4761 -0.4761 0.8794 155.0006 -272.5656)" fill="none" stroke-linejoin="round" stroke-miterlimit="10" cx="615.5" cy="169.7" rx="2.7" ry="1.9"/>
      <ellipse transform="matrix(0.9585 -0.2851 0.2851 0.9585 -20.5015 195.4414)" fill="none" stroke-linejoin="round" stroke-miterlimit="10" cx="661.1" cy="168.1" rx="2.7" ry="1.9"/>
      <path fill="none" stroke-linejoin="round" stroke-miterlimit="10" d="M672.3,232.9
        c18.2-72.3,60.7-188.3,69.8-207.7c6.2-13.3,10.9-20.5,14-21.3"/>
      <path fill="none" stroke-linejoin="round" stroke-miterlimit="10" d="M668,251.6c0.9-4.4,2-9,3.2-13.9"/>
      <path fill="none" stroke-linejoin="round" stroke-miterlimit="10" d="M757.1,7.1c-0.1,0.1-3.6,1.5-12,19.5
        c-5,10.7-19.9,50.3-35.3,95.5c-10.9,32-30.7,92.1-38.9,131.2"/>
      <path fill="none" stroke-linejoin="round" stroke-miterlimit="10" d="M670.8,204.5
        c20.3-71.5,55.1-166,63.2-183.3c3.9-8.5,7.3-14.4,10-17.9"/>
      <path fill="none" stroke-linejoin="round" stroke-miterlimit="10" d="M751.2,1c-0.1,0.1-5.9,3.6-14.2,21.6
        c-5,10.7-19.9,50.3-35.3,95.5c-8,23.5-20.6,61.7-30,95.8"/>
    </g>

    <g stroke="#CECECE">
      <path fill="none" stroke-linecap="round" stroke-linejoin="round" stroke-miterlimit="10" d="M355.9,203.3
        c5.3,1.8,23-2.4,21.7-11.4s-32.7-61.7-37.3-64.3s-44-1.3-51.3,1.3s-17.2,16.2-17.2,16.2s-30,45.1-26.2,53.4s23.7,9,25.1,6.2
        c1.4-2.8,10.7-40,10.7-40s0.8-6.8-1.2-8.8"/>
      <path fill="none" stroke-linecap="round" stroke-linejoin="round" stroke-miterlimit="10" d="M270.2,205
        c0,0-3.5,19.1-0.5,22.5c3,3.4,27.1,7,44.8,6.5"/>
      <circle fill="none" stroke-linecap="round" stroke-linejoin="round" stroke-miterlimit="10" cx="323" cy="170.6" r="5"/>
      <circle fill="none" stroke-linecap="round" stroke-linejoin="round" stroke-miterlimit="10" cx="323" cy="196.2" r="5"/>
      <circle fill="none" stroke-linecap="round" stroke-linejoin="round" stroke-miterlimit="10" cx="324.7" cy="221.1" r="5"/>
      <path fill="none" stroke-linecap="round" stroke-linejoin="round" stroke-miterlimit="10" d="M347.4,168.3
        c0,0,0.2-3.7,1.8-5"/>
      <path fill="none" stroke-linecap="round" stroke-linejoin="round" stroke-miterlimit="10" d="M281,165.8
        c0,0-1.2-4.2-2.5-4.9"/>
      <path fill="#FFFFFF" stroke-linecap="round" stroke-linejoin="round" stroke-miterlimit="10" d="M311.2,155.5
        c0,0,4.1-19.6,12.1-20.9s21-4.8,21-21.8s-21-7.8-30.5-7.8s-30.1-2.9-30.1,11.6s7.1,17.9,16.3,20.1s8.2,3.5,10.1,10.5"/>
      <path fill="none" stroke-linecap="round" stroke-linejoin="round" stroke-miterlimit="10" d="M347,157.1
        c0,0-1.5,3-0.5,8s6.9,20.9,9.2,37c1.4,9.9,1.2,16.4,1.3,22.9c0.1,6.5-11.8,7-19.7,9c-7.9,2-17.4,5.1-21.5,2.8
        c-4.1-2.3-4.7-81.4-4.7-81.4s-6.1-28.1,9.1-32.9s9.8-10,7.2-10.5"/>
      <path fill="#FFFFFF" stroke-linecap="round" stroke-linejoin="round" stroke-miterlimit="10" d="M299.3,112.8
        c-2.8,1.5-4.9,7.2,2.2,9.5c5.3,1.7,9.7,10.5,9.7,10.5"/>
      <path fill="none" stroke-linejoin="round" stroke-miterlimit="10" d="M431.8,240.1c0,0-4,3.2,0,5.1
        c4,2,9.8,1.2,9.9,0c0.1-1.2,0-3.8,0-3.8S432.9,242.4,431.8,240.1z"/>
      <path fill="none" stroke-linejoin="round" stroke-miterlimit="10" d="M441.7,241.4c0,0,0-1.2,1.3-1.8
        c1.8-1,6.8-1.7,7,1.8c0,0,1.2,0,2,2.6s-0.1,3.6,7.7,4.8c0,0,6.8,2.4,4.5,10.4c0,0,3.2,2.1,0.4,3.7c-2.8,1.6-29.7,2.1-32.5-1.3
        c-1.9-2.1-0.1-2.4,0-3.3c0,0-0.9-6-0.3-13.1"/>
      <path fill="none" stroke-linejoin="round" stroke-miterlimit="10" d="M432.2,258.3c0,0,24.1,5.1,32.1,0.8"/>
      <path fill="none" stroke-linejoin="round" stroke-miterlimit="10" d="M450,241.4c0,0,0,5,2.5,4.4"/>
      <path fill="none" stroke-linejoin="round" stroke-miterlimit="10" d="M408.4,240.5c0,0,7.3-1.4,7.7,0.9
        c0.4,2.3,0.8,3.2-1.9,3.5C411.5,245.1,407.3,247.1,408.4,240.5z"/>
      <path fill="none" stroke-linejoin="round" stroke-miterlimit="10" d="M408.4,240.5c0,0,1.3-2.4-2.8-2.5
        s-6.4-0.6-7.3,0c-0.9,0.6-0.5,2.3-0.6,2.7"/>
      <path fill="none" stroke-linejoin="round" stroke-miterlimit="10" d="M395,240.1c0,0-1.3,3-0.4,3.5
        c1,0.6,2.8,1,3.1-0.3c0.3-1.4,0.6-2.7-0.8-3.2S395,240.1,395,240.1z"/>
      <path fill="none" stroke-linejoin="round" stroke-miterlimit="10" d="M395.6,244.2c0,0,1.4,4,0.6,4.8
        c-0.9,0.8-7.1,1.9-6.6,7.9c0,0-0.1,2.9,0.3,3.3c-0.6,0.9,0.2,3.8,1.3,4.4c1.1,0.6,17.4,1.8,22-0.5c4.5-2.2,4.5-3.1,3.2-4.5
        c0.5-1.6-0.9-13.5-0.8-15"/>
      <path fill="none" stroke-linejoin="round" stroke-miterlimit="10" d="M389.9,260.2c0,0,11.3,4.5,26.6-1"/>
      <path fill="none" stroke-width="1.1396" stroke-linejoin="round" stroke-miterlimit="10" d="M1200.4,256.2
        c0,0,2.7,3.3-0.5,5.2c-3.2,1.9-33.9,2.4-37.1-1.5c-1.3-1.8-0.9-3.1,0-3.7"/>
      <path fill="none" stroke-width="1.1396" stroke-linejoin="round" stroke-miterlimit="10" d="M1199.4,257.2
        c-8.9,5.1-36.6-0.9-36.6-0.9s5.2-4,15.3-2.7C1188.2,254.9,1204.6,254.2,1199.4,257.2z"/>
      <path fill="none" stroke-width="1.1396" stroke-linejoin="round" stroke-miterlimit="10" d="M1114.7,258.4
        c-0.7,1,0.2,4.3,1.5,5c1.3,0.7,14.7,2.2,23.8-0.3c5.6-1.6,6.3-3.7,4.9-5.3c0,0-4.3-2-9.7-2.1S1116.2,255.7,1114.7,258.4
        c0,0,6.8,5.7,30-0.7"/>
      <path fill="#FFFFFF" stroke-width="1.1396" stroke-linejoin="round" stroke-miterlimit="10" d="M1123.8,258.3
        c0,0,0-4.3,4.7-4.1c4.7,0.2,5.7,5.8,5.7,5.8l2.8-0.8c-2-10.2-12.1-5.7-12.1-5.7s0.5-2.8-1-2.8s-2.6,1-2.6,1c0.5,2,1.3,2.5,0.7,6.1
        C1122,258.8,1123.6,259,1123.8,258.3z"/>
      <path fill="#FFFFFF" stroke-width="1.1396" stroke-linejoin="round" stroke-miterlimit="10" d="M1177.7,258.2
        c0,0,0.6-8.4,10.3-8c9.7,0.4,7.5,6.4,7.5,6.4s-1.8,1-1.7,0.4c0.6-3.1-1.1-5.7-6-4.8c-4.8,0.9-6.6,6.4-6.6,6.4L1177.7,258.2z"/>
      <path fill="none" stroke-linecap="round" stroke-linejoin="round" stroke-miterlimit="10" d="M1055.5,158.4
        c0,0-9-1.3-9-4.8s5.8-25.6,9.3-28.4s21.4-10.7,30.5-10.7s29,4.2,31.5,7.2s7.1,22.8,8.6,26.8c-0.5,6-4.9,8-9.2,8.5
        c0.2,8.5,4.2,36,4.5,39s-14.1,12-33.7,12s-36.2-5.2-35.7-9.6S1055.5,158.4,1055.5,158.4z"/>
      <path fill="none" stroke-linecap="round" stroke-linejoin="round" stroke-miterlimit="10" d="M1055,164.8
        c0,0,2.5-25.4,2-29.9"/>
      <path fill="none" stroke-linecap="round" stroke-linejoin="round" stroke-miterlimit="10" d="M1056.6,146
        c0,0-1.7-7.3-2.7-8.1"/>
      <path fill="none" stroke-linecap="round" stroke-linejoin="round" stroke-miterlimit="10" d="M1117.2,156.9
        c0,0-2-20.2-1.5-24.7"/>
      <path fill="none" stroke-linecap="round" stroke-linejoin="round" stroke-miterlimit="10" d="M1116,142.7
        c0,0,1.7-6.7,2.7-7.5"/>
      <path fill="none" stroke-linecap="round" stroke-linejoin="round" stroke-miterlimit="10" d="M1070.6,118.2
        c0,0-1.9,1.7-1.9,2.7s2,5.2,17.2,5.2s16-6.2,16-7.2s-0.5-2.6-4-3.1"/>
      <path fill="none" stroke-linecap="round" stroke-linejoin="round" stroke-miterlimit="10" d="M14.2,161.1
        c0,0-9-1.3-9-4.8s5.8-25.6,9.3-28.4s21.4-10.7,30.5-10.7s29,4.2,31.5,7.2s7.1,22.8,8.6,26.8c-0.5,6-4.9,8-9.2,8.5
        c0.2,8.5,4.2,36,4.5,39S61.6,216.1,42,216.1c-0.2-2.5-0.3-3.3-0.3-6.3c-16.7-0.9-31.1-4.7-30.7-8.6
        C11.5,196.8,14.2,161.1,14.2,161.1z"/>
      <path fill="none" stroke-linecap="round" stroke-linejoin="round" stroke-miterlimit="10" d="M13.7,167.6
        c0,0,2.5-25.4,2-29.9"/>
      <path fill="none" stroke-linecap="round" stroke-linejoin="round" stroke-miterlimit="10" d="M15.4,148.7
        c0,0-1.7-7.3-2.7-8.1"/>
      <path fill="none" stroke-linecap="round" stroke-linejoin="round" stroke-miterlimit="10" d="M75.9,159.6
        c0,0-2-20.2-1.5-24.7"/>
      <path fill="none" stroke-linecap="round" stroke-linejoin="round" stroke-miterlimit="10" d="M74.7,145.5
        c0,0,1.7-6.7,2.7-7.5"/>
      <path fill="#FFFFFF" stroke-linecap="round" stroke-linejoin="round" stroke-miterlimit="10" d="M41.7,209.8
        c0,0-2-68.3-1-70.7s5.3-12,8.3-11.7s1.7,7.5,1.7,7.5s8.4-5.9,8.4-13.9c0-2.4-1.2-6.4-3.2-7.6c-3.4-2.1-21.2-0.6-23.2,2.1
        s-4.3,15.3-1.3,20.7c1.3-6,2.4-8.8,4.8-8.8s6.1,8.5,6.1,8.5"/>
      <path fill="#FFFFFF" stroke-linecap="round" stroke-linejoin="round" stroke-miterlimit="10" d="M36.2,117
        c-2,1.5,0.8,10,2.4,12.5"/>
      <path fill="#FFFFFF" stroke-linecap="round" stroke-linejoin="round" stroke-miterlimit="10" d="M49.4,115.9
        c1.1,0.4,4.3,4-2.2,12.4"/>
      <ellipse fill="#FFFFFF" stroke-width="0.7312" stroke-linejoin="round" stroke-miterlimit="10" cx="998.1" cy="95.9" rx="45.3" ry="7.3"/>
      <path fill="#FFFFFF" stroke-width="0.7312" stroke-linejoin="round" stroke-miterlimit="10" d="M1025.8,92.3
      c0,2.5-12.5,4.5-28,4.5c-15.5,0-28-2-28-4.5c0,0-0.4-42.2-0.9-45.4c2.6-5.4,18.7-7.1,28.9-7.1c10.2,0,26.1,3.2,28,5.6
      C1025.8,50.6,1025.8,92.3,1025.8,92.3z"/>
      <path fill="none" stroke-width="0.7312" stroke-linejoin="round" stroke-miterlimit="10" d="M969.6,81.3
      c0,0,11.8,2.2,27.7,2.2c15.9,0,28.5-3.6,28.5-3.6"/>
      <path fill="#FFFFFF" stroke-width="0.7312" stroke-linejoin="round" stroke-miterlimit="10" d="M972.9,46.8
      c1.6,0.2,15,1.5,25.6,1.5c10.6,0,24.3-2.7,24.3-2.7"/>
      <path fill="#FFFFFF" stroke-linecap="round" stroke-linejoin="round" stroke-miterlimit="10" d="M446.2,106.8
        c0,3.2,3.2,3.8,4.5,4.2c1.3,0.3,1.7,10.7,4.8,11.7c2.6,0.8,24.7,0.2,27.1-1.8c2.3-2,1.1-12.2,3.1-14.9c1.1-1.4,6-1.8,7.3-0.1
        s2.5,13.5,4.1,14.5s22.9,1.7,25.4-0.1c1.5-1.1,1.5-12.7,3.8-13s4.7-1.8,4.7-3.5s-1.3-3.5-4.3-3.8s-1.8-4.5-5.5-4.5
        c-3.7,0-24.2-0.8-25.5,0.8s-1.5,4.2-6.8,4.3c-5.9,0.2-5.7-3.2-8.2-3.7c-1.3-0.3-25.2,0.2-26.5,0.8c-1.3,0.7-1.2,4.5-2.8,5.5
        S446.2,103.6,446.2,106.8z"/>
      <path fill="#FFFFFF" stroke-linecap="round" stroke-linejoin="round" stroke-miterlimit="10" d="M455.7,101.3
        c-1,1-0.4,16.5,1.1,17.5s21.9,0.4,23-1s2-15.8,0.1-17S457.2,99.8,455.7,101.3z"/>
      <path fill="#FFFFFF" stroke-width="0.9529" stroke-linecap="round" stroke-linejoin="round" stroke-miterlimit="10" d="
        M520.8,99.9c0.9,1,0.7,16.5-0.6,17.5c-1.3,1-19.9,0.8-20.9-0.6c-1-1.4-2.2-15.7-0.5-17S519.4,98.4,520.8,99.9z"/>
      <path fill="none" stroke-linecap="round" stroke-linejoin="round" stroke-miterlimit="10" d="M983.9,214.4
        c1.7,0.8,1.3,2.3,0.5,3.3c0,1.3-3.4,31.3-3.7,32.8c-7.3,7-18.9,3.9-19,2c-0.2-4.6-5.3-22.5-5.3-22.5s-3.9,0.3-6,0.4
        c0,1.5-2.9,20.7-3.6,21.5c-16.8,5.2-19-0.4-19.5-1.5c-0.5-1.1-5.8-28.9-5.8-28.9h-1.1c-1.9-4.5,2.1-5.1,3.7-5.6
        c1.6-0.5,15-2.6,29.4-3.2C967.4,212,980.7,212.9,983.9,214.4z"/>
      <path fill="none" stroke-linecap="round" stroke-linejoin="round" stroke-miterlimit="10" d="M923.4,218.2
        c1.5,0.4,20.3,0.7,28.9,0.4s24.9-1.3,29.3-2.6"/>
      <path fill="none" stroke-linecap="round" stroke-linejoin="round" stroke-miterlimit="10" d="M931.8,251.4
        c0,0-3.1-15.6-3.5-21.6"/>
      <path fill="none" stroke-linecap="round" stroke-linejoin="round" stroke-miterlimit="10" d="M976.1,250.8
        c0,0,1.2-17.5,1.6-23.5"/>
      <path fill="none" stroke-linecap="round" stroke-linejoin="round" stroke-miterlimit="10" d="M977.2,219
        c0,0,1.8,8,5.9,9.6"/>
      <path fill="none" stroke-linecap="round" stroke-linejoin="round" stroke-miterlimit="10" d="M928.4,220
        c0,0-1.8,8-5.9,9.6"/>
      <path fill="none" stroke-linecap="round" stroke-linejoin="round" stroke-miterlimit="10" d="M193.4,210.1
        c1.7,0.8,1.3,2.3,0.5,3.3c0,1.3,1.3,32.1,0.9,33.6c-7.3,7-25.4,4.5-27.1,3.7c-1.7-0.8-1.8-25-1.8-25s-3.9,0.3-6,0.4
        c0,1.5-0.3,24.7-1,25.4c-16.8,5.2-26.4-0.3-26.9-1.4c-0.5-1.1-1.1-26.3-1.1-26.3v-6.5h-1.1c-1.9-4.5,2.1-5.1,3.7-5.6
        c1.6-0.5,15-2.6,29.4-3.2C176.9,207.7,190.2,208.6,193.4,210.1z"/>
      <path fill="none" stroke-linecap="round" stroke-linejoin="round" stroke-miterlimit="10" d="M132.9,214
        c1.5,0.4,20.3,0.7,28.9,0.4s24.9-1.3,29.3-2.6"/>
      <path fill="#FFFFFF" stroke-linecap="round" stroke-linejoin="round" stroke-miterlimit="10" d="M163.7,79.6
        c0,0,3.1-34.5,6.2-41.1c3.1-6.6,13.7-0.9,19.5-0.1c5.8,0.8,8.8-0.7,10.8-2.2c4.1-3.3,11.3-7.8,15.1-1.2s10.5,42.7,10.5,42.7
        L163.7,79.6z"/>
      <path fill="#FFFFFF" stroke-linecap="round" stroke-linejoin="round" stroke-miterlimit="10" d="M165.7,60.9
        c-1.2,9.7-2,18.6-2,18.6l62.1-1.9c0,0-1.4-7.7-3.3-16.7H165.7z"/>
      <path fill="#FFFFFF" stroke-linecap="round" stroke-linejoin="round" stroke-miterlimit="10" d="M152.6,73
        c0,2.4,2.7,8.1,10.1,8.5c7.4,0.4,63.3,0,66.4,0s7.4-5.8,7-9.7c-0.4-3.9-1.9-3.5-4.3-3.5c-2.3,0-73.3,0.4-75.7,0.4
        C153.8,68.7,152.6,71.4,152.6,73z"/>
      <path fill="#FFFFFF" stroke-width="1.0639" stroke-linecap="round" stroke-linejoin="round" stroke-miterlimit="10" d="
      M835,118.6c0,0,15.3,0,15.4,2.3c0.9,1.2,1.7,9.1-0.2,10c1.3,0.8-0.6,21,5.3,21c1.4-0.3,4,16.3,1.6,17.6c2.1,0,2.7,20.8,1.1,21.3
      c2.3,1.4-0.1,15.7-1.5,16.8c-5.6,4.3-64.1,4.5-68.6,0.2c-3.3-3.3-4.2-16.1-2-17c-1.7-0.7-2.2-20.7,0.8-21.3
      c-2.4-1,1.2-16.2,1.2-16.2s8.1,3,5.7-22.4c-1.8-0.2-1.5-9.1-1.3-10.3c1.2-1.2,13.6-1.5,13.6-1.5L835,118.6z"/>
      <path fill="#FFFFFF" stroke-width="1.0639" stroke-linecap="round" stroke-linejoin="round" stroke-miterlimit="10" d="
      M806.3,119.2c0,0,4.1,5.7,13.9,5.7c8.5,0,12.2-2,14.4-5.5c0.4-2.4-0.4-5.5-2.2-7.1c-3.1,2.5-4.9,5.1-11.9,5.1
      c-6.3,0-10.5-2.7-11.6-4.9C806.6,114,805.5,118.3,806.3,119.2z"/>
      <line fill="#FFFFFF" stroke-width="1.0639" stroke-linecap="round" stroke-linejoin="round" stroke-miterlimit="10" x1="819.8" y1="117.7" x2="819.8" y2="210.5"/>
      <line fill="#FFFFFF" stroke-width="1.0639" stroke-linecap="round" stroke-linejoin="round" stroke-miterlimit="10" x1="822.3" y1="118" x2="822.3" y2="211"/>
      <line fill="#FFFFFF" stroke-width="1.0639" stroke-linecap="round" stroke-linejoin="round" stroke-miterlimit="10" x1="822.3" y1="131" x2="850.3" y2="131"/>
      <line fill="#FFFFFF" stroke-width="1.0639" stroke-linecap="round" stroke-linejoin="round" stroke-miterlimit="10" x1="793.9" y1="131" x2="819.8" y2="131"/>
      <line fill="#FFFFFF" stroke-width="1.0639" stroke-linecap="round" stroke-linejoin="round" stroke-miterlimit="10" x1="822.3" y1="148.3" x2="851.4" y2="148.3"/>
      <line fill="#FFFFFF" stroke-width="1.0639" stroke-linecap="round" stroke-linejoin="round" stroke-miterlimit="10" x1="793.5" y1="148.3" x2="819.8" y2="148.3"/>
      <line fill="#FFFFFF" stroke-width="1.0639" stroke-linecap="round" stroke-linejoin="round" stroke-miterlimit="10" x1="822.3" y1="169.6" x2="857.2" y2="169.6"/>
      <line fill="#FFFFFF" stroke-width="1.0639" stroke-linecap="round" stroke-linejoin="round" stroke-miterlimit="10" x1="787.3" y1="169.6" x2="819.8" y2="169.6"/>
      <line fill="#FFFFFF" stroke-width="1.0639" stroke-linecap="round" stroke-linejoin="round" stroke-miterlimit="10" x1="822.3" y1="190.9" x2="858.3" y2="190.9"/>
      <line fill="#FFFFFF" stroke-width="1.0639" stroke-linecap="round" stroke-linejoin="round" stroke-miterlimit="10" x1="786.6" y1="190.9" x2="819.8" y2="190.9"/>
      <path fill="#FFFFFF" stroke-width="1.0639" stroke-linecap="round" stroke-linejoin="round" stroke-miterlimit="10" d="
      M792.7,120.7c1.2-1.2,13.6-1.5,13.6-1.5"/>
      <path fill="#FFFFFF" stroke-width="1.0639" stroke-linecap="round" stroke-linejoin="round" stroke-miterlimit="10" d="
      M793.9,131"/>
      <path fill="#FFFFFF" stroke-width="1.0639" stroke-linecap="round" stroke-linejoin="round" stroke-miterlimit="10" d="
      M849.9,196.1c0.5,0.8,0.1,1.8-0.8,2.3l0,0c-0.9,0.4-2.1,0.2-2.6-0.6l-10.3-17c-0.5-0.8-0.1-1.8,0.8-2.3l0,0
      c0.9-0.4,2.1-0.2,2.6,0.6L849.9,196.1z"/>
      <path fill="#FFFFFF" stroke-width="1.0639" stroke-linecap="round" stroke-linejoin="round" stroke-miterlimit="10" d="
      M795.2,196.1c-0.5,0.8-0.1,1.8,0.8,2.3l0,0c0.9,0.4,2.1,0.2,2.6-0.6l10.3-17c0.5-0.8,0.1-1.8-0.8-2.3l0,0c-0.9-0.4-2.1-0.2-2.6,0.6
      L795.2,196.1z"/>
      <path fill="#FFFFFF" stroke-width="1.0639" stroke-linecap="round" stroke-linejoin="round" stroke-miterlimit="10" d="
      M808.9,112.5c0,0,5.7-1,11.2-1s12.3,0.8,12.3,0.8"/>
      <path fill="#FFFFFF" stroke-width="1.0639" stroke-linecap="round" stroke-linejoin="round" stroke-miterlimit="10" d="
      M1198.4,199c0,0,13.8,4,31.8,4s32.2-5.2,32.2-5.2l-0.8-48.7c0,0-9.3-4.7-9-16.2s0.8-14.8,0.8-14.8l-5.3-1.8c0,0-2.3,28.2-19,28.2
      s-17.3-27.3-17.3-27.3l-5.2,2.2c0,0-0.5,29.7-9,32.7C1196.2,169.8,1198.4,199,1198.4,199z"/>
      <path fill="none" stroke-width="1.0639" stroke-linecap="round" stroke-linejoin="round" stroke-miterlimit="10" d="
      M1211.9,117.8c0,0,2.7,11.9,16.9,11.9s18.9-13.3,18.9-13.3"/>
    </g>
  </symbol>

  <symbol id="charFun" viewBox="0 0 1259 284">
    <g stroke="#231F20">
      <path fill="none" stroke-linejoin="round" stroke-miterlimit="10" d="M612.4,134.2c0,0,35.1,44.5,78.6-2.4
        c-1.6-10.2-6-39.8-36.9-39.8C623.1,92,613,109.4,612.4,134.2z"/>
      <circle fill="none" stroke-linejoin="round" stroke-miterlimit="10" cx="613" cy="92.3" r="7.5"/>
      <circle fill="none" stroke-linejoin="round" stroke-miterlimit="10" cx="689.3" cy="94.3" r="6.8"/>
      <path fill="none" stroke-linejoin="round" stroke-miterlimit="10" d="M620.6,91.1c0,0-7.4,1.7-7.5,8.8"/>
      <path fill="none" stroke-linejoin="round" stroke-miterlimit="10" d="M683.3,91c0,0,7.1,3.2,7.7,10.2"/>
      <circle fill="none" stroke-linejoin="round" stroke-miterlimit="10" cx="692.4" cy="93.4" r="1.8"/>
      <circle fill="none" stroke-linejoin="round" stroke-miterlimit="10" cx="611" cy="92.2" r="1.8"/>
      <path fill="none" stroke-linejoin="round" stroke-miterlimit="10" d="M618.9,87.6c0,0,16.1-13.6,24.4-14.5
        c1.8-3.4,2.3-7.5,4.3-7.4c2.3,0.1,3.9,4.6,3.9,4.6"/>
      <path fill="none" stroke-linejoin="round" stroke-miterlimit="10" d="M648.5,72.5"/>
      <path fill="none" stroke-linejoin="round" stroke-miterlimit="10" d="M650.1,72.9c0,0,0.9-0.8,2-4.4
        s2.3-4.5,3.8-3.9c1.5,0.6,1.2,6.4,2.6,7.8c0,0,1.1-0.6,1.9-2.4c0.9-1.8,2.8-7,5-5.4c2.2,1.5,1.2,11.4,2.6,13.1
        c1.4,1.7,9,3.6,12.4,5.8c3.4,2.2,4.7,3.3,5.7,4.6"/>
      <path fill="none" stroke-linejoin="round" stroke-miterlimit="10" d="M637.2,75.2c0,0,1.5-10.7,4.9-1.9"/>
      <path fill="none" stroke-linejoin="round" stroke-miterlimit="10" d="M611.7,99.9c0,0-23.7,48.6,12,59
        c20.3,5.9,49,1.3,58.9-4c3.2-1.7,24.7-13.2,9-54.3"/>
      <circle fill="none" stroke-linejoin="round" stroke-miterlimit="10" cx="671.4" cy="116.2" r="8.7"/>
      <circle fill="none" stroke-linejoin="round" stroke-miterlimit="10" cx="671.8" cy="116" r="3.4"/>
      <circle fill="none" stroke-linejoin="round" stroke-miterlimit="10" cx="631" cy="116.3" r="8.7"/>
      <circle fill="none" stroke-linejoin="round" stroke-miterlimit="10" cx="630.7" cy="116" r="3.4"/>
      <path fill="none" stroke-linejoin="round" stroke-miterlimit="10" d="M649.8,139.1c0,0,9.5-3.2,21-8.5
        c0.6,0.1-0.6,10.7-5.4,11.7C660.6,143.2,651.9,140.4,649.8,139.1z"/>
      <path fill="none" stroke-linejoin="round" stroke-miterlimit="10" d="M656.9,121.6c0,2.7-2.2,4.9-4.9,4.9
        c-2.7,0-4.9-2.2-4.9-4.9"/>
      <ellipse transform="matrix(0.8843 0.467 -0.467 0.8843 117.425 -300.497)" fill="none" stroke-linejoin="round" stroke-miterlimit="10" cx="665" cy="86.7" rx="2.4" ry="1.6"/>
      <ellipse transform="matrix(0.9032 -0.4292 0.4292 0.9032 23.8873 281.0354)" fill="none" stroke-linejoin="round" stroke-miterlimit="10" cx="635" cy="87.6" rx="2.4" ry="1.6"/>
      <path fill="none" stroke-linejoin="round" stroke-miterlimit="10" d="M647.8,92.3c0,0,2,6.3,4.9,6.5
        c2.9,0.2,6.3-3.6,7.6-6.3"/>
      <path fill="none" stroke-linejoin="round" stroke-miterlimit="10" d="M666.9,94c0,0-1.5,5.3,0.9,7.1
        c2.4,1.8,6.3-0.8,7.7-2.4"/>
      <path fill="none" stroke-linejoin="round" stroke-miterlimit="10" d="M680.8,104c0,0-2.2,3.2-1.4,4.9s3.7,2,5.7,2
        "/>
      <path fill="none" stroke-linejoin="round" stroke-miterlimit="10" d="M633.8,95.5c0,0,2.2,4.7,5.6,5.1
        c3.3,0.4,4.9-5.4,5.4-7.9"/>
      <path fill="none" stroke-linejoin="round" stroke-miterlimit="10" d="M620.6,105.3c0,0,4.9,2.3,7.1,0.3
        c2.2-1.9,1.2-4.1,0-7"/>
      <path fill="none" stroke-linejoin="round" stroke-miterlimit="10" d="M614.6,117.7c0,0,3.5,1.5,4.8-1.1
        c1.3-2.6-1.4-4.4-2.3-5.6"/>
      <path fill="none" stroke-linejoin="round" stroke-miterlimit="10" d="M617.3,139.2c0,0,3.3-3.1,4.3-0.9
        c1,2.2,0.7,3.7,0.7,5"/>
      <path fill="none" stroke-linejoin="round" stroke-miterlimit="10" d="M624.7,145c0,0,3.1-2.8,4.9-2.2
        c1.8,0.7,1.5,3.8,1.5,5.8"/>
      <path fill="none" stroke-linejoin="round" stroke-miterlimit="10" d="M636.5,150.9c0,0,2.7-4.6,4.8-4.2
        c2.1,0.4,3.7,3.6,4.4,6.3"/>
      <path fill="none" stroke-linejoin="round" stroke-miterlimit="10" d="M651.1,153.2c0,0,0.8-6.8,4.4-6.6
        c3.6,0.2,5.1,3.7,5.6,5.1"/>
      <path fill="none" stroke-linejoin="round" stroke-miterlimit="10" d="M668.8,148.9c0,0-1.5-5.5,0.8-6.5
        c2.3-1,5.4,1.2,6.5,2.3"/>
      <path fill="none" stroke-linejoin="round" stroke-miterlimit="10" d="M682.2,140.2c0,0-2-5.9,0-6s3.9,0.5,5,1.5"
        />
      <path fill="none" stroke-linejoin="round" stroke-miterlimit="10" d="M679.3,156.4c0,0,3.2,1.4,7.1,10.4
        c3.8,9,23.8,15,28.8,14.2c5-0.8,7.7-3.9,9.4-4.7s6.5-0.5,7.8,4"/>
      <path fill="none" stroke-linejoin="round" stroke-miterlimit="10" d="M681.4,170.8c0,0,1.2,8,3.9,13.5
        c2.6,5.4,8.8,31.4,2.2,46c0,0-2.2,16.1-3.9,22.1c-1.7,6-2.5,6.5,1,8.7c0,0,6.7,4.4,8.3,7.6"/>
      <path fill="none" stroke-linejoin="round" stroke-miterlimit="10" d="M684.5,245.3"/>
      <path fill="none" stroke-linejoin="round" stroke-miterlimit="10" d="M642.5,252.5c0,0,10.4-8.2,21.4-1.6"/>
      <path fill="none" stroke-linejoin="round" stroke-miterlimit="10" d="M681.2,274.6c-6.2,1.9-14.8-1.5-17.2-2.8
        c-2.3-1.2-1.1-4.5-1.3-8.7s-4.2-14.4-4.2-14.4"/>
      <path fill="none" stroke-linejoin="round" stroke-miterlimit="10" d="M679.6,273.9c0,0,1.6,0.7,3.6,1.4
        c2,0.7,2,0.9,2.9,1.7c1.2,0.4,0.5-4.5-1.5-6.5C682.6,268.5,678.7,269.8,679.6,273.9z"/>
      <path fill="none" stroke-linejoin="round" stroke-miterlimit="10" d="M685.4,271.5c0,0,0.6-2.7,2.6-2.5
        c2,0.2,5.9,6.7,4.6,7.2c-1.3,0.5-3.5-1.8-5.8-1.2"/>
      <path fill="none" stroke-linejoin="round" stroke-miterlimit="10" d="M690,270.4c0,0,1.5-2.4,2.9-1.7
        c1.3,0.9,3.8,3.2,3.9,4.6c0.1,0.7,0.3,2.5-0.4,1.8c-1.6-1.5-3.3-1.3-4.4-1.5"/>
      <path fill="none" stroke-linejoin="round" stroke-miterlimit="10" d="M674.2,255.2c0,0,5.7,0,6.9-0.9"/>
      <path fill="none" stroke-linejoin="round" stroke-miterlimit="10" d="M676,257.5c0,0,2.3,0.3,3.4-0.5"/>
      <path fill="none" stroke-linejoin="round" stroke-miterlimit="10" d="M648.1,249.5c0,0-2.6,7.1-2.3,11.2
        s1.9,8,0,10.1c-1.9,2-9.1,6.6-13.9,6.4"/>
      <path fill="none" stroke-linejoin="round" stroke-miterlimit="10" d="M627.2,273.4c0,0-3.4,4.5-3.1,6.9
        c0.3,2.4,1.3,0.2,2.4-0.5c1-0.7,6.3-0.3,5.5-3.9S628.1,272.2,627.2,273.4z"/>
      <path fill="none" stroke-linejoin="round" stroke-miterlimit="10" d="M620.4,272.1c0,0,3.8-0.6,4.6,1.4
        c0.9,1.9-0.3,3.3-0.9,3.6c-0.6,0.3-3.8,1.7-4.6,3.7C618.9,282.1,616.2,277.8,620.4,272.1z"/>
      <path fill="none" stroke-linejoin="round" stroke-miterlimit="10" d="M625.7,275.7"/>
      <line fill="none" stroke-linejoin="round" stroke-miterlimit="10" x1="625" y1="276" x2="625.5" y2="276"/>
      <path fill="none" stroke-linejoin="round" stroke-miterlimit="10" d="M615,271.3c0,0-4.6,3.3-4.9,6
        c-0.3,2.6,0.4,1.3,0.9,0.9c0.6-0.5,5.5-1.1,6.1-2C617.9,275.1,620.5,270.8,615,271.3z"/>
      <line fill="none" stroke-linejoin="round" stroke-miterlimit="10" x1="617.2" y1="276.1" x2="618.4" y2="276.1"/>
      <path fill="none" stroke-linejoin="round" stroke-miterlimit="10" d="M625,262.7"/>
      <path fill="none" stroke-linejoin="round" stroke-miterlimit="10" d="M615,271.3"/>
      <path fill="none" stroke-linejoin="round" stroke-miterlimit="10" d="M624.1,172c0,0-1.3,6.6-3.3,10.6
        s-9.2,29.8-4.6,42.5c4.6,12.7,5.7,13,5.5,15.7s1.9,18,2.7,20.7c0.7,2.8-7.3,3.4-9.3,9.7"/>
      <path fill="none" stroke-linejoin="round" stroke-miterlimit="10" d="M624.3,253c0,0,3.9,1.8,6.9,0.8"/>
      <path fill="none" stroke-linejoin="round" stroke-miterlimit="10" d="M625,256.2c0,0,3.2,0.7,4.8,0"/>
      <path fill="none" stroke-linejoin="round" stroke-miterlimit="10" d="M626.2,258.5c0,0,1,0.3,2.3,0"/>
      <path fill="none" stroke-linejoin="round" stroke-miterlimit="10" d="M676.8,215.3c0,14.7-5.8,25.3-26.6,26.7
        c-19,0-26.7-11.9-26.7-26.6S635.3,187,650,187C664.7,187,676.7,200.6,676.8,215.3z"/>
      <path fill="none" stroke-linejoin="round" stroke-miterlimit="10" d="M686.8,188.5c0,0,11.9,8.1,23.4,7.4
        c11.5-0.8,12,0,12,0"/>
      <path fill="none" stroke-linejoin="round" stroke-miterlimit="10" d="M723,187.2c0,0,1.3-3.1,2.7-4.8"/>
      <path fill="none" stroke-linejoin="round" stroke-miterlimit="10" d="M727,183.1c0,0,4.7,4.7,6.7,3.3
        c1.3-0.9,1.2-4.3,0-5C732.6,180.7,726.2,181.5,727,183.1z"/>
      <path fill="none" stroke-linejoin="round" stroke-miterlimit="10" d="M725.7,188.8c0,0,4.5,6.5,6.7,2.9
        c2-3.3-0.8-3.4-2.1-3.7C729.3,187.7,725,187,725.7,188.8z"/>
      <path fill="none" stroke-linejoin="round" stroke-miterlimit="10" d="M726.9,194.7c0,0,3.7,4,5.4,2.9
        c1.8-1.1,1.1-2.8-0.6-3.5C730,193.3,725.2,193,726.9,194.7z"/>
      <path fill="none" stroke-linejoin="round" stroke-miterlimit="10" d="M731.4,181.2c0,0-0.4-2.4,8.3,0
        c0,0,2.6,1.6,2.6,3.7c0,2.1-0.5,2.9-3.7,2.8c-3.2-0.1-4.8,0.8-6.6-1.1"/>
      <path fill="none" stroke-linejoin="round" stroke-miterlimit="10" d="M731.4,188.2c0,0,0-0.3,1.6-0.6"/>
      <path fill="none" stroke-linejoin="round" stroke-miterlimit="10" d="M739.4,187.6c0,0,3.4,5-1.1,5.8
        c-4.4,0.8-8.6,0.7-9.5-1.3"/>
      <path fill="none" stroke-linejoin="round" stroke-miterlimit="10" d="M739.1,193.2c0,0,1.8,2.8,0,4.5
        c-1.8,1.7-9.6,1.8-9.8-0.9"/>
      <path fill="none" stroke-linejoin="round" stroke-miterlimit="10" d="M722.2,192.1c0,0-1.7,5.7,3.5,6.4
        c5.1,0.7,4.5,1.6,9,0.4"/>
      <path fill="none" stroke-linejoin="round" stroke-miterlimit="10" d="M724.7,183.9c0,0,2,1.6,3.6,2.2
        c1.5,0.5,2.5-0.1,2.5-0.1"/>
      <line fill="none" stroke-linejoin="round" stroke-miterlimit="10" x1="728.2" y1="186.1" x2="728.2" y2="187.6"/>
      <path fill="none" stroke-linejoin="round" stroke-miterlimit="10" d="M623.7,158.9c0,0-6.8,3.6-9.7,12.1
        c-3,8.5-9.4,32.5-8.2,45c1.2,12.5,2,15.4,13.5,17.4"/>
      <path fill="none" stroke-linejoin="round" stroke-miterlimit="10" d="M606.7,223.4c0,0-4.2-1.4-4.6,4.9
        c-0.5,6.3-2.1,5.6-3.9,5.1c-1.9-0.5-5.3-3-7.7,3c-2.3,6-5.8,1.1-7.7,0c-2.8-1.7-5.1,0.7-6.5,4.7c-3.3,4.4-5.6-4.2-8.9-1.3
        c-3.4,2.9-2.6,8.1-7.1,5.7c-3.2-1.7-6.3-4.6-8.8,0.7"/>
      <path fill="none" stroke-linejoin="round" stroke-miterlimit="10" d="M538.8,273.7c0,0,45,9.6,56.9,1.4
        c0.8-1.6,3.1-6.6-0.1-7.5c-3.3-0.9-2.7,2.5-4.6,2.3c-4.6-0.6-2-5.1-6.7-6.3c-3-0.7-3,4-6,3.2c-6.2-1.6-1.5-6.4-6.8-7.9
        c-2.2-0.6-3.9,3.4-6,1.5c-2.1-1.9,0.7-5.8-3.7-6.5s-5.1,3-6.7,0.6c-1.6-2.4,4.4-7.8-4.4-8c-5.1,0.7-5.6,7.2-6.5,10
        c-0.9,2.8-0.2,11.6-1.6,12.6C541.1,270,535.7,273,538.8,273.7z"/>
      <path fill="none" stroke-linejoin="round" stroke-miterlimit="10" d="M570,250.6c0,0,30.4-5.4,38.2-10.6"/>
      <path fill="none" stroke-linejoin="round" stroke-miterlimit="10" d="M596.5,272.8c0,0,14.4,0.7,18.9-2.6"/>
      <path fill="none" stroke-linejoin="round" stroke-miterlimit="10" d="M646.3,264.2c0,0,10.7-2.5,13.6-11.7"/>
      <path fill="none" stroke-linejoin="round" stroke-miterlimit="10" d="M633.7,199.7c0,0,19-6,33.2-0.6"/>
      <path fill="none" stroke-linejoin="round" stroke-miterlimit="10" d="M630.1,210.9c0,0,32.3-3,42.3,0.8"/>
      <path fill="none" stroke-linejoin="round" stroke-miterlimit="10" d="M630.1,219.9c1,0.1,41.6,1.6,41.6,1.6"/>
      <path fill="none" stroke-linejoin="round" stroke-miterlimit="10" d="M633.8,232.7c0.3,0,15.9,5.5,33.2-0.9"/>
      <circle fill="none" stroke-linejoin="round" stroke-miterlimit="10" cx="757.6" cy="44" r="33.6"/>
      <path fill="none" stroke-linejoin="round" stroke-miterlimit="10" d="M759.7,77.6c-2.5,16-16.4,28.3-33.2,28.4
        c-18.6,0-33.7-15-33.7-33.6c0-2.1,0.2-4.2,0.6-6.2"/>
      <path fill="none" stroke-linejoin="round" stroke-miterlimit="10" d="M794.2,78.7c0.1,0.8,0.1,1.7,0.1,2.6
        c0,18.6-15,33.7-33.6,33.7c-9.6,0-18.4-4-24.5-10.5"/>
      <path fill="none" stroke-linejoin="round" stroke-miterlimit="10" d="M786.9,27.3c3.2-1.4,6.7-2.1,10.5-2.1
        c14.8,0,26.9,12,26.9,26.8c0,14.8-11.9,26.9-26.8,26.9c-7.6,0-14.5-3.1-19.4-8.2"/>
      <path fill="none" stroke-linejoin="round" stroke-miterlimit="10" d="M754.9,10.4c-4.2-4.7-10.4-10.9-20.9-9.1
        c-9.6,1.6-16.2,12.9-18.2,14.1s-14-1.6-18.9-1.6c-12.6,0-24.6,10.4-22.8,22.9c4,30.4,45.1,44.7,58.4,44.7c6.8,0,10.5-2.1,13-6"/>
      <line fill="none" stroke-linejoin="round" stroke-miterlimit="10" x1="737.5" y1="80.9" x2="733.1" y2="180.1"/>
      <line fill="none" stroke-linejoin="round" stroke-miterlimit="10" x1="763.8" y1="77.1" x2="734.7" y2="180.1"/>
      <line fill="none" stroke-linejoin="round" stroke-miterlimit="10" x1="785.3" y1="76" x2="736.8" y2="180.5"/>
      <line fill="none" stroke-linejoin="round" stroke-miterlimit="10" x1="730.7" y1="177.6" x2="720.7" y2="105.4"/>
      <path fill="none" stroke-linejoin="round" stroke-miterlimit="10" d="M731.5,199.5c0,0,4.6,29,0.9,46.4
        c-3.7,17.4-2.1,22.3-0.8,25.1"/>
      <path fill="none" stroke-linejoin="round" stroke-miterlimit="10" d="M733.1,199.3c0,0,8.7,26.2,6.9,35.9"/>
      <path fill="none" stroke-linejoin="round" stroke-miterlimit="10" d="M733.8,231.7c0,0,1.8,13.5,1.1,22.2"/>
    </g>

    <g stroke="#CECECE">
      <path fill="#FFFFFF" stroke-linejoin="round" stroke-miterlimit="10" d="M382.6,182.6c0,0-2.5,7-4.7,7.9
        c-1.9,0.8-4.9,0.4-6.7,0c-1.7-2.3,1.9-7.2,1-10c-0.9-2.9-2.3-3-3.6-3.5c-1.2-0.5-4.3-0.6-6.9,2c-1.6,1.6-2.1,5.2-2.1,5.2
        c-0.7,2.3,0.3,8.7-1.7,12.7c-2.3,4.5-5.5,9.5-5.5,9.6c-2.4,3.3-0.6,5,3.2,7.5c1.5,1,2.9,1.6,4.3,2c-0.2,1.5-0.4,2.7-0.7,3.7
        l-3.4,10.4c-5.5,5.5-14.8,14.4-22.4,20.2c-9.1,7-13.2,18.6-9.9,26.2c2.5,5.8,11.1,7.4,22.7,7c0,0,0.1,0,0.1,0c0,0,0.1,0,0.1,0
        l11.1,0c0.5,0,0.9-0.4,0.9-0.9l-0.7-2.4c0-0.5-0.4-0.9-0.9-0.9l-1.3-0.1c0.7-0.5,1.3-1.1,2-1.5c2.3-1.6,4.3-3.2,6.1-4.9
        c0.5,3.6,0.9,6.6,0.9,6.6l0,3.2c0,0.5,0.4,0.9,0.9,0.9l11.1,0c0.5,0,0.9-0.4,0.9-0.9l-0.7-2.4c0-0.5-0.4-0.9-0.9-0.9l-2.6-0.2
        c-0.6-0.1-1-0.4-1.3-0.8c-0.8-1.9-1.5-6.1-1.7-10.7 M376.9,217c-0.7-0.3-1.3-0.6-1.9-0.8c-2.2-1.1-4.5-4.5-5.8-7.6
        c-1.2-2.7-1.8-4.3-2.4-7.2c-0.8-3.6-0.9-7.3-0.9-7.5c1.4,2.4,5.4,8.9,10.7,10.4c6,1.7,11.9,1.1,17.3-3.9c6.5-6,5.9-15.6,5.9-15.6
         M375.9,229.8c-1.2-3-2.2-8.3-0.6-9.9c0.3-0.3,1.8-0.3,2.9-0.2c1.3,0.3,2.5,0.5,3.7,0.2 M365.9,193.8L365.9,193.8L365.9,193.8
        L365.9,193.8z"/>
      <ellipse fill="#FFFFFF" stroke-linejoin="round" stroke-miterlimit="10" cx="365.6" cy="186.3" rx="0.8" ry="1"/>
      <ellipse fill="#FFFFFF" stroke-linejoin="round" stroke-miterlimit="10" cx="369.3" cy="186.3" rx="0.8" ry="1"/>
      <ellipse fill="#FFFFFF" stroke-linejoin="round" stroke-miterlimit="10" cx="368.5" cy="186.3" rx="1.1" ry="1.9"/>
      <ellipse fill="#FFFFFF" stroke-linejoin="round" stroke-miterlimit="10" cx="365.1" cy="186.3" rx="1.1" ry="1.9"/>
      <path fill="#FFFFFF" stroke-linejoin="round" stroke-miterlimit="10" d="M376.9,217c0,0,1.8,0.7,2.8,1.2
        c1.1,0.5,2,1.5,2.4,2.2c1.1,1.8,1,3.6,1.4,5.5s0.9,3.6,1.6,4.5c1.5,2.1,3.7,2.2,5.1,2.1c1.4-0.1,3.4-1.2,3.7-4.2c0.2-2,0-5.9-0.9-8
        c-1.1-2.5-2.8-4.4-3.7-4.9c-1.9-1.1-4-0.5-5.2,0.1c-1.2-0.3-2.7-0.6-3.8-0.3c-0.9,0.2-1.5,0.5-2.1,0.8
        C377.3,216.5,376.9,217,376.9,217z"/>
      <path fill="#FFFFFF" stroke-linejoin="round" stroke-miterlimit="10" d="M373.8,229.6"/>
      <ellipse transform="matrix(1 -2.429456e-03 2.429456e-03 1 -0.4477 0.9503)" fill="#FFFFFF" stroke-linejoin="round" stroke-miterlimit="10" cx="390.9" cy="184.8" rx="8.8" ry="6.9"/>
      <path fill="#FFFFFF" stroke-linejoin="round" stroke-miterlimit="10" d="M327.4,280.5c-2.5,1.5-7.6,3-15.4-0.3
        c-11.9-5-10.6-15.4-9.8-19.3c0.8-3.9,4.6-9,6.1-10.2c-1,4.7-2.2,12.1-0.7,16c1.5,3.8,4.4,7.7,7.8,9.6c3.4,1.9,6.9,2.9,9,2.9
        c0.4,0,0.7,0,1.1,0"/>
      <path fill="#FFFFFF" stroke-linejoin="round" stroke-miterlimit="10" d="M368.7,255.8c0.3,2.1,0.6,4,0.8,6.2
        c0.1,1,0.4,4.5,0.6,5.4c1.4-2.3,3.1-3.7,5-6.2c1-1.4,2.7-3.7,3.6-5.1"/>
      <path fill="#FFFFFF" stroke-linejoin="round" stroke-miterlimit="10" d="M378.9,259.2c1.4-2.8,4.2-8.3,4.8-11.7
        c0.5-2.7,0-7.9-1.6-10.7c-1.5-2.5-6.1-7-6.1-7l-15,0l-5,0C356,229.9,380,246.6,378.9,259.2z"/>
      <path fill="#FFFFFF" stroke-linejoin="round" stroke-miterlimit="10" d="M354.5,223.2L354.5,223.2
        c0-0.1-0.1-0.2-0.1-0.3c-0.1-0.3-0.3-0.5-0.5-0.6h0l-3-2.3l0.1,3.7l0,0c0,0.3,0.1,0.6,0.2,0.8c0.1,0.1,0.1,0.2,0.2,0.3l0,0l0,0
        c0,0.1,0.1,0.1,0.1,0.1l4.5,4.9l0.2-1l-1.6-5.4C354.6,223.4,354.5,223.3,354.5,223.2L354.5,223.2z"/>
      <path fill="#FFFFFF" stroke-linejoin="round" stroke-miterlimit="10" d="M349.9,226.8L349.9,226.8
        c-0.1,0-0.2-0.1-0.3-0.1c-0.3-0.1-0.6,0-0.8,0l0,0l-3.7,0.9l3,2.2l0,0c0.2,0.2,0.5,0.3,0.8,0.4c0.1,0,0.2,0,0.4,0l0,0h0
        c0.1,0,0.1,0,0.2,0l6.2,0l0.4-0.4l-0.7-0.8l-5.1-2.2C350,226.9,350,226.8,349.9,226.8L349.9,226.8z"/>
      <path fill="#FFFFFF" stroke-linejoin="round" stroke-miterlimit="10" d="M363.6,272.7c0,0-1.1-11.3-1.3-11
        c-2.2,2.8-2.5,3-4.4,5.8c-1.5,2.2-2.9,6.4-3,7.7c0,1.3,1.4,2.5,2.6,2.4"/>
      <path fill="#FFFFFF" stroke-linejoin="round" stroke-miterlimit="10" d="M355.5,279.1l-8.1-0.3
        c0,0,2.9-2.9,2.6-7.4s-5.9-9.4-11.3-7.7"/>
      <ellipse fill="#FFFFFF" stroke-linejoin="round" stroke-miterlimit="10" cx="395" cy="182.6" rx="2" ry="1.5"/>
      <path fill="#FFFFFF" stroke-linejoin="round" stroke-miterlimit="10" d="M367.3,182.8c0,0,2.3-1.9,3.2,0"/>
      <path fill="#FFFFFF" stroke-linejoin="round" stroke-miterlimit="10" d="M366,182.6c0,0-2.3-2-3.9,0"/>
      <path fill="#FFFFFF" stroke-linejoin="round" stroke-miterlimit="10" d="M376.6,204.3c0,0,0,7.9,3.1,11.1"/>
      <path fill="#FFFFFF" stroke-linejoin="round" stroke-miterlimit="10" d="M384.1,215.5c0,0,3.7,1.6,4.5,6.7"/>
      <path fill="#FFFFFF" stroke-linejoin="round" stroke-miterlimit="10" d="M359.9,215.9c0,0,3.9,0.7,6.8-2.6
        c2.3-2.6-0.6-8.6-1-9.8c-0.7-2-0.8-3.8-1.4-7.1c-0.4-2.6-0.5-4.3-0.5-4.3"/>
      <path fill="#FFFFFF" d="M56.3,231.3c0,0,1.2,1.2,2.7,2.7c1.5,1.5,1.5,3.8,0,5.3c-1.4,1.4-2.6,2.6-2.6,2.6"/>
      <path fill="none" stroke-linejoin="round" stroke-miterlimit="10" d="M56.3,231.3c0,0,1.2,1.2,2.7,2.7
        c1.5,1.5,1.5,3.8,0,5.3c-1.4,1.4-2.6,2.6-2.6,2.6"/>
      <path fill="#FFFFFF" d="M23.7,241.3c0,0,1.9,1.9,4.1,4.1c2.3,2.3,6.3,2,8.9-0.7c2.6-2.6,4.8-4.8,4.8-4.8"/>
      <path fill="none" stroke-linejoin="round" stroke-miterlimit="10" d="M23.7,241.3c0,0,1.9,1.9,4.1,4.1
        c2.3,2.3,6.3,2,8.9-0.7c2.6-2.6,4.8-4.8,4.8-4.8"/>
      <rect x="70.6" y="195" transform="matrix(0.7072 -0.707 0.707 0.7072 -117.2881 109.8894)" fill="#FFFFFF" stroke-linejoin="round" stroke-miterlimit="10" width="6.7" height="3"/>
      <path fill="#FFFFFF" stroke-linejoin="round" stroke-miterlimit="10" d="M59.1,251.2c2.1-2.1,2.5-5.3,0.8-7l0,0
        l-10.4-10.4c-1.7-1.7-4.8-1.3-7,0.8c-2.1,2.1-2.5,5.3-0.8,7L52.1,252l0,0C53.8,253.7,56.9,253.3,59.1,251.2z"/>
      <path fill="#FFFFFF" stroke-linejoin="round" stroke-miterlimit="10" d="M65.6,197.7l-10.5,10.5
        c-2,2-2,5.1,0,7.1c2,2,5.1,2,7.1,0l10.5-10.5c2-2,2-5.1,0-7.1C70.7,195.7,67.6,195.7,65.6,197.7z"/>
      <path fill="#FFFFFF" stroke-linejoin="round" stroke-miterlimit="10" d="M68.9,212.2c2,2,1.6,5.5-0.8,7.8
        l-19.7,19.7c-2.4,2.4-5.9,2.7-7.8,0.8l-8.5-8.5c-2-2-1.6-5.5,0.8-7.8l19.7-19.7c2.4-2.4,5.9-2.7,7.8-0.8L68.9,212.2z"/>
      <path fill="#FFFFFF" stroke-linejoin="round" stroke-miterlimit="10" d="M45.3,202.5c-4.8-4.8-12.5-4.8-17.2,0
        l0,0L4.6,225.9c-4.8,4.8-4.8,12.5,0,17.2c4.8,4.8,12.5,4.8,17.2,0l23.5-23.5l0,0C50,214.9,50,207.2,45.3,202.5z"/>
      <path fill="#FFFFFF" stroke-linejoin="round" stroke-miterlimit="10" d="M78.7,194.9c0.4,0.4,0.4,1.1,0,1.5l0,0
        c-0.4,0.4-1.1,0.4-1.5,0l-3.2-3.2c-0.4-0.4-0.4-1.1,0-1.5l0,0c0.4-0.4,1.1-0.4,1.5,0L78.7,194.9z"/>
      <path fill="#FFFFFF" stroke-linejoin="round" stroke-miterlimit="10" d="M73,208.5l-8.8,8.8l-2.2,2.2l-3.4,3.4
        l0,0c0,0,0,0,0,0c-1.9,1.9-1.9,4.9,0,6.7c1.9,1.9,4.9,1.9,6.7,0c0,0,0,0,0,0l0,0l3.4-3.4L71,224l8.8-8.8c1.9-1.9,0.4-3.5-1.4-5.3
        C76.5,208,74.9,206.6,73,208.5z"/>
      <path fill="#FFFFFF" stroke-linejoin="round" stroke-miterlimit="10" d="M72.9,203.3c0.7,0.7,0.7,1.8,0,2.5l0,0
        c-0.7,0.7-1.8,0.7-2.5,0l-6.1-6.1c-0.7-0.7-0.7-1.8,0-2.5l0,0c0.7-0.7,1.8-0.7,2.5,0L72.9,203.3z"/>
      <path fill="#FFFFFF" stroke-linejoin="round" stroke-miterlimit="10" d="M51.8,238.6c0.6,0.6,0.6,1.5,0,2.1
        l-3.2,3.2c-0.6,0.6-1.5,0.6-2.1,0l0,0c-0.6-0.6-0.6-1.5,0-2.1l3.2-3.2C50.3,238,51.2,238,51.8,238.6L51.8,238.6z"/>
      <path fill="#FFFFFF" stroke-linejoin="round" stroke-miterlimit="10" d="M54.9,241.7c0.6,0.6,0.6,1.5,0,2.1
        l-3.2,3.2c-0.6,0.6-1.5,0.6-2.1,0l0,0c-0.6-0.6-0.6-1.5,0-2.1l3.2-3.2C53.4,241.1,54.3,241.1,54.9,241.7L54.9,241.7z"/>
      <path fill="#FFFFFF" stroke-linejoin="round" stroke-miterlimit="10" d="M58,244.8c0.6,0.6,0.6,1.5,0,2.1
        l-3.2,3.2c-0.6,0.6-1.5,0.6-2.1,0l0,0c-0.6-0.6-0.6-1.5,0-2.1l3.2-3.2C56.5,244.2,57.4,244.2,58,244.8L58,244.8z"/>
      <path fill="#FFFFFF" stroke-linejoin="round" stroke-miterlimit="10" d="M61.7,208.8c0.6,0.6,0.6,1.5,0,2.1
        L38.7,234c-0.6,0.6-1.5,0.6-2.1,0l0,0c-0.6-0.6-0.6-1.5,0-2.1l23.1-23.1C60.2,208.3,61.1,208.3,61.7,208.8L61.7,208.8z"/>
      <path fill="#FFFFFF" stroke-linejoin="round" stroke-miterlimit="10" d="M64.1,221.3c-0.6-0.6-1.6-0.6-2.2,0l0,0
        l-3.5,3.5c-0.6,0.6-0.6,1.6,0,2.2c0.6,0.6,1.6,0.6,2.2,0l3.5-3.5l0,0C64.7,222.8,64.7,221.9,64.1,221.3z"/>
      <circle fill-rule="evenodd" clip-rule="evenodd" fill="#FFFFFF" stroke-linejoin="round" stroke-miterlimit="10" cx="974.8" cy="109" r="40.3"/>
      <ellipse transform="matrix(0.7685 -0.6398 0.6398 0.7685 171.8868 654.3196)" fill-rule="evenodd" clip-rule="evenodd" fill="#FFFFFF" stroke-linejoin="round" stroke-miterlimit="10" cx="990.3" cy="89.6" rx="9.7" ry="11.2"/>
      <path fill-rule="evenodd" clip-rule="evenodd" fill="#FFFFFF" stroke-linejoin="round" stroke-miterlimit="10" d="
      M1002.5,79.7c7.5,7.1,12.2,16.9,12.6,27.9l0-0.1c-2.7-8.1-14.5-15.2-14.5-15.2l0,0c0.3-3-0.6-6.2-2.8-8.9c-0.2-0.2-0.3-0.4-0.5-0.5
      l0,0C997.2,82.8,998.9,80.2,1002.5,79.7L1002.5,79.7z"/>
      <path fill-rule="evenodd" clip-rule="evenodd" fill="#FFFFFF" stroke-linejoin="round" stroke-miterlimit="10" d="
      M973.3,68.7c-16.8,0.6-30.9,11.5-36.4,26.6l0,0c20.2-12.3,42.9-6.9,42.9-6.9l0.1,0c-0.1-2.9,1-5.6,3.2-7.4c0.6-0.5,1.3-0.9,2-1.3
      l0-0.1C985.1,79.6,979.4,70.9,973.3,68.7L973.3,68.7z"/>
      <path fill-rule="evenodd" clip-rule="evenodd" fill="#FFFFFF" stroke-linejoin="round" stroke-miterlimit="10" d="
      M983.9,97c3.6,3.3,8.5,4.2,12.2,2.2l0,0c0,0,5.9,25.2-8.3,47.9l-0.2,0.1c-4,1.4-8.4,2.1-12.9,2.1c-11,0-21.1-4.4-28.3-11.6l0.2-0.1
      C958.6,129,983.9,97,983.9,97L983.9,97z"/>
      <path fill="#FFFFFF" stroke-linejoin="round" stroke-miterlimit="10" d="M189.1,128.1c2.3,1.3,5.2,1,7.2-0.9l0,0
        c2.1-2.1,2.3-5.5,0.5-7.8l-11-7.5l-4,3L189.1,128.1z"/>
      <path opacity="0.3" fill="#FFFFFF" stroke-linejoin="round" stroke-miterlimit="10" d="M203.4,83.6
        c-8.1-4.8-13.6,1.7-19.6,7.7l-9.4,9.3l0,0l-2.2,2.2l-2.2,2.2l0,0l-9.3,9.4c-6,6-12.5,11.5-7.7,19.6c2,3.3,8.2,10.6,19.6,10
        c6.7-0.3,13.3-9.3,14.3-13.9c0.9-4.3-0.5-6.6-2.1-9.1c-1.3-2.1-3.8-4.8-1.3-7c2.4-2.6,4.9-0.1,7,1.1c2.2,1.3,4.5,3.2,9,2.2
        c4.6-1,13.6-7.5,13.9-14.3C214,91.8,206.7,85.5,203.4,83.6z"/>
      <path fill="#FFFFFF" stroke-linejoin="round" stroke-miterlimit="10" d="M182.3,112.4c3-3,6.4-0.9,8.2,0.3
        c0.4,0.2,0.7,0.5,1,0.6c0.3,0.2,0.6,0.4,1,0.6c1.9,1.1,3.6,2.1,6.7,1.5c2-0.4,5.5-2.3,8.4-5.2l0,0c2.4-2.4,3.8-5,3.9-7.2
        c0.6-11.7-8.1-17.2-9-17.8c-5.2-3.1-8.9-0.9-14.8,5c-0.4,0.4-0.8,0.8-1.2,1.2c-0.4,0.4-0.8,0.8-1.2,1.2l-9.4,9.3
        c-0.1,0.1-0.2,0.1-0.2,0.2l-2,2l-2,2c-0.1,0.1-0.1,0.2-0.2,0.2l-9.3,9.4c-0.4,0.4-0.8,0.8-1.2,1.2c-0.4,0.4-0.8,0.8-1.2,1.2
        c-5.9,5.9-8.1,9.6-5,14.8c0.6,1,6.1,9.6,17.8,9c2.2-0.1,4.8-1.5,7.2-4c2.9-2.9,4.8-6.4,5.2-8.4c0.7-3.5-0.3-5.1-1.7-7.4l-0.1-0.2
        c-0.2-0.3-0.4-0.6-0.6-0.9c-1.3-1.9-3.6-5.4-0.6-8.4c0.1-0.1,0.2-0.1,0.2-0.2C182.2,112.4,182.3,112.4,182.3,112.4z M210.4,112.8
        L210.4,112.8c-3.1,3.1-7.3,5.7-10.4,6.3c-4.6,1-7.5-0.7-9.5-1.9c-0.3-0.2-0.6-0.3-0.9-0.5c-0.4-0.2-0.8-0.5-1.2-0.7
        c-2.3-1.5-2.7-1.4-3.3-0.8c0,0-0.1,0.1-0.1,0.1c-0.1,0.1-0.1,0.1-0.2,0.2c-0.6,0.5-0.6,1,1,3.5c0.2,0.3,0.5,0.7,0.7,1l0.1,0.2
        c1.5,2.5,3.3,5.3,2.2,10.3c-0.6,3.1-3.2,7.2-6.3,10.4c-2.2,2.2-5.7,4.9-9.8,5.1c-10.6,0.5-18.1-5.6-21.3-11
        c-5.2-8.8,1.3-15.3,5.6-19.6c0.4-0.4,0.8-0.8,1.2-1.2c0.4-0.4,0.8-0.8,1.2-1.2l9.1-9.2c0.1-0.1,0.1-0.2,0.2-0.3l2.2-2.2l2.2-2.2
        c0.1-0.1,0.2-0.2,0.3-0.2l9.2-9.1c0.4-0.4,0.8-0.8,1.2-1.2c0.4-0.4,0.8-0.8,1.2-1.2c4.3-4.3,10.8-10.8,19.6-5.6
        c5.4,3.2,11.5,10.7,11,21.3C215.3,107.1,212.7,110.6,210.4,112.8z"/>
      <path fill="#FFFFFF" stroke-linejoin="round" stroke-miterlimit="10" d="M196.1,122.2"/>
      <path fill="#FFFFFF" stroke-linejoin="round" stroke-miterlimit="10" d="M209.6,128.6c1.7,1.7,1.7,4.5,0,6.2
        l-5.2,5.2c-1.7,1.7-4.5,1.7-6.2,0l0,0c-1.7-1.7-1.7-4.5,0-6.2l5.2-5.2C205.1,126.9,207.9,126.9,209.6,128.6L209.6,128.6z"/>
      <path fill="#FFFFFF" stroke-linejoin="round" stroke-miterlimit="10" d="M173.6,54.8l4.9-4.9l55.9,55.9l1.2,1.2
        c3.9,3.9,3.7,11.1-1.7,17.1l0,0l-14.6,14.6c-4.9,4.9-12.8,4-17.5-0.7c0,0-0.6-0.5-0.7-1c-0.2-0.6,0.6-2.1,1.8-3.3
        c1.2-1.2,3.1-2.6,4-1.8c0.9,0.8,4.6,4,7.4,1.8c2.7-2.2,12.8-12.6,14.5-14.5c1.8-1.9,3.4-4.4,1.7-7.3
        C229,109,173.6,54.8,173.6,54.8z"/>
      <path fill="#FFFFFF" stroke-linejoin="round" stroke-miterlimit="10" d="M1084.5,242.7c-1.6,1.6-4.1,1.6-5.7,0
        l-12.9-12.9c-1.6-1.6-1.6-4.1,0-5.7l28.3-28.3c1.6-1.6,4.1-1.6,5.7,0l12.9,12.9c1.6,1.6,1.6,4.1,0,5.7L1084.5,242.7z"/>
      <path fill="#FFFFFF" stroke-linejoin="round" stroke-miterlimit="10" d="M1080.7,238.9c-1.6,1.6-4.1,1.6-5.7,0
        l-12.9-12.9c-1.6-1.6-1.6-4.1,0-5.7l28.3-28.3c1.6-1.6,4.1-1.6,5.7,0l12.9,12.9c1.6,1.6,1.6,4.1,0,5.7L1080.7,238.9z"/>
      <rect x="1076.1" y="198.3" transform="matrix(0.7071 0.7071 -0.7071 0.7071 470.1522 -704.8673)" fill="#FFFFFF" stroke-linejoin="round" stroke-miterlimit="10" width="19.7" height="33.7"/>
      <circle fill="#FFFFFF" stroke-linejoin="round" stroke-miterlimit="10" cx="1071.3" cy="229.7" r="1.8"/>
      <path fill-rule="evenodd" clip-rule="evenodd" fill="#FFFFFF" stroke-linejoin="round" stroke-miterlimit="10" d="
      M1178.8,145.7c-1.1,1.1-2.8,1.1-3.9,0l-36.5-36.5c-1.1-1.1-1.1-2.8,0-3.9l19.9-19.9c1.1-1.1,2.8-1.1,3.9,0l36.5,36.5
      c1.1,1.1,1.1,2.8,0,3.9L1178.8,145.7z"/>
      <path fill-rule="evenodd" clip-rule="evenodd" fill="#FFFFFF" stroke-linejoin="round" stroke-miterlimit="10" d="
      M1170.3,137.2c-1.1,1.1-2.8,1.1-3.9,0l-31.6-31.6c-1.1-1.1-1.1-2.8,0-3.9l19.9-19.9c1.1-1.1,2.8-1.1,3.9,0l31.6,31.6
      c1.1,1.1,1.1,2.9,0,3.9L1170.3,137.2z"/>
      <path fill-rule="evenodd" clip-rule="evenodd" fill="#FFFFFF" stroke-linejoin="round" stroke-miterlimit="10" d="
      M1167.5,97l-12-12l-17.4,17.4l12,12l0,0c4.8,4.8,12.6,4.8,17.4,0C1172.3,109.7,1172.3,101.8,1167.5,97z"/>
      <circle fill-rule="evenodd" clip-rule="evenodd" fill="#FFFFFF" stroke-linejoin="round" stroke-miterlimit="10" cx="1146.8" cy="93.8" r="12.3"/>
      <circle fill-rule="evenodd" clip-rule="evenodd" fill="#FFFFFF" stroke-linejoin="round" stroke-miterlimit="10" cx="1146.8" cy="93.8" r="9.6"/>
      <rect x="1175.9" y="109.1" transform="matrix(0.7072 0.707 -0.707 0.7072 425.0658 -801.3867)" fill-rule="evenodd" clip-rule="evenodd" fill="#FFFFFF" stroke-linejoin="round" stroke-miterlimit="10" width="8.2" height="6.6"/>
      <path fill-rule="evenodd" clip-rule="evenodd" fill="none" stroke-linejoin="round" stroke-miterlimit="10" d="
        M1145.1,109.6L1145.1,109.6c4.8,4.8,12.6,4.8,17.4,0s4.8-12.6,0-17.4"/>
      <line fill-rule="evenodd" clip-rule="evenodd" fill="#FFFFFF" stroke-linejoin="round" stroke-miterlimit="10" x1="1169.9" y1="110.9" x2="1191.8" y2="132.7"/>
      <path fill-rule="evenodd" clip-rule="evenodd" fill="#FFFFFF" stroke-linejoin="round" stroke-miterlimit="10" d="
      M1193.1,116.2l-5.5-5.5l1-1c0.5-0.5,1.4-0.5,2,0l3.6,3.6c0.5,0.5,0.5,1.4,0,2L1193.1,116.2z"/>
    </g>
  </symbol>
</svg>
